<?xml version="1.0" standalone="no"?>
<!DOCTYPE svg PUBLIC "-//W3C//DTD SVG 20010904//EN" "http://www.w3.org/TR/2001/REC-SVG-20010904/DTD/svg10.dtd">
<!-- Created using Krita: https://krita.org -->
<svg xmlns="http://www.w3.org/2000/svg" 
    xmlns:xlink="http://www.w3.org/1999/xlink"
    xmlns:krita="http://krita.org/namespaces/svg/krita"
    xmlns:sodipodi="http://sodipodi.sourceforge.net/DTD/sodipodi-0.dtd"
    width="512pt"
    height="512pt"
    viewBox="0 0 144 144">
<defs/>
<path id="shape0" transform="translate(33.1932203389831, 2.10000002181204)" fill="#ff8a00" fill-rule="evenodd" stroke="#000000" stroke-width="0.96" stroke-linecap="square" stroke-linejoin="bevel" d="M0 38.578L3.25424 139.622L75.8237 139.459L77.1154 54.412C77.3525 49.9028 72.8567 48.0895 68.3756 46.5207C65.3926 42.8368 64.3365 44.9443 55.6475 36.1373C57.1136 32.5585 61.306 30.3428 60.0407 25.3983C59.6248 22.9533 60.2089 20.6027 63.5814 19.9405C65.6331 16.6667 69.9783 13.7284 68.6868 10.17C67.3826 10.3864 66.0177 11.2106 64.8618 9.945C63.125 11.5994 59.669 14.9044 60.1668 9.3L67.6668 2.1L56.3268 9.06L51.0468 8.52L41.5668 7.26L38.1468 7.38L37.0068 5.64L33.6468 2.82L31.5468 3.9L28.5468 0L24.5868 1.62L26.1468 3.18L28.0068 3C28.8647 3.68233 29.8193 4.59863 30.8707 5.74888C30.7011 7.41049 30.1778 8.66914 29.3009 9.52484C26.701 11.4767 23.1897 11.6618 18.7668 10.08L14.0868 11.58C11.0995 13.4396 9.01719 15.8422 7.72678 18.72C8.82199 21.4154 9.49479 24.4639 4.78678 24.42C4.6405 26.5 4.51966 28.58 1.48678 30.66C2.39415 36.2055 3.45033 42.0592 0 38.578Z" sodipodi:nodetypes="ccccccccccccccccccccccccccccccc"/>
</svg>
