<?xml version="1.0" standalone="no"?>
<!DOCTYPE svg PUBLIC "-//W3C//DTD SVG 20010904//EN" "http://www.w3.org/TR/2001/REC-SVG-20010904/DTD/svg10.dtd">
<!-- Created using Krita: https://krita.org -->
<svg xmlns="http://www.w3.org/2000/svg" 
    xmlns:xlink="http://www.w3.org/1999/xlink"
    xmlns:krita="http://krita.org/namespaces/svg/krita"
    xmlns:sodipodi="http://sodipodi.sourceforge.net/DTD/sodipodi-0.dtd"
    width="512pt"
    height="512pt"
    viewBox="0 0 144 144">
<defs/>
<path id="shape0" transform="translate(14.0408259488232, 1.25625072168085)" fill="#00ffff" fill-rule="evenodd" stroke="#000000" stroke-width="0.48" stroke-linecap="square" stroke-linejoin="bevel" d="M0 0.635775L2.29035 64.5663L15.3354 64.9647C17.8079 65.0246 18.2602 63.5812 19.3974 63.2204C20.4351 62.8912 21.4371 63.04 22.224 63.1671C25.8622 63.7544 26.8894 67.8515 30.9088 68.3984L36.3299 68.9801C38.7696 70.2737 40.9564 70.7531 43.3962 72.0466C44.6638 72.7187 46.1017 73.7744 47.3693 74.4465C49.2517 76.442 47.497 76.7406 46.7032 78.1093L51.2839 83.0883C53.34 81.3938 53.7402 86.474 54.9683 88.1669L59.9474 92.9467L58.8592 94.6838L58.9192 96.6038C59.9807 96.3126 59.8793 98.2106 59.7592 100.144L62.9992 101.404C64.5152 100.462 64.3168 98.5316 64.0192 96.5438L71.0992 88.5038L77.0992 84.4838C78.0744 81.7214 79.1804 79.0244 80.9992 76.6838C83.192 76.1832 82.6064 77.4752 82.7392 78.3038C82.6714 80.2889 82.0502 81.8895 81.0592 83.1638C83.1517 85.6731 82.3039 87.2235 81.1792 88.6838L80.2792 90.8438L78.6592 97.9238C78.151 99.2134 77.845 100.528 76.8078 101.752C76.1049 102.109 75.3754 102.146 74.6992 101.944L71.4908 104.004L72.0848 106.507L74.6304 105.149L77.4729 105.404C79.2584 104.259 81.2047 102.052 81.6609 95.9654C82.3816 94.4802 82.6977 95.2968 83.5541 95.7787L87.4739 101.192L87.825 104.004L84.8551 109.519L89.6917 108.289C94.834 108.605 92.2727 109.701 92.2798 110.537L98.1667 124.551C97.4692 126.633 97.3868 127.38 97.3285 129.035L104.032 139.345C105.702 138.374 106.798 138.615 107.723 139.218L108.699 139.26L108.656 134.211L115.319 3.06375C78.231 -0.834798 39.166 -0.214888 0 0.635775Z" sodipodi:nodetypes="ccccccccccccccccccccccccccccccccccccccccccccccc"/>
</svg>
