<?xml version="1.0" standalone="no"?>
<!DOCTYPE svg PUBLIC "-//W3C//DTD SVG 20010904//EN" "http://www.w3.org/TR/2001/REC-SVG-20010904/DTD/svg10.dtd">
<!-- Created using Krita: https://krita.org -->
<svg xmlns="http://www.w3.org/2000/svg" 
    xmlns:xlink="http://www.w3.org/1999/xlink"
    xmlns:krita="http://krita.org/namespaces/svg/krita"
    xmlns:sodipodi="http://sodipodi.sourceforge.net/DTD/sodipodi-0.dtd"
    width="512pt"
    height="512pt"
    viewBox="0 0 144 144">
<defs/>
<path id="shape0" transform="translate(0.973727481229815, 0.959997522391447)" fill="#fe75f6" fill-rule="evenodd" stroke="#000000" stroke-width="0.24" stroke-linecap="square" stroke-linejoin="bevel" d="M4.15659 0L0 81.0661L5.1773 84.5542L17.0055 84.5542L34.474 95.4832L53.664 83.4407L51.3265 81.3605C53.3146 79.0978 55.8157 78.8011 58.2044 78.5195C58.9225 80.2273 58.804 81.2057 59.563 82.463C58.593 83.5802 57.4617 85.4001 55.0626 88.0603C56.1062 89.6805 57.0815 91.0462 58.2468 91.7918C59.6492 92.3921 61.2707 92.8635 62.8745 93.8271L66.1011 93.8695L76.5877 104.64L78.9652 102.605L81.5998 98.0275L83.8925 97.6034L97.9877 86.8329L126.178 83.6103L134.133 79.0003L110.385 62.4086C110.292 59.3807 109.895 57.1652 109.772 54.4372C108.271 51.5728 106.377 49.4174 104.356 47.0585L81.6848 44.6839C77.1153 42.0517 72.3146 39.5929 67.08 39.2787C63.6135 39.3772 60.4343 45.9254 53.7489 37.0513C51.1603 33.0854 50.9131 31.824 38.8605 24.3468C38.2464 23.8741 37.4556 20.6666 36.4882 14.7243C35.9328 13.7353 34.3517 12.7558 31.7449 11.7859C30.1959 12.3621 28.7451 13.4708 27.3926 15.1118C25.0785 12.2328 21.7476 7.48605 17.4 0.871675Z" sodipodi:nodetypes="cccccccccccccccccccccccccccccccc"/>
</svg>
