<?xml version="1.0" standalone="no"?>
<!DOCTYPE svg PUBLIC "-//W3C//DTD SVG 20010904//EN" "http://www.w3.org/TR/2001/REC-SVG-20010904/DTD/svg10.dtd">
<!-- Created using Krita: https://krita.org -->
<svg xmlns="http://www.w3.org/2000/svg" 
    xmlns:xlink="http://www.w3.org/1999/xlink"
    xmlns:krita="http://krita.org/namespaces/svg/krita"
    xmlns:sodipodi="http://sodipodi.sourceforge.net/DTD/sodipodi-0.dtd"
    width="512pt"
    height="512pt"
    viewBox="0 0 144 144">
<defs/>
<path id="shape0" transform="translate(28.8499577831131, 2.96984859532047)" fill="#fbda37" fill-rule="evenodd" stroke="#000000" stroke-width="1.2" stroke-linecap="square" stroke-linejoin="bevel" d="M70.5127 0L77.5555 6.1094L82.1375 6.53367L84.4286 7.63675L87.4833 110.733L79.5919 114.976C67.4786 114.849 61.8256 119.839 57.6151 127.958C56.7347 126.899 54.8277 127.014 52.2693 127.873C49.1314 127.033 40.8724 127.419 38.3535 131.861L36.4867 132.286C31.9586 135.412 27.6929 143.858 20.195 134.322L18.2434 134.407L17.6494 131.607C21.9797 130.797 19.5206 123.554 19.7707 118.879L12.9825 105.727L12.8976 102.926C10.9887 99.2786 7.86355 95.7023 7.21249 91.9805L2.47004 88.3202C4.05953 88.0689 5.92259 87.9038 2.96985 84.5983C7.9799 84.8427 0.98995 77.5272 0 73.9917L1.69004 67.5002C0.529079 66.2177 -0.148994 60.6826 0.100042 59.8802C0.510123 60.6321 2.01977 63.9652 2.96985 62.1971C5.31707 55.5553 15.387 46.9904 26.3892 45.9054L39.3717 39.796L45.5235 28.659C45.7249 26.7401 43.7032 26.0916 45.9054 22.5496C47.2363 21.0038 48.3772 17.7066 50.148 23.6739C53.5186 25.378 54.5627 23.3911 53.3512 18.307L50.742 18.0737L50.4026 16.0372L54.4755 17.7342C55.8538 18.1636 59.1208 14.4532 57.3605 12.8128C56.1975 12.0316 60.8606 7.91246 62.6214 9.1641C62.5197 6.24582 56.4027 4.03456 65.6761 4.15779L66.2701 2.20617Z" sodipodi:nodetypes="ccccccccccccccccccccccccccccccccccccc"/>
</svg>
