<?xml version="1.0" standalone="no"?>
<!DOCTYPE svg PUBLIC "-//W3C//DTD SVG 20010904//EN" "http://www.w3.org/TR/2001/REC-SVG-20010904/DTD/svg10.dtd">
<!-- Created using Krita: https://krita.org -->
<svg xmlns="http://www.w3.org/2000/svg" 
    xmlns:xlink="http://www.w3.org/1999/xlink"
    xmlns:krita="http://krita.org/namespaces/svg/krita"
    xmlns:sodipodi="http://sodipodi.sourceforge.net/DTD/sodipodi-0.dtd"
    width="512pt"
    height="512pt"
    viewBox="0 0 144 144">
<defs/>
<path id="shape0" transform="matrix(0.24 0 0 0.24 -1.4210854715202e-14 0)" fill="#ee1c25" stroke-opacity="0" stroke="#000000" stroke-width="0" stroke-linecap="square" stroke-linejoin="bevel" d="M0 0L600 0L600 600L0 600Z" sodipodi:nodetypes="ccccc"/><g id="a" transform="matrix(0.24 0 0 0.24 -35.3450204581232 -0.199403291927325)" fill="none">
  <path id="shape1" transform="translate(390.303013988461, 124.972312195542)" fill="#ffffff" stroke-opacity="0" stroke="#000000" stroke-width="0" stroke-linecap="square" stroke-linejoin="bevel" d="M59.661 174.941C-45.602 130.455 1.05899 -6.64031 101.731 0.250688C81.365 10.7177 78.413 30.2477 90.044 48.3407C103.068 68.5967 88.844 101.189 71.238 109.108C42.303 122.133 36.51 156.858 59.661 174.941Z" sodipodi:nodetypes="ccccc"/>
  <path id="shape2" transform="translate(418.029024138611, 180.251)" fill="#ee1c25" stroke-opacity="0" stroke="#000000" stroke-width="0" stroke-linecap="square" stroke-linejoin="bevel" d="M26.243 20.669L20.323 29.963L18.179 19.148L7.49998 16.389L17.125 10.999L16.454 0L24.539 7.49L34.795 3.447L30.185 13.457L37.186 21.962ZM32.531 118.508C19.8 111.974 9.53498 98.353 5.06298 82.077C-0.0520241 63.407 2.88998 43.334 13.146 27.039L10.938 25.645C0.297976 42.574 -2.75502 63.388 2.55198 82.765C7.27998 99.986 17.766 113.862 31.339 120.829Z" sodipodi:nodetypes="cccccccccccccccccc"/>
 </g><g id="group0" transform="matrix(0.0741640786499874 0.228253563910837 -0.228253563910837 0.0741640786499874 107.757213322633 -53.1627306468001)" fill="none">
  <g id="a1" fill="none">
   <path id="shape3" transform="translate(390.30301398846, 124.972312195541)" fill="#ffffff" stroke-opacity="0" stroke="#000000" stroke-width="0" stroke-linecap="square" stroke-linejoin="bevel" d="M59.661 174.941C-45.602 130.455 1.05899 -6.64031 101.731 0.250688C81.365 10.7177 78.413 30.2477 90.044 48.3407C103.068 68.5967 88.844 101.189 71.238 109.108C42.303 122.133 36.51 156.858 59.661 174.941Z" sodipodi:nodetypes="ccccc"/>
   <path id="shape4" transform="translate(418.029024138611, 180.251)" fill="#ee1c25" stroke-opacity="0" stroke="#000000" stroke-width="0" stroke-linecap="square" stroke-linejoin="bevel" d="M26.243 20.669L20.323 29.963L18.179 19.148L7.49998 16.389L17.125 10.999L16.454 0L24.539 7.49L34.795 3.447L30.185 13.457L37.186 21.962ZM32.531 118.508C19.8 111.974 9.53498 98.353 5.06298 82.077C-0.0520241 63.407 2.88998 43.334 13.146 27.039L10.938 25.645C0.297976 42.574 -2.75502 63.388 2.55198 82.765C7.27998 99.986 17.766 113.862 31.339 120.829Z" sodipodi:nodetypes="cccccccccccccccccc"/>
  </g>
 </g><g id="group1" transform="matrix(-0.194164078649987 0.141068460550194 -0.141068460550194 -0.194164078649987 202.349353099429 66.5690130554818)" fill="none">
  <g id="a2" fill="none">
   <path id="shape5" transform="translate(390.303013988461, 124.972312195541)" fill="#ffffff" stroke-opacity="0" stroke="#000000" stroke-width="0" stroke-linecap="square" stroke-linejoin="bevel" d="M59.661 174.941C-45.602 130.455 1.05899 -6.64031 101.731 0.250688C81.365 10.7177 78.413 30.2477 90.044 48.3407C103.068 68.5967 88.844 101.189 71.238 109.108C42.303 122.133 36.51 156.858 59.661 174.941Z" sodipodi:nodetypes="ccccc"/>
   <path id="shape6" transform="translate(418.029024138611, 180.251)" fill="#ee1c25" stroke-opacity="0" stroke="#000000" stroke-width="0" stroke-linecap="square" stroke-linejoin="bevel" d="M26.243 20.669L20.323 29.963L18.179 19.148L7.49998 16.389L17.125 10.999L16.454 0L24.539 7.49L34.795 3.447L30.185 13.457L37.186 21.962ZM32.531 118.508C19.8 111.974 9.53498 98.353 5.06298 82.077C-0.0520241 63.407 2.88998 43.334 13.146 27.039L10.938 25.645C0.297976 42.574 -2.75502 63.388 2.55198 82.765C7.27998 99.986 17.766 113.862 31.339 120.829Z" sodipodi:nodetypes="cccccccccccccccccc"/>
  </g>
 </g><g id="group2" transform="matrix(-0.194164078649987 -0.141068460550194 0.141068460550194 -0.194164078649987 117.708276769313 193.530627550656)" fill="none">
  <g id="a3" fill="none">
   <path id="shape7" transform="translate(390.303013988461, 124.972312195542)" fill="#ffffff" stroke-opacity="0" stroke="#000000" stroke-width="0" stroke-linecap="square" stroke-linejoin="bevel" d="M59.661 174.941C-45.602 130.455 1.05899 -6.64031 101.731 0.250688C81.365 10.7177 78.413 30.2477 90.044 48.3407C103.068 68.5967 88.844 101.189 71.238 109.108C42.303 122.133 36.51 156.858 59.661 174.941Z" sodipodi:nodetypes="ccccc"/>
   <path id="shape8" transform="translate(418.029024138611, 180.251)" fill="#ee1c25" stroke-opacity="0" stroke="#000000" stroke-width="0" stroke-linecap="square" stroke-linejoin="bevel" d="M26.243 20.669L20.323 29.963L18.179 19.148L7.49998 16.389L17.125 10.999L16.454 0L24.539 7.49L34.795 3.447L30.185 13.457L37.186 21.962ZM32.531 118.508C19.8 111.974 9.53498 98.353 5.06298 82.077C-0.0520241 63.407 2.88998 43.334 13.146 27.039L10.938 25.645C0.297976 42.574 -2.75502 63.388 2.55198 82.765C7.27998 99.986 17.766 113.862 31.339 120.829Z" sodipodi:nodetypes="cccccccccccccccccc"/>
  </g>
 </g><g id="group3" transform="matrix(0.0741640786499874 -0.228253563910837 0.228253563910837 0.0741640786499874 -29.1949250238687 152.265476872953)" fill="none">
  <g id="a4" fill="none">
   <path id="shape9" transform="translate(390.303013988461, 124.972312195542)" fill="#ffffff" stroke-opacity="0" stroke="#000000" stroke-width="0" stroke-linecap="square" stroke-linejoin="bevel" d="M59.661 174.941C-45.602 130.455 1.05899 -6.64031 101.731 0.250688C81.365 10.7177 78.413 30.2477 90.044 48.3407C103.068 68.5967 88.844 101.189 71.238 109.108C42.303 122.133 36.51 156.858 59.661 174.941Z" sodipodi:nodetypes="ccccc"/>
   <path id="shape10" transform="translate(418.029024138611, 180.251)" fill="#ee1c25" stroke-opacity="0" stroke="#000000" stroke-width="0" stroke-linecap="square" stroke-linejoin="bevel" d="M26.243 20.669L20.323 29.963L18.179 19.148L7.49998 16.389L17.125 10.999L16.454 0L24.539 7.49L34.795 3.447L30.185 13.457L37.186 21.962ZM32.531 118.508C19.8 111.974 9.53498 98.353 5.06298 82.077C-0.0520241 63.407 2.88998 43.334 13.146 27.039L10.938 25.645C0.297976 42.574 -2.75502 63.388 2.55198 82.765C7.27998 99.986 17.766 113.862 31.339 120.829Z" sodipodi:nodetypes="cccccccccccccccccc"/>
  </g>
 </g>
</svg>
