<?xml version="1.0" standalone="no"?>
<!DOCTYPE svg PUBLIC "-//W3C//DTD SVG 20010904//EN" "http://www.w3.org/TR/2001/REC-SVG-20010904/DTD/svg10.dtd">
<!-- Created using Krita: https://krita.org -->
<svg xmlns="http://www.w3.org/2000/svg" 
    xmlns:xlink="http://www.w3.org/1999/xlink"
    xmlns:krita="http://krita.org/namespaces/svg/krita"
    xmlns:sodipodi="http://sodipodi.sourceforge.net/DTD/sodipodi-0.dtd"
    width="512pt"
    height="512pt"
    viewBox="0 0 144 144">
<defs/>
<path id="shape0" transform="matrix(0.16 0 0 0.24 -0.120000000023836 0)" fill="#ff9933" stroke-opacity="0" stroke="#000000" stroke-width="0" stroke-linecap="square" stroke-linejoin="bevel" d="M0 0L900 0L900 200L0 200Z" sodipodi:nodetypes="ccccc"/><path id="shape1" transform="matrix(0.16 0 0 0.24 -0.120000000023836 48)" fill="#ffffff" stroke-opacity="0" stroke="#000000" stroke-width="0" stroke-linecap="square" stroke-linejoin="bevel" d="M0 0L900 0L900 200L0 200Z" sodipodi:nodetypes="ccccc"/><path id="shape2" transform="matrix(0.16 0 0 0.24 -0.120000000023836 96)" fill="#128807" stroke-opacity="0" stroke="#000000" stroke-width="0" stroke-linecap="square" stroke-linejoin="bevel" d="M0 0L900 0L900 200L0 200Z" sodipodi:nodetypes="ccccc"/><g id="group0" transform="matrix(0.24 0 0 0.24 71.9846848539965 72)" fill="none">
  <circle id="shape3" transform="translate(-92.5, -92.4999999999999)" r="92.5" cx="92.5" cy="92.5" fill="#000088" stroke-opacity="0" stroke="#000000" stroke-width="0" stroke-linecap="square" stroke-linejoin="bevel"/>
  <circle id="shape4" transform="translate(-80, -80)" r="80" cx="80" cy="80" fill="#ffffff" stroke-opacity="0" stroke="#000000" stroke-width="0" stroke-linecap="square" stroke-linejoin="bevel"/>
  <circle id="shape5" transform="translate(-16.0000000000001, -16)" r="16" cx="16" cy="16" fill="#000088" stroke-opacity="0" stroke="#000000" stroke-width="0" stroke-linecap="square" stroke-linejoin="bevel"/>
  <g id="d" fill="none">
   <g id="c" fill="none">
    <g id="b" fill="none">
     <g id="a" fill="none">
      <circle id="shape6" transform="matrix(0.99144486137381 0.130526192220052 -0.130526192220052 0.99144486137381 76.3023647533517 6.51519611229186)" r="3.5" cx="3.5" cy="3.5" fill="#000088" stroke-opacity="0" stroke="#000000" stroke-width="0" stroke-linecap="square" stroke-linejoin="bevel"/>
      <path id="shape7" transform="translate(-3.00000000000001, 15)" fill="#000088" stroke-opacity="0" stroke="#000000" stroke-width="0" stroke-linecap="square" stroke-linejoin="bevel" d="M3 65L6 17L4 0.969L4 0L2 0L2 0.969L0 17Z" sodipodi:nodetypes="cccccccc"/>
     </g>
     <g id="group1" transform="matrix(0.965925826289068 0.258819045102521 -0.258819045102521 0.965925826289068 0 0)" fill="none">
      <g id="a1" fill="none">
       <circle id="shape8" transform="matrix(0.991444861373811 0.130526192220052 -0.130526192220052 0.991444861373811 76.3023647533518 6.51519611229176)" r="3.5" cx="3.5" cy="3.5" fill="#000088" stroke-opacity="0" stroke="#000000" stroke-width="0" stroke-linecap="square" stroke-linejoin="bevel"/>
       <path id="shape9" transform="translate(-3, 15)" fill="#000088" stroke-opacity="0" stroke="#000000" stroke-width="0" stroke-linecap="square" stroke-linejoin="bevel" d="M3 65L6 17L4 0.969L4 0L2 0L2 0.969L0 17Z" sodipodi:nodetypes="cccccccc"/>
      </g>
     </g>
    </g>
    <g id="group2" transform="matrix(0.866025403784438 0.5 -0.5 0.866025403784438 0 0)" fill="none">
     <g id="b1" fill="none">
      <g id="a2" fill="none">
       <circle id="shape10" transform="matrix(0.99144486137381 0.130526192220052 -0.130526192220052 0.99144486137381 76.3023647533518 6.51519611229179)" r="3.5" cx="3.5" cy="3.5" fill="#000088" stroke-opacity="0" stroke="#000000" stroke-width="0" stroke-linecap="square" stroke-linejoin="bevel"/>
       <path id="shape11" transform="translate(-3.0000000000001, 15)" fill="#000088" stroke-opacity="0" stroke="#000000" stroke-width="0" stroke-linecap="square" stroke-linejoin="bevel" d="M3 65L6 17L4 0.969L4 0L2 0L2 0.969L0 17Z" sodipodi:nodetypes="cccccccc"/>
      </g>
      <g id="group3" transform="matrix(0.965925826289068 0.258819045102521 -0.258819045102521 0.965925826289068 1.4210854715202e-14 -2.8421709430404e-14)" fill="none">
       <g id="a3" fill="none">
        <circle id="shape12" transform="matrix(0.99144486137381 0.130526192220052 -0.130526192220052 0.99144486137381 76.3023647533518 6.51519611229187)" r="3.5" cx="3.5" cy="3.5" fill="#000088" stroke-opacity="0" stroke="#000000" stroke-width="0" stroke-linecap="square" stroke-linejoin="bevel"/>
        <path id="shape13" transform="translate(-2.99999999999999, 15)" fill="#000088" stroke-opacity="0" stroke="#000000" stroke-width="0" stroke-linecap="square" stroke-linejoin="bevel" d="M3 65L6 17L4 0.969L4 0L2 0L2 0.969L0 17Z" sodipodi:nodetypes="cccccccc"/>
       </g>
      </g>
     </g>
    </g>
   </g>
   <g id="group4" transform="matrix(0.5 0.866025403784439 -0.866025403784439 0.5 -1.4210854715202e-14 -1.4210854715202e-14)" fill="none">
    <g id="c1" fill="none">
     <g id="b2" fill="none">
      <g id="a4" fill="none">
       <circle id="shape14" transform="matrix(0.99144486137381 0.130526192220052 -0.130526192220052 0.99144486137381 76.3023647533517 6.51519611229178)" r="3.5" cx="3.5" cy="3.5" fill="#000088" stroke-opacity="0" stroke="#000000" stroke-width="0" stroke-linecap="square" stroke-linejoin="bevel"/>
       <path id="shape15" transform="translate(-3, 14.9999999999999)" fill="#000088" stroke-opacity="0" stroke="#000000" stroke-width="0" stroke-linecap="square" stroke-linejoin="bevel" d="M3 65L6 17L4 0.969L4 0L2 0L2 0.969L0 17Z" sodipodi:nodetypes="cccccccc"/>
      </g>
      <g id="group5" transform="matrix(0.965925826289069 0.258819045102521 -0.258819045102521 0.965925826289069 -5.6843418860808e-14 0)" fill="none">
       <g id="a5" fill="none">
        <circle id="shape16" transform="matrix(0.991444861373811 0.130526192220052 -0.130526192220052 0.991444861373811 76.3023647533518 6.51519611229172)" r="3.5" cx="3.5" cy="3.5" fill="#000088" stroke-opacity="0" stroke="#000000" stroke-width="0" stroke-linecap="square" stroke-linejoin="bevel"/>
        <path id="shape17" transform="translate(-2.99999999999996, 14.9999999999999)" fill="#000088" stroke-opacity="0" stroke="#000000" stroke-width="0" stroke-linecap="square" stroke-linejoin="bevel" d="M3 65L6 17L4 0.969L4 0L2 0L2 0.969L0 17Z" sodipodi:nodetypes="cccccccc"/>
       </g>
      </g>
     </g>
     <g id="group6" transform="matrix(0.866025403784439 0.5 -0.5 0.866025403784439 -4.2632564145606e-14 0)" fill="none">
      <g id="b3" fill="none">
       <g id="a6" fill="none">
        <circle id="shape18" transform="matrix(0.99144486137381 0.130526192220051 -0.130526192220051 0.99144486137381 76.3023647533517 6.5151961122919)" r="3.5" cx="3.5" cy="3.5" fill="#000088" stroke-opacity="0" stroke="#000000" stroke-width="0" stroke-linecap="square" stroke-linejoin="bevel"/>
        <path id="shape19" transform="translate(-3.00000000000004, 15)" fill="#000088" stroke-opacity="0" stroke="#000000" stroke-width="0" stroke-linecap="square" stroke-linejoin="bevel" d="M3 65L6 17L4 0.969L4 0L2 0L2 0.969L0 17Z" sodipodi:nodetypes="cccccccc"/>
       </g>
       <g id="group7" transform="matrix(0.965925826289068 0.258819045102521 -0.258819045102521 0.965925826289068 -7.105427357601e-14 -2.8421709430404e-14)" fill="none">
        <g id="a7" fill="none">
         <circle id="shape20" transform="matrix(0.991444861373811 0.130526192220052 -0.130526192220052 0.991444861373811 76.3023647533518 6.51519611229185)" r="3.5" cx="3.5" cy="3.5" fill="#000088" stroke-opacity="0" stroke="#000000" stroke-width="0" stroke-linecap="square" stroke-linejoin="bevel"/>
         <path id="shape21" transform="translate(-3.00000000000001, 15)" fill="#000088" stroke-opacity="0" stroke="#000000" stroke-width="0" stroke-linecap="square" stroke-linejoin="bevel" d="M3 65L6 17L4 0.969L4 0L2 0L2 0.969L0 17Z" sodipodi:nodetypes="cccccccc"/>
        </g>
       </g>
      </g>
     </g>
    </g>
   </g>
  </g>
  <g id="group8" transform="matrix(-0.5 0.866025403784439 -0.866025403784439 -0.5 1.4210854715202e-14 0)" fill="none">
   <g id="d1" fill="none">
    <g id="c2" fill="none">
     <g id="b4" fill="none">
      <g id="a8" fill="none">
       <circle id="shape22" transform="matrix(0.99144486137381 0.130526192220052 -0.130526192220052 0.99144486137381 76.3023647533519 6.51519611229183)" r="3.5" cx="3.5" cy="3.5" fill="#000088" stroke-opacity="0" stroke="#000000" stroke-width="0" stroke-linecap="square" stroke-linejoin="bevel"/>
       <path id="shape23" transform="translate(-2.99999999999997, 15)" fill="#000088" stroke-opacity="0" stroke="#000000" stroke-width="0" stroke-linecap="square" stroke-linejoin="bevel" d="M3 65L6 17L4 0.969L4 0L2 0L2 0.969L0 17Z" sodipodi:nodetypes="cccccccc"/>
      </g>
      <g id="group9" transform="matrix(0.965925826289068 0.258819045102521 -0.258819045102521 0.965925826289068 1.4210854715202e-14 -1.4210854715202e-14)" fill="none">
       <g id="a9" fill="none">
        <circle id="shape24" transform="matrix(0.99144486137381 0.130526192220052 -0.130526192220052 0.99144486137381 76.3023647533518 6.51519611229199)" r="3.5" cx="3.5" cy="3.5" fill="#000088" stroke-opacity="0" stroke="#000000" stroke-width="0" stroke-linecap="square" stroke-linejoin="bevel"/>
        <path id="shape25" transform="translate(-3.00000000000003, 15)" fill="#000088" stroke-opacity="0" stroke="#000000" stroke-width="0" stroke-linecap="square" stroke-linejoin="bevel" d="M3 65L6 17L4 0.969L4 0L2 0L2 0.969L0 17Z" sodipodi:nodetypes="cccccccc"/>
       </g>
      </g>
     </g>
     <g id="group10" transform="matrix(0.866025403784439 0.5 -0.5 0.866025403784439 2.8421709430404e-14 0)" fill="none">
      <g id="b5" fill="none">
       <g id="a10" fill="none">
        <circle id="shape26" transform="matrix(0.99144486137381 0.130526192220052 -0.130526192220052 0.99144486137381 76.3023647533518 6.51519611229175)" r="3.5" cx="3.5" cy="3.5" fill="#000088" stroke-opacity="0" stroke="#000000" stroke-width="0" stroke-linecap="square" stroke-linejoin="bevel"/>
        <path id="shape27" transform="translate(-3.00000000000001, 14.9999999999999)" fill="#000088" stroke-opacity="0" stroke="#000000" stroke-width="0" stroke-linecap="square" stroke-linejoin="bevel" d="M3 65L6 17L4 0.969L4 0L2 0L2 0.969L0 17Z" sodipodi:nodetypes="cccccccc"/>
       </g>
       <g id="group11" transform="matrix(0.965925826289068 0.258819045102521 -0.258819045102521 0.965925826289068 -1.4210854715202e-14 -5.6843418860808e-14)" fill="none">
        <g id="a11" fill="none">
         <circle id="shape28" transform="matrix(0.99144486137381 0.130526192220052 -0.130526192220052 0.99144486137381 76.3023647533518 6.51519611229179)" r="3.5" cx="3.5" cy="3.5" fill="#000088" stroke-opacity="0" stroke="#000000" stroke-width="0" stroke-linecap="square" stroke-linejoin="bevel"/>
         <path id="shape29" transform="translate(-3.00000000000004, 15)" fill="#000088" stroke-opacity="0" stroke="#000000" stroke-width="0" stroke-linecap="square" stroke-linejoin="bevel" d="M3 65L6 17L4 0.969L4 0L2 0L2 0.969L0 17Z" sodipodi:nodetypes="cccccccc"/>
        </g>
       </g>
      </g>
     </g>
    </g>
    <g id="group12" transform="matrix(0.5 0.866025403784438 -0.866025403784438 0.5 -2.8421709430404e-14 4.2632564145606e-14)" fill="none">
     <g id="c3" fill="none">
      <g id="b6" fill="none">
       <g id="a12" fill="none">
        <circle id="shape30" transform="matrix(0.99144486137381 0.130526192220051 -0.130526192220051 0.99144486137381 76.3023647533518 6.5151961122918)" r="3.5" cx="3.5" cy="3.5" fill="#000088" stroke-opacity="0" stroke="#000000" stroke-width="0" stroke-linecap="square" stroke-linejoin="bevel"/>
        <path id="shape31" transform="translate(-2.99999999999994, 14.9999999999999)" fill="#000088" stroke-opacity="0" stroke="#000000" stroke-width="0" stroke-linecap="square" stroke-linejoin="bevel" d="M3 65L6 17L4 0.969L4 0L2 0L2 0.969L0 17Z" sodipodi:nodetypes="cccccccc"/>
       </g>
       <g id="group13" transform="matrix(0.965925826289069 0.25881904510252 -0.25881904510252 0.965925826289069 0 0)" fill="none">
        <g id="a13" fill="none">
         <circle id="shape32" transform="matrix(0.99144486137381 0.130526192220052 -0.130526192220052 0.99144486137381 76.3023647533518 6.51519611229176)" r="3.5" cx="3.5" cy="3.5" fill="#000088" stroke-opacity="0" stroke="#000000" stroke-width="0" stroke-linecap="square" stroke-linejoin="bevel"/>
         <path id="shape33" transform="translate(-3, 15)" fill="#000088" stroke-opacity="0" stroke="#000000" stroke-width="0" stroke-linecap="square" stroke-linejoin="bevel" d="M3 65L6 17L4 0.969L4 0L2 0L2 0.969L0 17Z" sodipodi:nodetypes="cccccccc"/>
        </g>
       </g>
      </g>
      <g id="group14" transform="matrix(0.866025403784439 0.5 -0.5 0.866025403784439 1.4210854715202e-14 0)" fill="none">
       <g id="b7" fill="none">
        <g id="a14" fill="none">
         <circle id="shape34" transform="matrix(0.99144486137381 0.130526192220052 -0.130526192220052 0.99144486137381 76.3023647533518 6.51519611229194)" r="3.5" cx="3.5" cy="3.5" fill="#000088" stroke-opacity="0" stroke="#000000" stroke-width="0" stroke-linecap="square" stroke-linejoin="bevel"/>
         <path id="shape35" transform="translate(-3, 15)" fill="#000088" stroke-opacity="0" stroke="#000000" stroke-width="0" stroke-linecap="square" stroke-linejoin="bevel" d="M3 65L6 17L4 0.969L4 0L2 0L2 0.969L0 17Z" sodipodi:nodetypes="cccccccc"/>
        </g>
        <g id="group15" transform="matrix(0.965925826289068 0.258819045102521 -0.258819045102521 0.965925826289068 -1.4210854715202e-14 4.2632564145606e-14)" fill="none">
         <g id="a15" fill="none">
          <circle id="shape36" transform="matrix(0.99144486137381 0.130526192220052 -0.130526192220052 0.99144486137381 76.3023647533519 6.51519611229183)" r="3.5" cx="3.5" cy="3.5" fill="#000088" stroke-opacity="0" stroke="#000000" stroke-width="0" stroke-linecap="square" stroke-linejoin="bevel"/>
          <path id="shape37" transform="translate(-3.00000000000001, 15)" fill="#000088" stroke-opacity="0" stroke="#000000" stroke-width="0" stroke-linecap="square" stroke-linejoin="bevel" d="M3 65L6 17L4 0.969L4 0L2 0L2 0.969L0 17Z" sodipodi:nodetypes="cccccccc"/>
         </g>
        </g>
       </g>
      </g>
     </g>
    </g>
   </g>
  </g>
  <g id="group16" transform="matrix(-0.5 -0.866025403784439 0.866025403784439 -0.5 0 0)" fill="none">
   <g id="d2" fill="none">
    <g id="c4" fill="none">
     <g id="b8" fill="none">
      <g id="a16" fill="none">
       <circle id="shape38" transform="matrix(0.99144486137381 0.130526192220051 -0.130526192220051 0.99144486137381 76.3023647533518 6.51519611229183)" r="3.5" cx="3.5" cy="3.5" fill="#000088" stroke-opacity="0" stroke="#000000" stroke-width="0" stroke-linecap="square" stroke-linejoin="bevel"/>
       <path id="shape39" transform="translate(-2.99999999999997, 15)" fill="#000088" stroke-opacity="0" stroke="#000000" stroke-width="0" stroke-linecap="square" stroke-linejoin="bevel" d="M3 65L6 17L4 0.969L4 0L2 0L2 0.969L0 17Z" sodipodi:nodetypes="cccccccc"/>
      </g>
      <g id="group17" transform="matrix(0.965925826289068 0.258819045102521 -0.258819045102521 0.965925826289068 0 -2.8421709430404e-14)" fill="none">
       <g id="a17" fill="none">
        <circle id="shape40" transform="matrix(0.99144486137381 0.130526192220052 -0.130526192220052 0.99144486137381 76.3023647533517 6.51519611229183)" r="3.5" cx="3.5" cy="3.5" fill="#000088" stroke-opacity="0" stroke="#000000" stroke-width="0" stroke-linecap="square" stroke-linejoin="bevel"/>
        <path id="shape41" transform="translate(-3.00000000000003, 15)" fill="#000088" stroke-opacity="0" stroke="#000000" stroke-width="0" stroke-linecap="square" stroke-linejoin="bevel" d="M3 65L6 17L4 0.969L4 0L2 0L2 0.969L0 17Z" sodipodi:nodetypes="cccccccc"/>
       </g>
      </g>
     </g>
     <g id="group18" transform="matrix(0.866025403784439 0.5 -0.5 0.866025403784439 1.4210854715202e-14 -2.8421709430404e-14)" fill="none">
      <g id="b9" fill="none">
       <g id="a18" fill="none">
        <circle id="shape42" transform="matrix(0.99144486137381 0.130526192220052 -0.130526192220052 0.99144486137381 76.3023647533518 6.5151961122918)" r="3.5" cx="3.5" cy="3.5" fill="#000088" stroke-opacity="0" stroke="#000000" stroke-width="0" stroke-linecap="square" stroke-linejoin="bevel"/>
        <path id="shape43" transform="translate(-2.99999999999996, 14.9999999999999)" fill="#000088" stroke-opacity="0" stroke="#000000" stroke-width="0" stroke-linecap="square" stroke-linejoin="bevel" d="M3 65L6 17L4 0.969L4 0L2 0L2 0.969L0 17Z" sodipodi:nodetypes="cccccccc"/>
       </g>
       <g id="group19" transform="matrix(0.965925826289068 0.258819045102521 -0.258819045102521 0.965925826289068 4.2632564145606e-14 0)" fill="none">
        <g id="a19" fill="none">
         <circle id="shape44" transform="matrix(0.99144486137381 0.130526192220052 -0.130526192220052 0.99144486137381 76.3023647533518 6.51519611229185)" r="3.5" cx="3.5" cy="3.5" fill="#000088" stroke-opacity="0" stroke="#000000" stroke-width="0" stroke-linecap="square" stroke-linejoin="bevel"/>
         <path id="shape45" transform="translate(-2.99999999999999, 15)" fill="#000088" stroke-opacity="0" stroke="#000000" stroke-width="0" stroke-linecap="square" stroke-linejoin="bevel" d="M3 65L6 17L4 0.969L4 0L2 0L2 0.969L0 17Z" sodipodi:nodetypes="cccccccc"/>
        </g>
       </g>
      </g>
     </g>
    </g>
    <g id="group20" transform="matrix(0.5 0.866025403784439 -0.866025403784439 0.5 -2.8421709430404e-14 -4.2632564145606e-14)" fill="none">
     <g id="c5" fill="none">
      <g id="b10" fill="none">
       <g id="a20" fill="none">
        <circle id="shape46" transform="matrix(0.991444861373811 0.130526192220052 -0.130526192220052 0.991444861373811 76.3023647533518 6.51519611229175)" r="3.5" cx="3.5" cy="3.5" fill="#000088" stroke-opacity="0" stroke="#000000" stroke-width="0" stroke-linecap="square" stroke-linejoin="bevel"/>
        <path id="shape47" transform="translate(-3.00000000000004, 15)" fill="#000088" stroke-opacity="0" stroke="#000000" stroke-width="0" stroke-linecap="square" stroke-linejoin="bevel" d="M3 65L6 17L4 0.969L4 0L2 0L2 0.969L0 17Z" sodipodi:nodetypes="cccccccc"/>
       </g>
       <g id="group21" transform="matrix(0.965925826289068 0.258819045102521 -0.258819045102521 0.965925826289068 1.4210854715202e-14 0)" fill="none">
        <g id="a21" fill="none">
         <circle id="shape48" transform="matrix(0.99144486137381 0.130526192220051 -0.130526192220051 0.99144486137381 76.3023647533518 6.51519611229185)" r="3.5" cx="3.5" cy="3.5" fill="#000088" stroke-opacity="0" stroke="#000000" stroke-width="0" stroke-linecap="square" stroke-linejoin="bevel"/>
         <path id="shape49" transform="translate(-2.99999999999999, 15)" fill="#000088" stroke-opacity="0" stroke="#000000" stroke-width="0" stroke-linecap="square" stroke-linejoin="bevel" d="M3 65L6 17L4 0.969L4 0L2 0L2 0.969L0 17Z" sodipodi:nodetypes="cccccccc"/>
        </g>
       </g>
      </g>
      <g id="group22" transform="matrix(0.866025403784439 0.5 -0.5 0.866025403784439 0 0)" fill="none">
       <g id="b11" fill="none">
        <g id="a22" fill="none">
         <circle id="shape50" transform="matrix(0.99144486137381 0.130526192220052 -0.130526192220052 0.99144486137381 76.3023647533518 6.51519611229173)" r="3.5" cx="3.5" cy="3.5" fill="#000088" stroke-opacity="0" stroke="#000000" stroke-width="0" stroke-linecap="square" stroke-linejoin="bevel"/>
         <path id="shape51" transform="translate(-3, 14.9999999999999)" fill="#000088" stroke-opacity="0" stroke="#000000" stroke-width="0" stroke-linecap="square" stroke-linejoin="bevel" d="M3 65L6 17L4 0.969L4 0L2 0L2 0.969L0 17Z" sodipodi:nodetypes="cccccccc"/>
        </g>
        <g id="group23" transform="matrix(0.965925826289068 0.258819045102521 -0.258819045102521 0.965925826289068 2.8421709430404e-14 1.4210854715202e-14)" fill="none">
         <g id="a23" fill="none">
          <circle id="shape52" transform="matrix(0.99144486137381 0.130526192220052 -0.130526192220052 0.99144486137381 76.3023647533517 6.51519611229181)" r="3.5" cx="3.5" cy="3.5" fill="#000088" stroke-opacity="0" stroke="#000000" stroke-width="0" stroke-linecap="square" stroke-linejoin="bevel"/>
          <path id="shape53" transform="translate(-3.00000000000004, 14.9999999999999)" fill="#000088" stroke-opacity="0" stroke="#000000" stroke-width="0" stroke-linecap="square" stroke-linejoin="bevel" d="M3 65L6 17L4 0.969L4 0L2 0L2 0.969L0 17Z" sodipodi:nodetypes="cccccccc"/>
         </g>
        </g>
       </g>
      </g>
     </g>
    </g>
   </g>
  </g>
 </g>
</svg>
