<?xml version="1.0" standalone="no"?>
<!DOCTYPE svg PUBLIC "-//W3C//DTD SVG 20010904//EN" "http://www.w3.org/TR/2001/REC-SVG-20010904/DTD/svg10.dtd">
<!-- Created using Krita: https://krita.org -->
<svg xmlns="http://www.w3.org/2000/svg" 
    xmlns:xlink="http://www.w3.org/1999/xlink"
    xmlns:krita="http://krita.org/namespaces/svg/krita"
    xmlns:sodipodi="http://sodipodi.sourceforge.net/DTD/sodipodi-0.dtd"
    width="512pt"
    height="512pt"
    viewBox="0 0 144 144">
<defs/>
<path id="shape0" transform="matrix(0.113553315006826 0 0 0.338185010642216 71.8058783956313 98.8500863581242)" fill="#009543" stroke-opacity="0" stroke="#000000" stroke-width="0" stroke-linecap="square" stroke-linejoin="bevel" d="M0 0L640 0L640 133.7L0 133.7Z" sodipodi:nodetypes="ccccc"/><path id="shape1" transform="matrix(0.113553315006826 0 0 0.338185010642216 71.7600029326067 44.5206643984522)" fill="#ed4135" stroke-opacity="0" stroke="#000000" stroke-width="0" stroke-linecap="square" stroke-linejoin="bevel" d="M0 0L640 0L640 161.3L0 161.3Z" sodipodi:nodetypes="ccccc"/><path id="shape2" transform="matrix(0.113553315006826 0 0 0.338185010642216 71.8058783956313 -0.238121760045004)" fill="#0035ad" stroke-opacity="0" stroke="#000000" stroke-width="0" stroke-linecap="square" stroke-linejoin="bevel" d="M0 0L640 0L640 133.3L0 133.3Z" sodipodi:nodetypes="ccccc"/><circle id="shape0" transform="matrix(0.218838865933811 0 0 0.218838865933811 73.5766463886115 37.5657044453148)" r="157.3" cx="157.3" cy="157.3" fill="#fae600" stroke="#000000" stroke-width="5.3" stroke-linecap="butt" stroke-linejoin="miter" stroke-miterlimit="2"/><path id="shape1" transform="matrix(0.218838865933811 0 0 0.218838865933811 91.8715755806781 37.5657044453148)" fill="#000000" stroke-opacity="0" stroke="#000000" stroke-width="0" stroke-linecap="square" stroke-linejoin="bevel" d="M141.6 298.5L109.8 310.5L73.7 314.7L35.9 312.3L0 296.8C0 296.8 28.6 267.5 40.7 263.3C49.3 260.3 63.1 259.6 63.1 259.6L63.1 66L62.8 0L79.7 0L79.2 67.5L79.2 259.2C79.2 259.2 94.5 260.4 101.3 263.3C112.6 268.2 141.6 298.5 141.6 298.5Z" sodipodi:nodetypes="cccccccccccccc"/><rect id="shape2" transform="matrix(0.195838901124167 -0.0976459019796665 0.0976459019796665 0.195838901124167 102.031541957727 47.7143349691087)" fill="#000000" stroke-opacity="0" stroke="#000000" stroke-width="0" stroke-linecap="square" stroke-linejoin="bevel" width="48" height="12.5"/><ellipse id="shape3" transform="matrix(0.218838865933811 0 0 0.218838865933811 103.842061547258 80.8957999002094)" rx="16.8" ry="26.5" cx="16.8" cy="26.5" fill="#000000" stroke-opacity="0" stroke="#000000" stroke-width="0" stroke-linecap="square" stroke-linejoin="bevel"/><circle id="shape4" transform="matrix(0.218838865933811 0 0 0.218838865933811 102.857286650555 52.1184890299133)" r="20.9" cx="20.9" cy="20.9" fill="#000000" stroke-opacity="0" stroke="#000000" stroke-width="0" stroke-linecap="square" stroke-linejoin="bevel"/><ellipse id="shape5" transform="matrix(0.218838865933811 0 0 0.218838865933811 103.294964382423 68.8596622738498)" rx="19.9" ry="12.1" cx="19.9" cy="12.1" fill="#000000" stroke-opacity="0" stroke="#000000" stroke-width="0" stroke-linecap="square" stroke-linejoin="bevel"/><rect id="shape6" transform="matrix(0.218838865933811 0 0 0.218838865933811 102.266421712534 64.045207223306)" fill="#000000" stroke-opacity="0" stroke="#000000" stroke-width="0" stroke-linecap="square" stroke-linejoin="bevel" width="47" height="10"/><rect id="shape7" transform="matrix(0.218838865933811 0 0 0.218838865933811 102.266421712534 76.5190225815332)" fill="#000000" stroke-opacity="0" stroke="#000000" stroke-width="0" stroke-linecap="square" stroke-linejoin="bevel" width="47" height="10"/><rect id="shape8" transform="matrix(0.140625 0 0 0.42187046818833 7.105427357601e-15 0)" fill="#ffffff" stroke-opacity="0" stroke="#000000" stroke-width="0" stroke-linecap="square" stroke-linejoin="bevel" width="512" height="341.337"/><rect id="shape9" transform="matrix(0.140625 0 0 0.42187046818833 0 0)" fill="#0052b4" stroke-opacity="0" stroke="#000000" stroke-width="0" stroke-linecap="square" stroke-linejoin="bevel" width="170.663" height="341.337"/><rect id="shape10" transform="matrix(0.140625 0 0 0.42187046818833 48.000515625 0)" fill="#d80027" stroke-opacity="0" stroke="#000000" stroke-width="0" stroke-linecap="square" stroke-linejoin="bevel" width="170.663" height="341.337"/>
</svg>
