<?xml version="1.0" standalone="no"?>
<!DOCTYPE svg PUBLIC "-//W3C//DTD SVG 20010904//EN" "http://www.w3.org/TR/2001/REC-SVG-20010904/DTD/svg10.dtd">
<!-- Created using Krita: https://krita.org -->
<svg xmlns="http://www.w3.org/2000/svg" 
    xmlns:xlink="http://www.w3.org/1999/xlink"
    xmlns:krita="http://krita.org/namespaces/svg/krita"
    xmlns:sodipodi="http://sodipodi.sourceforge.net/DTD/sodipodi-0.dtd"
    width="512pt"
    height="512pt"
    viewBox="0 0 144 144">
<defs/>
<rect id="shape0" transform="matrix(0.407567405541085 0 0 0.407567405541085 7.105427357601e-15 2.1316282072803e-14)" fill="#0052b4" stroke-opacity="0" stroke="#000000" stroke-width="0" stroke-linecap="square" stroke-linejoin="bevel" width="353.315790326329" height="353.315790326329"/><path id="shape2" transform="matrix(1.75374497624609 0 0 1.75438596491228 55.1640482280375 48.421052631579)" fill="#ffffff" fill-rule="evenodd" stroke-opacity="0" stroke="#000000" stroke-width="0" stroke-linecap="square" stroke-linejoin="bevel" d="M9.6 7.93212L0 0Z" sodipodi:nodetypes="ccc"/><path id="shape3" transform="matrix(1.75374497624609 0 0 1.75438596491228 42 46.08)" fill="#ffffff" fill-rule="evenodd" stroke-opacity="0" stroke="#000000" stroke-width="0" stroke-linecap="square" stroke-linejoin="bevel" d="M12.7864 14.7744L17.1063 14.7744L17.1063 9.2094L7.50625 1.3344L0 0L1.02625 4.9344Z" sodipodi:nodetypes="ccccccc"/><path id="shape4" transform="matrix(1.75374497624609 0 0 1.75438596491228 3.90798504668055e-14 45.36)" fill="#ffffff" fill-rule="evenodd" stroke-opacity="0" stroke="#000000" stroke-width="0" stroke-linecap="square" stroke-linejoin="bevel" d="M0 15.1848L2.19 15.1848L16.095 3.4248L17.1279 0C13.8236 0.5816 10.5193 1.1632 7.215 1.7448L0.015 7.9998Z" sodipodi:nodetypes="ccccccc"/><path id="shape5" transform="matrix(1.75374497624609 0 0 1.75438596491228 0.0263061748603661 -1.06581410364015e-14)" fill="#ffffff" fill-rule="evenodd" stroke-opacity="0" stroke="#000000" stroke-width="0" stroke-linecap="square" stroke-linejoin="bevel" d="M0 0L4.32749 0L16.08 9.84L17.0912 15.1848L9.36 13.44L0 5.55Z" sodipodi:nodetypes="ccccccc"/><path id="shape6" transform="matrix(1.75374497624609 0 0 1.75438596491228 42.24 -1.06581410364015e-14)" fill="#ffffff" fill-rule="evenodd" stroke-opacity="0" stroke="#000000" stroke-width="0" stroke-linecap="square" stroke-linejoin="bevel" d="M16.9694 0.0318198L14.8238 0L0.8894 11.76L0 15.4584L9.7694 13.44L16.9694 7.47Z" sodipodi:nodetypes="ccccccc"/><path id="shape7" transform="matrix(1.75374497624609 0 0 1.75438596491228 0.0263061748603874 -2.8421709430404e-14)" fill="#ffffff" fill-rule="evenodd" stroke-opacity="0" stroke="#000000" stroke-width="0" stroke-linecap="square" stroke-linejoin="bevel" d="M16.08 0L16.08 13.44L0 13.4227L0 27.609L16.08 27.6L16.0725 41.04L24.96 41.04L24.96 31.1925L24.96 27.6L41.04 27.6L41.04 13.47L33.8325 13.44L24.96 13.44L24.9375 0Z" sodipodi:nodetypes="ccccccccccccccc"/><g id="group0" transform="matrix(0.281147241504451 0 0 0.421052631895188 0.363682864665403 1.28472943572433e-06)" fill="none">
  <path id="shape05" transform="translate(154.6, 115)" fill="#d80027" stroke-opacity="0" stroke="#000000" stroke-width="0" stroke-linecap="square" stroke-linejoin="bevel" d="M0 0L100.2 55.7L100.2 39.9L28.4 0Z" sodipodi:nodetypes="ccccc"/>
  <path id="shape1" transform="translate(-1.2, 115)" fill="#d80027" stroke-opacity="0" stroke="#000000" stroke-width="0" stroke-linecap="square" stroke-linejoin="bevel" d="M71.9 0L0 39.9L0 55.7L0 55.7L100.2 0Z" sodipodi:nodetypes="cccccc"/>
 </g><g id="group1" transform="matrix(0.281147241504451 0 0 0.421052631895188 0.363682864665403 1.28472948901504e-06)" fill="none">
  <path id="shape21" transform="translate(-1.2, 0)" fill="#d80027" stroke-opacity="0" stroke="#000000" stroke-width="0" stroke-linecap="square" stroke-linejoin="bevel" d="M100.2 55.7L0 0L0 15.7L71.9 55.7Z" sodipodi:nodetypes="ccccc"/>
  <path id="shape31" transform="translate(154.6, 0)" fill="#d80027" stroke-opacity="0" stroke="#000000" stroke-width="0" stroke-linecap="square" stroke-linejoin="bevel" d="M28.4 55.7L100.2 15.7L100.2 0L100.2 0L0 55.7Z" sodipodi:nodetypes="cccccc"/>
 </g><path id="shape06" transform="matrix(0.420898794615186 0 0 0.421052631895188 0.0263061748603626 1.28472943572433e-06)" fill="#d80027" stroke-opacity="0" stroke="#000000" stroke-width="0" stroke-linecap="square" stroke-linejoin="bevel" d="M96.1876 0L74.8126 0L74.8126 69.3L9.49241e-15 69.3L9.49241e-15 101.3L74.8126 101.3L74.8126 170.7L96.1876 170.7L96.1876 101.3L171 101.3L171 69.3L96.1876 69.3Z" sodipodi:nodetypes="ccccccccccccc"/><g id="group01" transform="matrix(0.495751533837958 0 0 0.495751533837958 -81.6485889937759 -59.5962193784088)" fill="none">
  <path id="shape01" transform="translate(410.948, 233.745)" fill="#d80027" stroke-opacity="0" stroke="#000000" stroke-width="0" stroke-linecap="square" stroke-linejoin="bevel" d="M14.353 0L17.741 10.428L28.704 10.428L19.834 16.872L23.222 27.299L14.353 20.855L5.482 27.299L8.87 16.872L0 10.428L10.963 10.428Z" sodipodi:nodetypes="ccccccccccc"/>
  <path id="shape11" transform="translate(364.58, 308.817)" fill="#d80027" stroke-opacity="0" stroke="#000000" stroke-width="0" stroke-linecap="square" stroke-linejoin="bevel" d="M21.527 0L26.61 15.642L43.055 15.642L29.75 25.309L34.832 40.949L21.527 31.282L8.222 40.949L13.305 25.309L0 15.642L16.445 15.642Z" sodipodi:nodetypes="ccccccccccc"/>
  <path id="shape22" transform="translate(369.648, 185.971)" fill="#d80027" stroke-opacity="0" stroke="#000000" stroke-width="0" stroke-linecap="square" stroke-linejoin="bevel" d="M17.94 0L22.176 13.036L35.88 13.036L24.792 21.09L29.027 34.124L17.94 26.068L6.852 34.124L11.087 21.09L0 13.036L13.704 13.036Z" sodipodi:nodetypes="ccccccccccc"/>
  <path id="shape32" transform="translate(328.348, 233.291)" fill="#d80027" stroke-opacity="0" stroke="#000000" stroke-width="0" stroke-linecap="square" stroke-linejoin="bevel" d="M21.528 0L26.61 15.641L43.056 15.641L29.75 25.307L34.834 40.948L21.528 31.282L8.223 40.948L13.305 25.307L0 15.641L16.445 15.641Z" sodipodi:nodetypes="ccccccccccc"/>
 </g>
</svg>
