<?xml version="1.0" standalone="no"?>
<!DOCTYPE svg PUBLIC "-//W3C//DTD SVG 20010904//EN" "http://www.w3.org/TR/2001/REC-SVG-20010904/DTD/svg10.dtd">
<!-- Created using Krita: https://krita.org -->
<svg xmlns="http://www.w3.org/2000/svg" 
    xmlns:xlink="http://www.w3.org/1999/xlink"
    xmlns:krita="http://krita.org/namespaces/svg/krita"
    xmlns:sodipodi="http://sodipodi.sourceforge.net/DTD/sodipodi-0.dtd"
    width="512pt"
    height="512pt"
    viewBox="0 0 144 144">
<defs/>
<rect id="shape0" fill="#006c35" fill-rule="evenodd" width="144" height="144"/><path id="shape0" transform="matrix(0.24 0 0 0.24 18.0004797241134 35.9151471873407)" fill="#ffffff" stroke-opacity="0" stroke="#000000" stroke-width="0" stroke-linecap="square" stroke-linejoin="bevel" d="M411.907 10.576C417.007 6.941 421.751 2.864 427.427 0C425.805 6.5 420.941 11.457 415.961 15.644C413.413 17.627 414.571 21.262 414.223 24.016C412.859 23.7001 411.507 23.3332 410.17 22.916C411.444 39.441 413.297 55.856 414.108 72.381C414.223 74.254 414.339 76.237 415.961 77.449C423.604 84.279 431.48 90.999 437.039 99.702C439.239 103.118 440.398 106.973 441.556 110.829C442.791 104.402 442.986 97.818 442.135 91.329C439.356 66.211 436.847 41.0193 434.607 15.754C434.376 12.669 433.912 9.474 434.26 6.39C434.449 4.94616 435.173 3.62434 436.287 2.68669C437.401 1.74904 438.827 1.26194 440.282 1.322C441.871 2.82746 443.099 4.67385 443.873 6.722C446.189 11.9 448.273 17.522 447.694 23.357C446.305 22.917 444.915 22.366 443.409 21.815C445.494 38.891 447.579 55.967 448.853 73.153C449.432 84.721 451.169 96.398 448.737 107.853C446.652 118.429 441.437 129.115 432.175 135.174C424.415 140.242 415.382 143.106 406.348 144.979C402.703 145.896 398.891 145.934 395.229 145.089C399.051 142.996 403.337 141.454 407.39 139.689C413.28 137.266 418.939 134.316 424.299 130.876C429.28 127.571 434.491 124.266 438.199 119.418C433.566 107.08 425.922 95.512 415.035 87.91C415.383 100.029 415.962 112.368 414.109 124.376C413.775 127.169 412.509 129.77 410.518 131.757C409.244 126.689 409.129 121.401 408.549 116.223C407.508 104.959 406.581 93.6848 405.77 82.402C405.77 80.089 404.264 78.326 402.527 77.002C395.694 71.273 389.327 64.883 382.727 58.934C382.959 65.875 384.001 72.705 384.465 79.534C385.275 88.788 385.391 98.042 386.318 107.296C386.897 113.796 387.012 120.626 384.58 126.796C382.148 132.635 376.705 137.596 370.219 138.034C366.773 138.293 363.309 138.108 359.911 137.483C356.321 136.932 353.541 134.183 351.92 131.093C349.951 127.347 348.909 123.161 347.287 119.305C344.276 119.966 341.149 120.627 338.948 122.941C334.316 127.347 332.926 134.068 330.725 139.796C329.451 143.211 327.946 146.957 324.587 148.83C321.113 150.813 316.827 150.042 313.469 148.169C308.369 145.415 305.246 140.127 303.74 134.729C302.234 130.542 304.319 125.695 301.771 121.729C299.918 118.093 300.96 113.797 301.887 110.051C303.856 103.331 308.025 97.602 313.005 92.751L293.205 75.565C293.784 91.429 295.058 107.293 292.973 123.047C292.721 126.232 291.369 129.231 289.151 131.53C288.454 128.522 287.989 125.465 287.761 122.386C286.14 104.979 284.751 87.573 283.592 70.167C283.476 68.183 283.129 65.98 281.507 64.658C274.727 58.2245 268.309 51.4204 262.282 44.277C258.807 39.871 255.217 35.354 253.364 30.066C252.669 27.866 252.09 24.778 254.174 23.125C256.552 23.4792 258.836 24.3033 260.892 25.549C264.789 27.818 268.339 30.6378 271.431 33.921C272.716 35.4117 273.629 37.1865 274.095 39.099C272.126 39.099 270.273 38.989 268.304 38.989C272.236 44.6551 276.911 49.7675 282.204 54.189C281.741 39.427 280.119 24.554 279.424 9.789C279.424 7.806 279.424 5.603 280.814 3.95C282.088 2.518 284.057 1.967 285.794 1.306C289.029 6.06184 291.383 11.361 292.743 16.95C293.208 19.1954 293.325 21.499 293.091 23.78C291.701 23.45 290.311 23.009 289.037 22.568C289.964 34.576 291.237 46.475 292.049 58.483C292.109 60.1911 292.341 61.8887 292.743 63.55C293.482 64.6337 294.38 65.5996 295.407 66.415C303.63 73.355 311.853 80.296 320.192 87.015C325.172 82.715 330.036 78.315 335.017 74.126C336.176 73.2236 337.26 72.2287 338.259 71.151C339.186 70.16 338.839 68.727 338.839 67.516C337.217 53.084 336.059 38.652 334.785 24.216C334.437 18.928 333.627 13.75 333.627 8.572C333.511 5.487 335.943 2.403 339.07 2.293C340.46 2.182 341.039 3.725 341.734 4.606C344.071 8.70054 345.79 13.1184 346.834 17.716C347.316 19.9717 347.276 22.308 346.718 24.546C345.444 23.995 344.054 23.334 342.78 22.784C344.518 36.334 345.907 49.884 347.18 63.435C350.771 60.791 354.014 57.707 357.372 54.842C361.078 51.647 365.016 48.563 368.606 45.148C364.321 40.521 359.806 36.224 355.406 31.707C352.627 28.843 349.268 26.089 348.106 22.007C347.179 19.143 347.758 16.058 348.338 13.307C353.549 14.189 358.066 17.273 362.238 20.358C365.06 22.6021 367.729 25.0311 370.229 27.629C369.997 21.9 369.302 16.172 368.839 10.443C368.839 8.243 368.607 5.816 370.113 4.053C371.387 2.621 373.356 2.07 374.977 1.299C378.214 5.79745 380.536 10.8884 381.811 16.282C382.406 18.6568 382.601 21.114 382.39 23.553C381 23.222 379.49 22.892 378.104 22.561C378.568 26.968 379.031 31.261 379.61 35.671C385.053 31.595 390.034 26.971 395.477 22.892C397.33 21.129 400.689 19.807 400.689 16.722C400.805 13.417 400.11 10.002 400.573 6.697C400.785 5.27212 401.518 3.97542 402.63 3.05993C403.742 2.14444 405.156 1.67386 406.595 1.74C409.375 4.384 410.417 7.689 411.923 10.553ZM383.648 42.414C382.721 43.406 380.984 44.287 381.1 45.94C381.795 47.372 383.184 48.474 384.343 49.685C391.06 55.745 397.43 62.134 404.495 67.643C404.263 61.143 403.568 54.753 403.221 48.253C402.642 41.423 402.41 34.592 401.715 27.762C395.461 32.279 389.786 37.567 383.648 42.414ZM366.623 30.406C368.123 32.059 369.523 33.711 371.023 35.364C371.023 33.711 370.907 32.059 370.907 30.406ZM350.408 70.617C349.25 71.609 347.86 72.71 347.976 74.363C347.86 82.736 348.787 91.329 346.702 99.481C346.239 101.574 344.733 103.006 343.228 104.328C341.374 96.286 341.259 88.028 339.869 79.871C334.889 83.837 330.14 88.134 325.508 92.43C328.171 95.405 330.835 98.6 331.762 102.676C332.537 105.509 332.491 108.505 331.63 111.314C330.768 114.122 329.126 116.629 326.896 118.54C321.221 123.277 313.577 124.048 306.513 124.93C307.555 129.557 308.481 134.404 311.261 138.37C312.998 140.684 315.778 142.887 318.789 142.006C322.032 141.124 324.001 138.04 325.159 135.175C327.356 129.287 330.149 123.639 333.496 118.32C336.276 113.913 340.796 110.277 346.12 110.167C347.857 110.277 350.174 109.727 351.22 111.599C353.536 115.455 354.347 120.082 357.242 123.718C362.107 130.107 372.414 130.218 378.205 124.93C380.174 123.167 380.174 120.303 379.943 117.879C377.279 95.956 375.31 73.812 372.993 51.889C365.233 57.948 357.936 64.338 350.408 70.617ZM309.525 108.074C308.311 109.84 307.446 111.822 306.977 113.913C312.207 114.474 317.482 113.355 322.033 110.718C323.423 109.837 325.044 108.405 324.697 106.532C324.349 102.786 321.222 100.142 318.443 97.939C315.208 101.077 312.226 104.466 309.525 108.074ZM92.0209 1.212C93.4099 0.33 94.6839 1.873 95.6109 2.864C98.3909 6.28 101.402 9.695 103.023 13.881C101.633 14.101 100.128 14.322 98.7379 14.542C99.0849 21.152 104.645 25.669 106.266 31.948C107.401 35.8153 107.56 39.9042 106.729 43.848C106.149 46.5248 104.798 48.9743 102.844 50.8931C100.89 52.812 98.4158 54.1175 95.7289 54.648C89.3589 55.748 82.1779 54.207 77.4289 49.47C74.3019 46.385 73.1429 41.979 71.7539 38.013C70.2479 43.413 68.0469 48.589 64.2249 52.775C61.9411 55.194 59.2324 57.1732 56.2339 58.614C57.0449 73.376 58.5499 88.139 57.2759 102.791C56.8129 106.977 56.5819 111.935 52.7599 114.691C51.3699 108.852 51.1379 102.791 50.4429 96.734C49.1689 84.505 48.2429 72.277 46.9689 60.048C43.3779 59.167 39.4409 58.396 36.6609 55.748C32.0279 51.561 30.5229 45.061 30.8699 39.112C30.9859 34.485 32.4919 29.968 33.5339 25.452C31.7831 27.1933 30.4384 29.2999 29.5959 31.621C27.1639 39.002 25.5429 46.714 22.1839 53.765C21.5734 55.1675 20.651 56.4125 19.4871 57.405C18.3232 58.3976 16.9482 59.1117 15.4669 59.493C11.7599 60.264 7.35885 60.044 4.46685 57.18C1.33985 54.095 0.644851 49.468 0.181851 45.28C-0.0501485 40.98 -0.397149 36.356 1.57185 32.39C2.72985 29.966 5.16185 28.644 7.24685 27.433C5.85685 29.746 4.23485 32.06 3.88785 34.704C3.42485 38.449 4.11985 42.304 4.81385 45.941C5.27785 48.141 5.74085 50.568 7.47785 52.11C8.85353 53.2514 10.5964 53.8581 12.3835 53.8177C14.1705 53.7773 15.8842 53.0924 17.2069 51.89C18.467 50.2824 19.4102 48.4498 19.9859 46.49C22.3029 39.439 24.1559 32.168 27.0509 25.337C29.5989 19.609 34.1159 13.99 40.6019 12.778C39.9069 20.6 36.3169 27.871 36.0849 35.803C35.9689 39.329 36.3169 43.185 38.6329 45.939C40.3699 48.252 43.2659 49.023 45.9329 49.795C45.2389 39.108 44.1959 28.422 43.5009 17.626C43.2699 13.66 42.5749 9.584 43.2699 5.618C43.8489 2.863 46.8599 1.872 49.1759 0.991C53.5759 7.491 56.8199 15.202 56.7039 23.134C55.2039 22.804 53.8089 22.473 52.3039 22.143C53.2309 31.287 54.1569 40.543 55.2039 49.684C59.0805 48.5464 62.4414 46.0912 64.7039 42.744C69.2209 36.244 69.9159 27.761 67.7149 20.27C66.7879 17.075 65.2829 14.1 64.5879 10.795C63.8879 7.711 66.0939 4.516 68.8729 3.524C70.1469 2.974 70.7259 4.516 71.3049 5.397C73.0429 9.143 73.6219 13.329 74.4319 17.405C75.4749 22.805 74.4319 28.422 76.4009 33.6C77.9184 38.1181 81.0001 41.9493 85.0879 44.4C88.4944 46.2078 92.4207 46.7915 96.2059 46.053C97.1327 45.8559 97.9846 45.3989 98.6614 44.7356C99.3381 44.0723 99.8122 43.2297 100.028 42.307C100.954 38.782 99.6809 35.146 98.1749 31.952C94.6999 24.68 90.4149 17.74 88.7939 9.808C88.2149 6.944 89.0249 2.978 92.0369 1.215Z" sodipodi:nodetypes="cccccccccccccccccccccccccccccccccccccccccccccccccccccccccccccccccccccccccccccccccccccccccccccccccccccccccccccccccccccccccccccccccccccccccccccccccccccccccccccccccccccccccccccccccccccccccccccccccccccccc"/><path id="shape1" transform="matrix(0.24 0 0 0.24 18.54528 36.29208)" fill="#ffffff" stroke-opacity="0" stroke="#000000" stroke-width="0" stroke-linecap="square" stroke-linejoin="bevel" d="M248.769 8.483C251.057 4.76151 254.405 1.80695 258.382 0C257.243 2.6284 255.846 5.13763 254.213 7.491C253.054 9.254 253.054 11.457 252.939 13.44C255.599 13.3149 258.239 12.9086 260.814 12.228C260.119 14.322 259.424 16.528 257.455 17.847C255.255 19.389 252.012 20.381 249.696 18.508C248.513 17.1441 247.786 15.4427 247.62 13.6446C247.454 11.8465 247.856 10.0408 248.769 8.483ZM105.156 3.63C106.314 1.868 108.515 1.207 110.256 0.43C113.723 5.16359 116.168 10.5664 117.437 16.295C117.88 18.4726 117.92 20.7132 117.553 22.905C116.279 22.464 114.889 22.023 113.615 21.583C115.115 32.269 116.974 42.845 118.248 53.531C124.386 50.557 130.061 46.921 136.431 44.277C138.418 43.4279 140.531 42.9071 142.685 42.735C141.874 44.497 140.948 46.26 139.095 47.035C132.377 50.45 125.544 53.425 118.942 57.171C119.522 62.459 120.101 67.857 120.796 73.145C123.807 69.289 126.471 64.445 131.682 63.23C131.914 66.094 130.987 69.509 133.072 71.823C136.315 74.357 140.716 72.814 143.727 70.501C143.496 66.315 144.654 62.238 145.465 58.162C146.739 58.713 148.36 58.933 148.823 60.476C150.213 64.332 149.866 68.628 148.823 72.484C147.781 76.891 144.191 80.196 140.253 82.179C137.821 83.39 134.809 84.051 132.146 82.95C129.366 81.85 127.629 79.204 125.776 76.891C124.154 80.857 121.49 84.491 121.376 89.009C120.776 98.4656 117.345 107.527 111.531 115.009C101.687 127.899 86.631 135.609 71.343 140.128C62.543 142.551 53.391 144.755 44.126 144.314C39.0825 144.32 34.1263 142.989 29.764 140.458C27.911 139.246 26.29 137.594 24.437 136.492C22.121 136.051 19.688 136.712 17.256 136.712C11.465 136.933 5.675 137.153 0 136.162C6.949 133.848 14.013 132.085 20.847 129.551C18.9775 117.069 21.4302 104.315 27.796 93.417C29.5363 90.6189 31.6392 88.0634 34.05 85.817C32.081 89.783 29.65 93.639 28.606 98.046C26.1511 107.307 26.3118 117.07 29.07 126.246C33.818 124.704 38.451 122.611 42.97 120.628C53.509 116.001 63.817 111.043 73.429 104.654C77.02 102.12 80.729 99.476 83.158 95.62C84.316 93.747 84.085 91.544 84.085 89.451C79.104 90.442 74.24 92.756 69.028 92.645C65.786 92.425 62.311 91.764 59.995 89.23C57.679 86.696 57.563 83.061 58.026 79.866C58.5954 75.5695 60.6926 71.6183 63.932 68.739C67.754 65.544 73.432 65.654 77.832 67.639C82.118 69.623 84.55 73.809 86.632 77.775C93.117 75.351 97.518 69.623 103.888 66.868C104.12 70.173 103.772 74.029 106.32 76.673C107.826 78.546 110.374 78.436 112.459 78.656C112.111 73.368 111.301 68.19 110.606 63.012C108.406 45.712 106.206 28.312 104.352 10.903C104.236 8.37 103.888 5.726 105.162 3.632ZM65.547 78.875C64.968 80.086 66.358 80.858 67.284 81.298C70.759 82.51 74.584 81.739 78.171 81.078C76.318 79.095 74.117 76.892 71.106 76.778C69.137 76.668 66.358 76.778 65.547 78.872ZM90.795 86.035C91.027 89.561 91.142 93.086 89.984 96.391C88.131 102.01 83.846 106.527 79.445 110.272C70.99 117.213 61.03 121.73 51.417 126.797C47.0449 129.253 42.5189 131.424 37.867 133.297C43.773 133.738 49.68 132.746 55.467 132.306C64.385 131.755 72.955 129.221 81.178 125.916C89.749 122.391 98.087 117.874 104.805 111.264C108.989 107.314 111.997 102.279 113.491 96.722C114.053 93.9298 114.324 91.087 114.302 88.239C110.827 88.129 107.121 88.239 103.994 86.476C101.446 85.044 100.056 82.29 98.551 79.866C96.1484 82.1438 93.552 84.208 90.791 86.035ZM184.954 3.3C186.228 1.868 188.544 2.088 190.054 3.079C191.713 4.20444 193.054 5.7388 193.947 7.5334C194.84 9.32801 195.256 11.323 195.154 13.325C194.897 15.1131 194.39 16.8562 193.648 18.503C193.185 15.969 193.301 13.325 192.148 11.012C190.411 8.588 187.168 8.147 185.083 6.164C184.259 5.503 183.912 3.961 184.954 3.3Z" sodipodi:nodetypes="ccccccccccccccccccccccccccccccccccccccccccccccccccccccccccccccccccccccccccccccccccccccc"/><path id="shape2" transform="matrix(0.24 0 0 0.24 18.0530963723886 36.7869507462207)" fill="#ffffff" stroke-opacity="0" stroke="#000000" stroke-width="0" stroke-linecap="square" stroke-linejoin="bevel" d="M234.49 2.56004C234.722 1.01704 236.227 -0.634962 237.849 0.246038C242.366 2.44604 245.608 6.63604 247.693 11.153C246.072 11.153 244.45 11.043 242.945 10.933C243.682 14.0123 244.65 17.0318 245.84 19.966C247.577 24.153 250.01 28.119 250.704 32.746C251.515 37.813 250.589 43.546 246.998 47.398C240.281 54.889 226.846 53.567 221.055 45.525C218.855 42.661 217.697 39.356 216.538 35.941C214.685 43.212 210.748 50.262 204.146 54.008C200.772 55.9436 196.923 56.8974 193.036 56.7612C189.149 56.6249 185.376 55.404 182.146 53.237C180.178 52.002 178.545 50.2995 177.394 48.2814C176.242 46.2633 175.608 43.9916 175.546 41.669C175.083 34.839 177.746 28.449 178.673 21.839C176.942 23.4449 175.63 25.4496 174.851 27.678C172.072 35.059 170.914 42.991 166.976 49.932C165.123 53.232 161.996 56.211 158.058 56.542C154.236 56.762 150.066 55.33 147.866 52.025C145.897 48.94 145.434 45.195 145.434 41.559C145.506 36.0033 146.853 30.5377 149.372 25.585C149.372 32.525 147.287 40.127 150.761 46.627C152.499 50.262 157.131 52.355 160.722 50.372C163.965 48.389 165.47 44.644 166.628 41.229C169.061 33.957 171.608 26.576 175.199 19.746C176.699 16.992 178.326 14.127 180.874 12.146C182.148 11.046 184.001 11.046 185.622 10.714C185.97 16.884 182.495 22.282 181.337 28.231C180.179 33.409 179.831 39.578 183.537 43.875C187.706 48.391 194.655 49.493 200.446 47.951C208.437 45.417 214.228 37.375 214.576 29.002C214.807 24.044 215.039 18.646 212.376 14.24C211.218 11.926 209.017 9.50204 209.944 6.64004C210.277 5.26771 210.906 3.98464 211.787 2.8809C212.668 1.77715 213.779 0.879189 215.044 0.250038C216.919 2.94509 218.148 6.03683 218.634 9.28404C219.561 16.884 219.676 24.707 222.34 31.978C223.962 36.165 226.394 40.461 230.679 42.444C234.617 44.317 239.479 44.758 243.303 42.775C245.735 41.563 246.314 38.589 245.735 36.165C244.114 28.233 238.671 21.953 236.123 14.352C234.733 10.496 233.69 6.53004 234.501 2.56404ZM312.319 0.907038C314.751 -0.192962 318.226 0.687038 319.384 3.22104C319.536 3.7877 319.493 4.38933 319.262 4.92861C319.031 5.46789 318.625 5.91409 318.11 6.19504C316.46 5.7558 314.866 5.12764 313.361 4.32304C311.393 8.06804 310.35 12.255 309.192 16.441C308.5 14.3914 307.567 12.4313 306.412 10.602C304.791 8.40204 302.243 7.29704 300.39 5.31404C299.811 3.55104 301.89 1.56804 303.633 2.11904C306.181 2.89004 307.686 5.20404 309.192 7.29704C309.887 4.98404 310.234 2.22904 312.319 0.907038ZM0.770765 10.161C2.73976 5.97504 6.56176 2.89004 10.7318 0.907038C9.68876 3.66204 7.95176 5.97504 6.56176 8.50704C5.40376 10.27 5.51976 12.473 5.40376 14.456C8.12365 14.2246 10.8063 13.6696 13.3948 12.803C12.5848 14.897 11.7738 17.21 9.80476 18.642C7.71976 20.185 4.59276 21.066 2.39276 19.524C-0.155235 17.321 -0.621235 13.246 0.770765 10.161Z" sodipodi:nodetypes="cccccccccccccccccccccccccccccccccccccccccccccccccccccccccccccc"/><path id="shape3" transform="matrix(0.24 0 0 0.24 18.09912 37.2080269141461)" fill="#ffffff" stroke-opacity="0" stroke="#000000" stroke-width="0" stroke-linecap="square" stroke-linejoin="bevel" d="M148.709 2.78855C149.404 -0.847446 154.848 -0.737446 156.585 2.01755C157.743 4.00055 158.322 6.09355 159.48 8.07655C160.523 10.0596 161.797 12.1526 161.102 14.4666C160.059 18.1016 157.396 20.9666 157.048 24.8216C158.322 24.2706 159.596 23.6096 160.87 22.9486C160.523 24.9316 160.87 27.5756 158.785 28.6776C156.237 29.8896 153.11 27.4656 153.342 24.7116C153.689 19.7546 158.554 15.8986 157.048 10.6116C152.184 17.1116 145.466 22.9496 137.243 24.1616C140.834 21.2976 144.887 19.3146 148.13 16.0096C150.08 13.9441 151.719 11.6059 152.995 9.06855C151.257 7.30655 148.246 5.65355 148.709 2.78955ZM152.068 2.45755C152.838 3.63117 153.869 4.61163 155.079 5.32255C154.844 4.63816 154.448 4.02032 153.924 3.52161C153.4 3.0229 152.763 2.65786 152.068 2.45755ZM122.998 5.10155C124.735 4.66155 126.82 4.00155 128.21 5.54255C130.294 7.48773 131.83 9.94748 132.664 12.6739C133.497 15.4003 133.599 18.2985 132.958 21.0766C132.032 18.9826 131.337 16.7766 130.294 14.7966C128.557 11.0506 124.735 8.84755 122.994 5.09655ZM85.705 7.41555C86.5602 8.29345 87.2032 9.3556 87.5845 10.5204C87.9658 11.6851 88.0755 12.9219 87.905 14.1356C85.126 14.5766 82.346 15.3476 79.567 16.0086C79.0687 16.124 78.5487 16.1051 78.0601 15.9538C77.5716 15.8024 77.1319 15.5241 76.7861 15.1472C76.4403 14.7703 76.2008 14.3083 76.092 13.8086C76.1353 12.1627 76.4083 10.5309 76.903 8.96055C77.482 10.6136 78.061 12.2606 78.64 14.0286C79.335 13.6976 80.146 13.4776 80.84 13.1476L80.84 8.63055L82.461 8.63055C82.693 9.95255 82.924 11.3846 83.156 12.7066C84.082 12.5966 84.893 12.4866 85.82 12.3756C85.704 10.7236 85.704 9.07055 85.704 7.41855ZM320.929 11.0506C323.191 10.426 325.531 10.1293 327.878 10.1696C326.795 11.5363 325.407 12.6306 323.825 13.3646C315.833 16.5596 307.61 18.8726 299.966 22.9486C300.661 24.3816 301.356 25.7036 302.051 27.1356C300.198 26.8046 297.997 26.8046 296.608 25.2626C296.179 24.8642 295.873 24.3522 295.724 23.7863C295.575 23.2205 295.59 22.6238 295.766 22.066C295.943 21.5083 296.275 21.0121 296.723 20.6356C298.014 19.7279 299.415 18.9886 300.893 18.4356C307.493 16.0116 314.093 13.2576 320.929 11.0536ZM199.9 16.7796C200.815 16.0784 201.785 15.4521 202.8 14.9066C202.684 17.8816 203.726 20.5256 205 23.1696C206.274 25.8136 205.232 29.5586 202.105 30.2196C199.441 31.1016 197.005 29.4486 195.156 27.9066C193.65 29.2286 192.029 30.9916 189.828 30.6606C185.775 30.4406 183.806 25.7036 184.617 22.1776C184.964 19.8646 186.817 18.4326 188.439 16.9996C188.207 19.4236 187.28 21.8476 187.859 24.2706C188.323 25.9236 190.292 25.9236 191.681 26.4706C192.145 23.8266 192.26 21.0706 192.955 18.3176C193.187 16.8856 194.924 16.7756 195.855 16.1176C196.086 18.4316 195.971 20.7446 196.666 22.9476C197.245 24.6006 199.214 25.1476 200.603 25.9226C201.298 22.7276 199.908 19.7536 199.908 16.7786ZM79.687 20.9666C81.425 20.9666 83.509 20.6366 84.899 22.0666C86.9047 24.013 88.3664 26.4509 89.1382 29.1371C89.9101 31.8233 89.9655 34.6653 89.299 37.3796C87.909 33.7446 86.751 29.7796 83.74 27.0246C81.887 25.3726 80.03 23.4996 79.687 20.9666ZM319.424 34.8476C320.283 33.9207 321.256 33.1063 322.319 32.4236C322.423 35.1185 323.136 37.7551 324.404 40.1356C325.562 42.5586 325.562 46.4146 322.666 47.5166C320.003 48.7286 317.223 47.2956 315.022 45.7536C313.285 47.0756 311.201 48.7286 308.768 48.0676C305.178 47.2956 303.668 43.1096 304.251 39.8046C304.483 37.3806 306.568 35.8386 308.189 34.2966C307.842 36.8306 306.799 39.3636 307.494 41.8966C308.073 43.5496 310.042 43.2186 311.432 43.5496C311.895 40.6846 311.664 37.7106 312.822 35.0666C313.711 34.421 314.685 33.902 315.717 33.5246C315.833 36.0576 315.37 38.8126 316.644 41.1246C317.455 42.5566 319.192 42.6666 320.582 43.1076C320.466 40.3536 319.655 37.5996 319.423 34.8456ZM415.667 38.8136C415.467 38.2739 415.45 37.6829 415.619 37.1327C415.789 36.5826 416.135 36.1034 416.604 35.7699C417.073 35.4363 417.64 35.2668 418.215 35.2876C421.115 35.2876 423.315 37.7116 424.701 40.0246C427.133 44.7626 428.291 50.4906 426.323 55.5586C425.28 51.0416 425.396 45.3126 421.223 42.3386C419.37 41.2386 417.169 40.5756 415.663 38.8136ZM255.724 48.7286C256.387 48.0475 257.219 47.5555 258.135 47.3036C259.051 47.0517 260.018 47.0489 260.936 47.2956C263.252 49.4956 262.789 53.4656 260.936 55.7786C257.577 60.1856 252.018 62.2786 246.575 62.2786C249.933 60.2956 253.755 59.1936 256.767 56.6606C258.156 55.6686 257.925 53.7956 258.156 52.2536C256.535 52.4736 254.913 52.8046 253.408 53.0246C254.02 51.5106 254.797 50.0686 255.724 48.7246ZM333.553 52.1436C334.596 51.9226 335.985 51.2616 336.68 52.3636C335.87 55.0076 333.09 56.1096 330.889 57.2106C322.551 61.0666 314.443 65.3636 306.22 69.5496C305.873 68.7786 305.41 68.1176 305.062 67.3496C309.695 63.9346 314.791 61.4006 319.771 58.6496C324.404 56.3356 328.805 53.8016 333.553 52.1496ZM176.621 58.6436C176.853 56.9906 178.011 55.7786 178.938 54.5666C185.307 61.5076 190.751 69.5496 193.646 78.6936C196.426 87.3936 197.121 96.5406 198.858 105.465C199.785 109.982 200.595 114.719 203.607 118.354C205.575 120.888 208.471 122.43 211.251 123.973C211.83 121.108 212.525 118.024 215.188 116.373C223.295 110.973 232.677 107.673 241.942 104.696C234.414 104.475 226.77 104.696 219.242 104.585C213.104 104.475 206.965 105.026 200.942 103.924C201.173 101.611 201.173 99.1866 202.563 97.0936C205.343 92.4666 210.207 89.8226 214.84 87.3986C221.806 83.67 229.142 80.6794 236.729 78.4756C234.76 76.3826 231.749 74.0686 232.56 70.6536C233.95 66.6876 237.424 62.7216 241.825 62.8316C246.69 62.8316 251.438 64.8146 255.607 67.2386C258.155 68.8906 261.282 70.6536 262.207 73.7386C261.944 75.9242 261.06 77.9892 259.659 79.6876C256.995 82.9926 252.247 82.7716 248.309 83.2126C248.077 85.8566 247.73 89.0516 245.066 90.2636C244.267 88.1867 243.417 86.1294 242.518 84.0936C232.905 85.8566 224.335 90.8136 216.807 96.7626C238.117 96.8736 259.312 96.3226 280.622 96.4326C282.012 96.5426 283.401 96.6526 284.791 96.8736C283.865 102.492 278.191 105.246 273.21 106.458C263.134 108.658 253.057 110.645 242.981 112.628C235.453 114.17 227.809 115.933 220.981 119.348C218.438 120.682 216.253 122.609 214.611 124.966C219.621 126.726 224.773 128.053 230.011 128.932C231.748 129.373 234.18 129.703 234.644 131.797C235.338 134.551 235.454 138.407 232.79 140.169C229.432 140.941 225.957 140.169 222.599 139.619C213.333 138.186 204.415 133.339 199.088 125.407C195.034 119.678 193.876 112.517 192.834 105.687C190.276 109.508 187.327 113.053 184.034 116.263C175 124.746 164.113 130.915 152.763 135.873C148.825 137.636 143.845 138.186 139.907 135.763C137.128 134.11 136.085 130.695 134.927 127.831C124.388 133.231 113.617 138.407 101.919 140.61C94.7512 142.056 87.4583 142.793 80.146 142.81C83.968 140.937 87.905 139.505 91.727 137.963C104.467 132.675 116.975 126.726 129.252 120.336C130.758 119.455 132.611 118.684 133.652 117.252C134.81 114.057 134.926 110.642 136.663 107.557C138.533 103.913 141.381 100.861 144.886 98.7426C142.686 103.591 140.37 108.548 139.675 113.836C147.172 109.405 154.129 104.118 160.406 98.0816C162.027 96.3196 164.344 94.1156 163.417 91.4716C162.259 87.7266 160.29 84.4216 158.9 80.7856C156.816 75.4976 154.268 69.9856 154.847 64.1506C154.962 62.2776 156.347 60.8456 157.279 59.4136C162.379 62.7136 165.618 68.1136 168.513 73.2946C167.471 73.5146 166.313 73.7346 165.27 73.9556C167.239 79.3556 170.482 84.2006 171.408 89.9296C171.812 92.1493 171.71 94.4321 171.109 96.6067C170.507 98.7813 169.422 100.792 167.934 102.489C160.058 110.972 150.334 117.362 141.18 124.302C142.802 125.184 144.539 126.395 146.508 126.285C150.33 126.175 154.036 124.853 157.508 123.421C170.248 117.802 180.672 108.438 191.443 99.7346C188.779 89.3786 184.031 79.6846 179.05 70.2096C177.072 66.6953 176.223 62.6559 176.618 58.6426ZM238.121 72.3036C239.39 74.1021 241.165 75.483 243.221 76.2696C246.348 76.9306 249.359 75.0586 251.676 73.0756C248.776 70.8756 245.421 69.1096 241.715 69.1096C239.978 69.1096 238.125 70.5416 238.125 72.3036ZM17.257 58.6436C17.2781 57.9458 17.5663 57.2821 18.0618 56.7903C18.5572 56.2986 19.2231 56.0154 19.921 55.9996C23.859 55.5586 26.638 58.7536 29.07 61.2876C30.344 62.6096 31.387 64.3716 30.576 66.2446C30.113 68.3376 27.676 68.2276 26.059 68.6686C22.585 68.8886 21.195 72.6346 18.531 74.2866C13.203 77.9226 6.602 80.7866 0 79.9056C1.622 77.5916 4.286 76.6006 6.834 75.8296C11.582 74.2866 15.404 70.8716 18.879 67.3466C17.952 64.4826 16.794 61.6176 17.257 58.6466ZM19.457 59.0836C19.6283 61.0243 20.2211 62.9045 21.194 64.5926C21.8996 63.0342 22.5563 61.4541 23.163 59.8546C21.9421 59.5339 20.7055 59.2766 19.458 59.0836ZM24.668 66.2446C25.942 66.1346 27.216 65.9146 28.49 65.8046C28.2982 64.1362 27.8692 62.5037 27.216 60.9566C25.595 62.1686 25.363 64.3716 24.668 66.2446Z" sodipodi:nodetypes="cccccccccccccccccccccccccccccccccccccccccccccccccccccccccccccccccccccccccccccccccccccccccccccccccccccccccccccccccccccccccccccccccccccccccccccccccccccccccccccccccccccccccccccccccccccccccccccccccccccccccccccccc"/><path id="shape4" transform="matrix(0.24 0 0 0.24 18.2453741941619 51.018)" fill="#ffffff" stroke-opacity="0" stroke="#000000" stroke-width="0" stroke-linecap="square" stroke-linejoin="bevel" d="M213.305 1.983C214.107 1.163 215.048 0.491598 216.085 0C216.085 3.856 218.864 6.83 219.212 10.576C219.559 14.432 214.579 16.415 211.568 14.652C210.642 13.991 209.831 13.22 209.02 12.559C207.399 13.991 205.661 16.084 203.229 15.534C199.523 14.873 197.554 10.576 198.249 7.051C198.597 4.627 200.565 3.085 202.303 1.651C201.955 3.965 201.145 6.168 201.376 8.592C201.608 10.355 203.576 10.906 204.966 11.677C205.749 8.93865 206.292 6.13696 206.588 3.304C206.82 1.762 208.673 1.541 209.715 0.77C209.831 3.084 209.715 5.507 210.41 7.711C211.105 9.253 212.726 10.024 214 10.906C215.39 7.931 213.421 4.957 213.305 1.982ZM28.4606 16.084C30.4296 15.203 32.5146 14.101 34.7156 13.884C36.7996 13.774 37.8426 16.969 36.2156 18.291C33.7836 20.164 30.8886 20.935 28.1086 22.147C21.6226 25.231 15.1366 28.206 8.76761 31.621C7.37761 32.502 5.63961 32.282 4.13461 32.062C4.99905 30.1243 6.40716 28.4782 8.18761 27.324C14.9106 23.245 21.6276 19.5 28.4606 16.084ZM272.024 19.5C272.488 17.3 275.036 16.966 276.889 16.305C277.352 19.5 277.7 22.805 279.668 25.449C278.626 25.559 277.584 25.669 276.657 25.779C275.267 27.872 273.762 30.186 271.445 31.287C267.623 33.16 263.338 33.16 259.169 32.94C263.569 31.728 269.013 31.398 271.909 27.432C273.878 25.118 271.793 22.144 272.024 19.5ZM359.466 22.694C360.045 20.932 362.13 20.932 363.636 21.152C366.879 21.703 369.195 24.457 371.28 26.771C372.06 27.4896 372.55 28.4699 372.656 29.5251C372.763 30.5803 372.479 31.6388 371.859 32.499C369.774 34.152 366.415 33.16 364.559 35.364C359 41.753 350.43 45.83 341.859 44.948C343.481 42.635 346.144 41.643 348.808 40.872C353.557 39.33 357.263 35.804 360.737 32.389C359.811 29.304 358.421 25.999 359.463 22.694ZM361.666 24.016C361.895 26.0106 362.362 27.9708 363.056 29.855C363.914 28.3533 364.613 26.7656 365.14 25.118C363.983 24.677 362.709 24.347 361.667 24.016ZM368.383 26.44C367.722 28.013 367.18 29.6332 366.762 31.287C368.036 31.177 369.31 30.957 370.584 30.847C370.336 29.297 369.908 27.7811 369.31 26.33C369.078 26.33 368.616 26.44 368.384 26.44ZM140.341 26.11C142.541 24.016 146.479 25.118 147.869 27.652C148.564 29.084 147.058 30.186 146.479 31.287C145.367 30.5116 144.161 29.8825 142.889 29.415C141.73 29.084 141.383 30.406 141.035 31.177C139.646 34.477 138.951 38.008 137.908 41.423C137.258 39.3068 136.364 37.2735 135.245 35.364C133.855 33.381 131.538 32.279 129.801 30.626C128.18 29.304 129.917 26.44 131.77 26.771C134.434 27.101 136.055 29.525 137.908 31.287C138.603 29.525 139.067 27.542 140.341 26.11ZM1.12861 45.279C3.41589 41.5575 6.7637 38.603 10.7406 36.796C9.60235 39.4593 8.20602 42.0048 6.57161 44.396C5.41361 46.159 5.41361 48.252 5.29761 50.235C7.98662 50.0849 10.659 49.717 13.2886 49.135C12.5936 51.228 11.7886 53.541 9.81461 54.753C7.61461 56.185 4.48661 57.287 2.17061 55.414C0.974916 54.0376 0.2329 52.325 0.0464328 50.5113C-0.140034 48.6977 0.237991 46.8699 1.12861 45.279ZM185.972 62.244C187.941 61.914 190.258 61.033 191.995 62.465C192.581 62.8551 193.043 63.406 193.325 64.0516C193.607 64.6971 193.697 65.4104 193.584 66.1057C193.471 66.8011 193.161 67.4494 192.69 67.973C190.258 69.295 187.131 68.524 185.046 70.397C185.393 73.261 187.594 75.575 188.057 78.329C188.173 80.092 186.783 81.524 185.973 82.956C185.393 80.202 184.93 77.227 183.425 74.804C182.498 73.041 181.108 71.278 181.571 69.185C182.035 66.871 184.471 65.77 186.204 64.668C186.058 63.868 185.981 63.0571 185.972 62.244ZM274.804 65.66C275.731 63.346 277.931 62.244 279.904 61.033C279.093 62.905 277.704 64.778 277.472 66.871C278.398 68.524 279.904 69.736 280.715 71.499C280.946 74.363 276.777 74.804 275.271 73.041C273.534 71.058 273.771 67.973 274.808 65.66ZM253.378 62.465C256.621 61.365 260.095 62.465 262.991 64.117C260.906 68.417 256.042 69.517 252.451 72.159C252.585 72.7378 252.662 73.3282 252.683 73.922C255.231 74.032 257.895 74.363 260.095 73.041C262.954 71.3953 266.036 70.1707 269.245 69.405C266.697 71.605 264.265 73.812 261.717 75.905C258.705 78.329 254.536 78.329 250.946 77.337C249.209 76.787 247.008 75.244 247.587 73.037C248.514 70.283 251.293 68.85 253.494 67.198C251.872 67.088 250.367 66.978 248.745 66.867C250.019 65.109 251.178 62.905 253.378 62.465ZM337.345 70.287C337.025 69.8505 336.864 69.3179 336.888 68.7776C336.912 68.2372 337.12 67.7209 337.476 67.3144C337.833 66.9079 338.318 66.635 338.851 66.541C341.978 65.99 344.642 68.524 346.032 71.058C347.008 72.8216 347.54 74.7973 347.58 76.8129C347.62 78.8285 347.168 80.8238 346.263 82.625C345.684 80.092 345.684 77.448 344.41 75.134C342.673 72.821 339.43 72.38 337.345 70.287ZM389.81 71.939C394.096 70.397 398.381 68.414 403.01 68.854C402.08 70.6034 400.562 71.9695 398.725 72.71C391.545 75.354 384.248 77.778 377.183 80.753C374.95 81.7549 372.622 82.5298 370.234 83.066C370.003 82.405 369.655 81.744 369.424 81.083C375.909 77.337 382.858 74.693 389.807 71.939ZM375.813 213.453L340.141 213.453L340.141 210.071C341.752 208.678 343.941 206.788 343.941 205.694C343.941 203.804 339.454 199.925 338.418 199.925C337.267 199.925 332.895 203.904 332.895 205.694C332.895 206.888 334.851 208.579 336.462 209.971L336.577 210.071L336.577 213.552L55.2276 213.552C65.2386 223.499 80.0826 223.4 109.886 223.698C136.467 224.098 136.352 224.098 336.459 223.698L336.459 227.279C334.848 228.672 332.892 230.562 332.892 231.656C332.892 233.546 337.149 237.425 338.415 237.425C339.221 237.425 341.867 235.237 343.248 233.347L355.56 233.347C356.366 234.739 358.207 235.535 360.393 235.535C361.316 235.594 362.239 235.426 363.082 235.044C363.925 234.663 364.661 234.08 365.226 233.347L379.955 233.347C380.712 234.121 381.63 234.718 382.645 235.096C383.659 235.475 384.745 235.624 385.824 235.535C391.462 235.335 392.724 232.452 392.724 222.505C392.609 214.149 386.971 213.254 375.809 213.453ZM378.344 230.263L365.226 230.263C364.442 229.306 363.392 228.604 362.208 228.244C361.025 227.885 359.761 227.885 358.578 228.244C357.395 228.604 356.344 229.306 355.561 230.263L343.478 230.263C342.57 229.074 341.483 228.034 340.256 227.18L340.256 223.599L378.456 223.599C377.731 225.755 377.692 228.084 378.344 230.263Z" sodipodi:nodetypes="cccccccccccccccccccccccccccccccccccccccccccccccccccccccccccccccccccccccccccccccccccccccccccccccccccccccccccccccccccccccccccccccccccccccccccccccccccccccccccccc"/>
</svg>
