<?xml version="1.0" standalone="no"?>
<!DOCTYPE svg PUBLIC "-//W3C//DTD SVG 20010904//EN" "http://www.w3.org/TR/2001/REC-SVG-20010904/DTD/svg10.dtd">
<!-- Created using Krita: https://krita.org -->
<svg xmlns="http://www.w3.org/2000/svg" 
    xmlns:xlink="http://www.w3.org/1999/xlink"
    xmlns:krita="http://krita.org/namespaces/svg/krita"
    xmlns:sodipodi="http://sodipodi.sourceforge.net/DTD/sodipodi-0.dtd"
    width="512pt"
    height="512pt"
    viewBox="0 0 144 144">
<defs/>
<rect id="shape0" fill="#d80027" fill-rule="evenodd" width="144" height="72"/><rect id="shape1" transform="translate(-2.8421709430404e-14, 72)" fill="#ffffff" fill-rule="evenodd" width="144" height="72"/><g id="group0" transform="matrix(0.419362697229981 0 0 0.419362697229981 -13.9806375440017 -35.7861945374602)" fill="none">
  <path id="shape2" transform="translate(61.218, 118.724)" fill="#ffffff" stroke-opacity="0" stroke="#000000" stroke-width="0" stroke-linecap="square" stroke-linejoin="bevel" d="M22.26 51.942C22.26 27.077 39.736 6.305 63.072 1.208C59.485 0.424 55.764 0 51.942 0C23.254 0 0 23.254 0 51.941C0 80.628 23.255 103.883 51.942 103.883C55.764 103.883 59.485 103.458 63.072 102.675C39.736 97.58 22.26 76.808 22.26 51.942Z" sodipodi:nodetypes="ccccccc"/>
  <path id="shape3" transform="translate(134.656, 122.435)" fill="#ffffff" stroke-opacity="0" stroke="#000000" stroke-width="0" stroke-linecap="square" stroke-linejoin="bevel" d="M15.605 0L19.289 11.337L31.21 11.337L21.565 18.344L25.249 29.681L15.605 22.675L5.96 29.681L9.645 18.344L0 11.337L11.921 11.337Z" sodipodi:nodetypes="ccccccccccc"/>
  <path id="shape4" transform="translate(105.739, 144.696)" fill="#ffffff" stroke-opacity="0" stroke="#000000" stroke-width="0" stroke-linecap="square" stroke-linejoin="bevel" d="M15.605 0L19.288 11.337L31.209 11.337L21.564 18.344L25.248 29.681L15.605 22.675L5.96 29.681L9.645 18.344L0 11.337L11.921 11.337Z" sodipodi:nodetypes="ccccccccccc"/>
  <path id="shape5" transform="translate(163.574, 144.696)" fill="#ffffff" stroke-opacity="0" stroke="#000000" stroke-width="0" stroke-linecap="square" stroke-linejoin="bevel" d="M15.604 0L19.288 11.337L31.209 11.337L21.564 18.344L25.248 29.681L15.604 22.675L5.96 29.681L9.645 18.344L0 11.337L11.921 11.337Z" sodipodi:nodetypes="ccccccccccc"/>
  <path id="shape6" transform="translate(152.444, 178.087)" fill="#ffffff" stroke-opacity="0" stroke="#000000" stroke-width="0" stroke-linecap="square" stroke-linejoin="bevel" d="M15.603 0L19.287 11.337L31.208 11.337L21.564 18.344L25.248 29.681L15.603 22.675L5.96 29.681L9.644 18.344L0 11.337L11.92 11.337Z" sodipodi:nodetypes="ccccccccccc"/>
  <path id="shape7" transform="translate(116.87, 178.087)" fill="#ffffff" stroke-opacity="0" stroke="#000000" stroke-width="0" stroke-linecap="square" stroke-linejoin="bevel" d="M15.604 0L19.287 11.337L31.208 11.337L21.564 18.344L25.248 29.681L15.604 22.675L5.96 29.681L9.644 18.344L0 11.337L11.92 11.337Z" sodipodi:nodetypes="ccccccccccc"/>
 </g>
</svg>
