<?xml version="1.0" standalone="no"?>
<!DOCTYPE svg PUBLIC "-//W3C//DTD SVG 20010904//EN" "http://www.w3.org/TR/2001/REC-SVG-20010904/DTD/svg10.dtd">
<!-- Created using Krita: https://krita.org -->
<svg xmlns="http://www.w3.org/2000/svg" 
    xmlns:xlink="http://www.w3.org/1999/xlink"
    xmlns:krita="http://krita.org/namespaces/svg/krita"
    xmlns:sodipodi="http://sodipodi.sourceforge.net/DTD/sodipodi-0.dtd"
    width="512pt"
    height="512pt"
    viewBox="0 0 144 144">
<defs/>
<g id="group0" transform="matrix(0.16 0 0 0.24 0 0)" fill="none">
  <path id="shape0" fill="#fe0000" fill-rule="evenodd" stroke-opacity="0" stroke="#000000" stroke-width="0" stroke-linecap="square" stroke-linejoin="bevel" d="M0 0L900 0L900 600L0 600Z" sodipodi:nodetypes="ccccc"/>
  <path id="shape1" fill="#000095" fill-rule="evenodd" stroke-opacity="0" stroke="#000000" stroke-width="0" stroke-linecap="square" stroke-linejoin="bevel" d="M0 0L450 0L450 300L0 300Z" sodipodi:nodetypes="ccccc"/>
 </g><path id="shape2" transform="matrix(0.24 0 0 0.24 9 9)" fill="#ffffff" stroke-opacity="0" stroke="#000000" stroke-width="0" stroke-linecap="square" stroke-linejoin="bevel" d="M112.5 0L56.25 209.928L209.928 56.25L0 112.5L209.928 168.75L56.25 15.072L112.5 225L168.75 15.072L15.072 168.75L225 112.5L15.072 56.25L168.75 209.928L112.5 0" sodipodi:nodetypes="ccccccccccccc"/><circle id="shape3" transform="matrix(0.24 0 0 0.24 21.6 21.6)" r="60" cx="60" cy="60" fill="#ffffff" stroke="#000095" stroke-width="7.5" stroke-linecap="butt" stroke-linejoin="miter" stroke-miterlimit="2"/>
</svg>
