<?xml version="1.0" standalone="no"?>
<!DOCTYPE svg PUBLIC "-//W3C//DTD SVG 20010904//EN" "http://www.w3.org/TR/2001/REC-SVG-20010904/DTD/svg10.dtd">
<!-- Created using Krita: https://krita.org -->
<svg xmlns="http://www.w3.org/2000/svg" 
    xmlns:xlink="http://www.w3.org/1999/xlink"
    xmlns:krita="http://krita.org/namespaces/svg/krita"
    xmlns:sodipodi="http://sodipodi.sourceforge.net/DTD/sodipodi-0.dtd"
    width="936pt"
    height="936pt"
    viewBox="0 0 936 936">
<defs/>
<path id="shape0" transform="matrix(0.127935222672065 0 0 0.24 0.719970016763339 1.77635683940025e-15)" fill="#b22234" stroke-opacity="0" stroke="#000000" stroke-width="0" stroke-linecap="square" stroke-linejoin="bevel" d="M0 0L7410 0L7410 3900L0 3900Z" sodipodi:nodetypes="ccccc"/><path id="shape1" transform="matrix(0.127935222672065 0 0 0.24 0.719970016763339 108)" fill="#000000" stroke="#ffffff" stroke-width="300" stroke-linecap="butt" stroke-linejoin="miter" stroke-miterlimit="2" d="M0 0L7410 0M7410 600L0 600M0 1200L7410 1200M7410 1800L0 1800M0 2400L7410 2400M7410 3000L0 3000" sodipodi:nodetypes="cccccccccccc"/><path id="shape2" transform="matrix(0.157894736842105 0 0 0.24 0.720000000000089 6.82787160144471e-14)" fill="#3c3b6e" stroke-opacity="0" stroke="#000000" stroke-width="0" stroke-linecap="square" stroke-linejoin="bevel" d="M0 0L2964 0L2964 2100L0 2100Z" sodipodi:nodetypes="ccccc"/><g id="group0" transform="matrix(0.157894736842105 0 0 0.24 0.720000000000089 2.12607709215717e-13)" fill="none">
  <g id="d" fill="none">
   <g id="c" fill="none">
    <g id="e" fill="none">
     <g id="b" fill="none">
      <path id="a" transform="translate(132.874, 90)" fill="#ffffff" stroke-opacity="0" stroke="#000000" stroke-width="0" stroke-linecap="square" stroke-linejoin="bevel" d="M114.126 0L184.66 217.082L0 82.918L228.253 82.918L43.592 217.082Z" sodipodi:nodetypes="cccccc"/>
      <g id="group1" transform="translate(0, 420)" fill="none">
       <path id="a1" transform="translate(132.874, 90)" fill="#ffffff" stroke-opacity="0" stroke="#000000" stroke-width="0" stroke-linecap="square" stroke-linejoin="bevel" d="M114.126 0L184.66 217.082L0 82.918L228.253 82.918L43.592 217.082Z" sodipodi:nodetypes="cccccc"/>
      </g>
      <g id="group2" transform="translate(0, 840)" fill="none">
       <path id="a2" transform="translate(132.874, 90)" fill="#ffffff" stroke-opacity="0" stroke="#000000" stroke-width="0" stroke-linecap="square" stroke-linejoin="bevel" d="M114.126 0L184.66 217.082L0 82.918L228.253 82.918L43.592 217.082Z" sodipodi:nodetypes="cccccc"/>
      </g>
      <g id="group3" transform="translate(0, 1260)" fill="none">
       <path id="a3" transform="translate(132.874, 90)" fill="#ffffff" stroke-opacity="0" stroke="#000000" stroke-width="0" stroke-linecap="square" stroke-linejoin="bevel" d="M114.126 0L184.66 217.082L0 82.918L228.253 82.918L43.592 217.082Z" sodipodi:nodetypes="cccccc"/>
      </g>
     </g>
     <g id="group4" transform="translate(0, 1680)" fill="none">
      <path id="a4" transform="translate(132.874, 90.0000000000002)" fill="#ffffff" stroke-opacity="0" stroke="#000000" stroke-width="0" stroke-linecap="square" stroke-linejoin="bevel" d="M114.126 0L184.66 217.082L0 82.918L228.253 82.918L43.592 217.082Z" sodipodi:nodetypes="cccccc"/>
     </g>
    </g>
    <g id="group5" transform="translate(247, 210)" fill="none">
     <g id="b1" fill="none">
      <path id="a5" transform="translate(132.874, 90)" fill="#ffffff" stroke-opacity="0" stroke="#000000" stroke-width="0" stroke-linecap="square" stroke-linejoin="bevel" d="M114.126 0L184.66 217.082L0 82.918L228.253 82.918L43.592 217.082Z" sodipodi:nodetypes="cccccc"/>
      <g id="group6" transform="translate(0, 420)" fill="none">
       <path id="a6" transform="translate(132.874, 90)" fill="#ffffff" stroke-opacity="0" stroke="#000000" stroke-width="0" stroke-linecap="square" stroke-linejoin="bevel" d="M114.126 0L184.66 217.082L0 82.918L228.253 82.918L43.592 217.082Z" sodipodi:nodetypes="cccccc"/>
      </g>
      <g id="group7" transform="translate(0, 840)" fill="none">
       <path id="a7" transform="translate(132.874, 90.0000000000002)" fill="#ffffff" stroke-opacity="0" stroke="#000000" stroke-width="0" stroke-linecap="square" stroke-linejoin="bevel" d="M114.126 0L184.66 217.082L0 82.918L228.253 82.918L43.592 217.082Z" sodipodi:nodetypes="cccccc"/>
      </g>
      <g id="group8" transform="translate(0, 1260)" fill="none">
       <path id="a8" transform="translate(132.874, 90)" fill="#ffffff" stroke-opacity="0" stroke="#000000" stroke-width="0" stroke-linecap="square" stroke-linejoin="bevel" d="M114.126 0L184.66 217.082L0 82.918L228.253 82.918L43.592 217.082Z" sodipodi:nodetypes="cccccc"/>
      </g>
     </g>
    </g>
   </g>
   <g id="group9" transform="translate(494, 0)" fill="none">
    <g id="c1" fill="none">
     <g id="e1" fill="none">
      <g id="b2" fill="none">
       <path id="a9" transform="translate(132.874, 90)" fill="#ffffff" stroke-opacity="0" stroke="#000000" stroke-width="0" stroke-linecap="square" stroke-linejoin="bevel" d="M114.126 0L184.66 217.082L0 82.918L228.253 82.918L43.592 217.082Z" sodipodi:nodetypes="cccccc"/>
       <g id="group10" transform="translate(0, 420)" fill="none">
        <path id="a10" transform="translate(132.874, 90)" fill="#ffffff" stroke-opacity="0" stroke="#000000" stroke-width="0" stroke-linecap="square" stroke-linejoin="bevel" d="M114.126 0L184.66 217.082L0 82.918L228.253 82.918L43.592 217.082Z" sodipodi:nodetypes="cccccc"/>
       </g>
       <g id="group11" transform="translate(0, 840)" fill="none">
        <path id="a11" transform="translate(132.874, 90)" fill="#ffffff" stroke-opacity="0" stroke="#000000" stroke-width="0" stroke-linecap="square" stroke-linejoin="bevel" d="M114.126 0L184.66 217.082L0 82.918L228.253 82.918L43.592 217.082Z" sodipodi:nodetypes="cccccc"/>
       </g>
       <g id="group12" transform="translate(0, 1260)" fill="none">
        <path id="a12" transform="translate(132.874, 90)" fill="#ffffff" stroke-opacity="0" stroke="#000000" stroke-width="0" stroke-linecap="square" stroke-linejoin="bevel" d="M114.126 0L184.66 217.082L0 82.918L228.253 82.918L43.592 217.082Z" sodipodi:nodetypes="cccccc"/>
       </g>
      </g>
      <g id="group13" transform="translate(0, 1680)" fill="none">
       <path id="a13" transform="translate(132.874, 90.0000000000002)" fill="#ffffff" stroke-opacity="0" stroke="#000000" stroke-width="0" stroke-linecap="square" stroke-linejoin="bevel" d="M114.126 0L184.66 217.082L0 82.918L228.253 82.918L43.592 217.082Z" sodipodi:nodetypes="cccccc"/>
      </g>
     </g>
     <g id="group14" transform="translate(247, 210)" fill="none">
      <g id="b3" fill="none">
       <path id="a14" transform="translate(132.874, 90)" fill="#ffffff" stroke-opacity="0" stroke="#000000" stroke-width="0" stroke-linecap="square" stroke-linejoin="bevel" d="M114.126 0L184.66 217.082L0 82.918L228.253 82.918L43.592 217.082Z" sodipodi:nodetypes="cccccc"/>
       <g id="group15" transform="translate(-2.8421709430404e-14, 420)" fill="none">
        <path id="a15" transform="translate(132.874, 90)" fill="#ffffff" stroke-opacity="0" stroke="#000000" stroke-width="0" stroke-linecap="square" stroke-linejoin="bevel" d="M114.126 0L184.66 217.082L0 82.918L228.253 82.918L43.592 217.082Z" sodipodi:nodetypes="cccccc"/>
       </g>
       <g id="group16" transform="translate(-2.8421709430404e-14, 840)" fill="none">
        <path id="a16" transform="translate(132.874, 90.0000000000002)" fill="#ffffff" stroke-opacity="0" stroke="#000000" stroke-width="0" stroke-linecap="square" stroke-linejoin="bevel" d="M114.126 0L184.66 217.082L0 82.918L228.253 82.918L43.592 217.082Z" sodipodi:nodetypes="cccccc"/>
       </g>
       <g id="group17" transform="translate(-2.8421709430404e-14, 1260)" fill="none">
        <path id="a17" transform="translate(132.874, 90)" fill="#ffffff" stroke-opacity="0" stroke="#000000" stroke-width="0" stroke-linecap="square" stroke-linejoin="bevel" d="M114.126 0L184.66 217.082L0 82.918L228.253 82.918L43.592 217.082Z" sodipodi:nodetypes="cccccc"/>
       </g>
      </g>
     </g>
    </g>
   </g>
  </g>
  <g id="group18" transform="translate(988, 0)" fill="none">
   <g id="d1" fill="none">
    <g id="c2" fill="none">
     <g id="e2" fill="none">
      <g id="b4" fill="none">
       <path id="a18" transform="translate(132.874, 90)" fill="#ffffff" stroke-opacity="0" stroke="#000000" stroke-width="0" stroke-linecap="square" stroke-linejoin="bevel" d="M114.126 0L184.66 217.082L0 82.918L228.253 82.918L43.592 217.082Z" sodipodi:nodetypes="cccccc"/>
       <g id="group19" transform="translate(0, 420)" fill="none">
        <path id="a19" transform="translate(132.874, 90)" fill="#ffffff" stroke-opacity="0" stroke="#000000" stroke-width="0" stroke-linecap="square" stroke-linejoin="bevel" d="M114.126 0L184.66 217.082L0 82.918L228.253 82.918L43.592 217.082Z" sodipodi:nodetypes="cccccc"/>
       </g>
       <g id="group20" transform="translate(0, 840)" fill="none">
        <path id="a20" transform="translate(132.874, 90)" fill="#ffffff" stroke-opacity="0" stroke="#000000" stroke-width="0" stroke-linecap="square" stroke-linejoin="bevel" d="M114.126 0L184.66 217.082L0 82.918L228.253 82.918L43.592 217.082Z" sodipodi:nodetypes="cccccc"/>
       </g>
       <g id="group21" transform="translate(0, 1260)" fill="none">
        <path id="a21" transform="translate(132.874, 90)" fill="#ffffff" stroke-opacity="0" stroke="#000000" stroke-width="0" stroke-linecap="square" stroke-linejoin="bevel" d="M114.126 0L184.66 217.082L0 82.918L228.253 82.918L43.592 217.082Z" sodipodi:nodetypes="cccccc"/>
       </g>
      </g>
      <g id="group22" transform="translate(0, 1680)" fill="none">
       <path id="a22" transform="translate(132.874, 90.0000000000002)" fill="#ffffff" stroke-opacity="0" stroke="#000000" stroke-width="0" stroke-linecap="square" stroke-linejoin="bevel" d="M114.126 0L184.66 217.082L0 82.918L228.253 82.918L43.592 217.082Z" sodipodi:nodetypes="cccccc"/>
      </g>
     </g>
     <g id="group23" transform="translate(247, 210)" fill="none">
      <g id="b5" fill="none">
       <path id="a23" transform="translate(132.874, 90)" fill="#ffffff" stroke-opacity="0" stroke="#000000" stroke-width="0" stroke-linecap="square" stroke-linejoin="bevel" d="M114.126 0L184.66 217.082L0 82.918L228.253 82.918L43.592 217.082Z" sodipodi:nodetypes="cccccc"/>
       <g id="group24" transform="translate(0, 420)" fill="none">
        <path id="a24" transform="translate(132.874, 90)" fill="#ffffff" stroke-opacity="0" stroke="#000000" stroke-width="0" stroke-linecap="square" stroke-linejoin="bevel" d="M114.126 0L184.66 217.082L0 82.918L228.253 82.918L43.592 217.082Z" sodipodi:nodetypes="cccccc"/>
       </g>
       <g id="group25" transform="translate(0, 840)" fill="none">
        <path id="a25" transform="translate(132.874, 90.0000000000002)" fill="#ffffff" stroke-opacity="0" stroke="#000000" stroke-width="0" stroke-linecap="square" stroke-linejoin="bevel" d="M114.126 0L184.66 217.082L0 82.918L228.253 82.918L43.592 217.082Z" sodipodi:nodetypes="cccccc"/>
       </g>
       <g id="group26" transform="translate(0, 1260)" fill="none">
        <path id="a26" transform="translate(132.874, 90)" fill="#ffffff" stroke-opacity="0" stroke="#000000" stroke-width="0" stroke-linecap="square" stroke-linejoin="bevel" d="M114.126 0L184.66 217.082L0 82.918L228.253 82.918L43.592 217.082Z" sodipodi:nodetypes="cccccc"/>
       </g>
      </g>
     </g>
    </g>
    <g id="group27" transform="translate(494, 0)" fill="none">
     <g id="c3" fill="none">
      <g id="e3" fill="none">
       <g id="b6" fill="none">
        <path id="a27" transform="translate(132.874, 90)" fill="#ffffff" stroke-opacity="0" stroke="#000000" stroke-width="0" stroke-linecap="square" stroke-linejoin="bevel" d="M114.126 0L184.66 217.082L0 82.918L228.253 82.918L43.592 217.082Z" sodipodi:nodetypes="cccccc"/>
        <g id="group28" transform="translate(-5.6843418860808e-14, 420)" fill="none">
         <path id="a28" transform="translate(132.874, 90)" fill="#ffffff" stroke-opacity="0" stroke="#000000" stroke-width="0" stroke-linecap="square" stroke-linejoin="bevel" d="M114.126 0L184.66 217.082L0 82.918L228.253 82.918L43.592 217.082Z" sodipodi:nodetypes="cccccc"/>
        </g>
        <g id="group29" transform="translate(-5.6843418860808e-14, 840)" fill="none">
         <path id="a29" transform="translate(132.874, 90)" fill="#ffffff" stroke-opacity="0" stroke="#000000" stroke-width="0" stroke-linecap="square" stroke-linejoin="bevel" d="M114.126 0L184.66 217.082L0 82.918L228.253 82.918L43.592 217.082Z" sodipodi:nodetypes="cccccc"/>
        </g>
        <g id="group30" transform="translate(-5.6843418860808e-14, 1260)" fill="none">
         <path id="a30" transform="translate(132.874, 90)" fill="#ffffff" stroke-opacity="0" stroke="#000000" stroke-width="0" stroke-linecap="square" stroke-linejoin="bevel" d="M114.126 0L184.66 217.082L0 82.918L228.253 82.918L43.592 217.082Z" sodipodi:nodetypes="cccccc"/>
        </g>
       </g>
       <g id="group31" transform="translate(-5.6843418860808e-14, 1680)" fill="none">
        <path id="a31" transform="translate(132.874, 90.0000000000002)" fill="#ffffff" stroke-opacity="0" stroke="#000000" stroke-width="0" stroke-linecap="square" stroke-linejoin="bevel" d="M114.126 0L184.66 217.082L0 82.918L228.253 82.918L43.592 217.082Z" sodipodi:nodetypes="cccccc"/>
       </g>
      </g>
      <g id="group32" transform="translate(247, 210)" fill="none">
       <g id="b7" fill="none">
        <path id="a32" transform="translate(132.874, 90)" fill="#ffffff" stroke-opacity="0" stroke="#000000" stroke-width="0" stroke-linecap="square" stroke-linejoin="bevel" d="M114.126 0L184.66 217.082L0 82.918L228.253 82.918L43.592 217.082Z" sodipodi:nodetypes="cccccc"/>
        <g id="group33" transform="translate(0, 420)" fill="none">
         <path id="a33" transform="translate(132.874, 90)" fill="#ffffff" stroke-opacity="0" stroke="#000000" stroke-width="0" stroke-linecap="square" stroke-linejoin="bevel" d="M114.126 0L184.66 217.082L0 82.918L228.253 82.918L43.592 217.082Z" sodipodi:nodetypes="cccccc"/>
        </g>
        <g id="group34" transform="translate(0, 840)" fill="none">
         <path id="a34" transform="translate(132.874, 90.0000000000002)" fill="#ffffff" stroke-opacity="0" stroke="#000000" stroke-width="0" stroke-linecap="square" stroke-linejoin="bevel" d="M114.126 0L184.66 217.082L0 82.918L228.253 82.918L43.592 217.082Z" sodipodi:nodetypes="cccccc"/>
        </g>
        <g id="group35" transform="translate(0, 1260)" fill="none">
         <path id="a35" transform="translate(132.874, 90)" fill="#ffffff" stroke-opacity="0" stroke="#000000" stroke-width="0" stroke-linecap="square" stroke-linejoin="bevel" d="M114.126 0L184.66 217.082L0 82.918L228.253 82.918L43.592 217.082Z" sodipodi:nodetypes="cccccc"/>
        </g>
       </g>
      </g>
     </g>
    </g>
   </g>
  </g>
  <g id="group36" transform="translate(1976, 0)" fill="none">
   <g id="c4" fill="none">
    <g id="e4" fill="none">
     <g id="b8" fill="none">
      <path id="a36" transform="translate(132.874, 90)" fill="#ffffff" stroke-opacity="0" stroke="#000000" stroke-width="0" stroke-linecap="square" stroke-linejoin="bevel" d="M114.126 0L184.66 217.082L0 82.918L228.253 82.918L43.592 217.082Z" sodipodi:nodetypes="cccccc"/>
      <g id="group37" transform="translate(0, 420)" fill="none">
       <path id="a37" transform="translate(132.874, 90)" fill="#ffffff" stroke-opacity="0" stroke="#000000" stroke-width="0" stroke-linecap="square" stroke-linejoin="bevel" d="M114.126 0L184.66 217.082L0 82.918L228.253 82.918L43.592 217.082Z" sodipodi:nodetypes="cccccc"/>
      </g>
      <g id="group38" transform="translate(0, 840)" fill="none">
       <path id="a38" transform="translate(132.874, 90)" fill="#ffffff" stroke-opacity="0" stroke="#000000" stroke-width="0" stroke-linecap="square" stroke-linejoin="bevel" d="M114.126 0L184.66 217.082L0 82.918L228.253 82.918L43.592 217.082Z" sodipodi:nodetypes="cccccc"/>
      </g>
      <g id="group39" transform="translate(0, 1260)" fill="none">
       <path id="a39" transform="translate(132.874, 90)" fill="#ffffff" stroke-opacity="0" stroke="#000000" stroke-width="0" stroke-linecap="square" stroke-linejoin="bevel" d="M114.126 0L184.66 217.082L0 82.918L228.253 82.918L43.592 217.082Z" sodipodi:nodetypes="cccccc"/>
      </g>
     </g>
     <g id="group40" transform="translate(0, 1680)" fill="none">
      <path id="a40" transform="translate(132.874, 90.0000000000002)" fill="#ffffff" stroke-opacity="0" stroke="#000000" stroke-width="0" stroke-linecap="square" stroke-linejoin="bevel" d="M114.126 0L184.66 217.082L0 82.918L228.253 82.918L43.592 217.082Z" sodipodi:nodetypes="cccccc"/>
     </g>
    </g>
    <g id="group41" transform="translate(247, 210)" fill="none">
     <g id="b9" fill="none">
      <path id="a41" transform="translate(132.874, 90)" fill="#ffffff" stroke-opacity="0" stroke="#000000" stroke-width="0" stroke-linecap="square" stroke-linejoin="bevel" d="M114.126 0L184.66 217.082L0 82.918L228.253 82.918L43.592 217.082Z" sodipodi:nodetypes="cccccc"/>
      <g id="group42" transform="translate(0, 420)" fill="none">
       <path id="a42" transform="translate(132.874, 90)" fill="#ffffff" stroke-opacity="0" stroke="#000000" stroke-width="0" stroke-linecap="square" stroke-linejoin="bevel" d="M114.126 0L184.66 217.082L0 82.918L228.253 82.918L43.592 217.082Z" sodipodi:nodetypes="cccccc"/>
      </g>
      <g id="group43" transform="translate(0, 840)" fill="none">
       <path id="a43" transform="translate(132.874, 90.0000000000002)" fill="#ffffff" stroke-opacity="0" stroke="#000000" stroke-width="0" stroke-linecap="square" stroke-linejoin="bevel" d="M114.126 0L184.66 217.082L0 82.918L228.253 82.918L43.592 217.082Z" sodipodi:nodetypes="cccccc"/>
      </g>
      <g id="group44" transform="translate(0, 1260)" fill="none">
       <path id="a44" transform="translate(132.874, 90)" fill="#ffffff" stroke-opacity="0" stroke="#000000" stroke-width="0" stroke-linecap="square" stroke-linejoin="bevel" d="M114.126 0L184.66 217.082L0 82.918L228.253 82.918L43.592 217.082Z" sodipodi:nodetypes="cccccc"/>
      </g>
     </g>
    </g>
   </g>
  </g>
  <g id="group45" transform="translate(2470, 0)" fill="none">
   <g id="e5" fill="none">
    <g id="b10" fill="none">
     <path id="a45" transform="translate(132.874, 90)" fill="#ffffff" stroke-opacity="0" stroke="#000000" stroke-width="0" stroke-linecap="square" stroke-linejoin="bevel" d="M114.126 0L184.66 217.082L0 82.918L228.253 82.918L43.592 217.082Z" sodipodi:nodetypes="cccccc"/>
     <g id="group46" transform="translate(0, 420)" fill="none">
      <path id="a46" transform="translate(132.874, 90)" fill="#ffffff" stroke-opacity="0" stroke="#000000" stroke-width="0" stroke-linecap="square" stroke-linejoin="bevel" d="M114.126 0L184.66 217.082L0 82.918L228.253 82.918L43.592 217.082Z" sodipodi:nodetypes="cccccc"/>
     </g>
     <g id="group47" transform="translate(0, 840)" fill="none">
      <path id="a47" transform="translate(132.874, 90)" fill="#ffffff" stroke-opacity="0" stroke="#000000" stroke-width="0" stroke-linecap="square" stroke-linejoin="bevel" d="M114.126 0L184.66 217.082L0 82.918L228.253 82.918L43.592 217.082Z" sodipodi:nodetypes="cccccc"/>
     </g>
     <g id="group48" transform="translate(0, 1260)" fill="none">
      <path id="a48" transform="translate(132.874, 90)" fill="#ffffff" stroke-opacity="0" stroke="#000000" stroke-width="0" stroke-linecap="square" stroke-linejoin="bevel" d="M114.126 0L184.66 217.082L0 82.918L228.253 82.918L43.592 217.082Z" sodipodi:nodetypes="cccccc"/>
     </g>
    </g>
    <g id="group49" transform="translate(0, 1680)" fill="none">
     <path id="a49" transform="translate(132.874, 90.0000000000002)" fill="#ffffff" stroke-opacity="0" stroke="#000000" stroke-width="0" stroke-linecap="square" stroke-linejoin="bevel" d="M114.126 0L184.66 217.082L0 82.918L228.253 82.918L43.592 217.082Z" sodipodi:nodetypes="cccccc"/>
    </g>
   </g>
  </g>
 </g>
</svg>
