<?xml version="1.0" standalone="no"?>
<!DOCTYPE svg PUBLIC "-//W3C//DTD SVG 20010904//EN" "http://www.w3.org/TR/2001/REC-SVG-20010904/DTD/svg10.dtd">
<!-- Created using Krita: https://krita.org -->
<svg xmlns="http://www.w3.org/2000/svg" 
    xmlns:xlink="http://www.w3.org/1999/xlink"
    xmlns:krita="http://krita.org/namespaces/svg/krita"
    xmlns:sodipodi="http://sodipodi.sourceforge.net/DTD/sodipodi-0.dtd"
    width="512pt"
    height="512pt"
    viewBox="0 0 144 144">
<defs/>
<path id="shape0" transform="matrix(4.8 0 0 4.8 -4.78027288863814e-09 -1.81655934738956e-09)" fill="#da251d" stroke-opacity="0" stroke="#000000" stroke-width="0" stroke-linecap="square" stroke-linejoin="bevel" d="M0 0L30 0L30 30L0 30Z" sodipodi:nodetypes="ccccc"/><g id="b" transform="matrix(4.8 0 0 4.8 71.9999999997762 43.1999999996435)" fill="none">
  <path id="a" transform="matrix(0.951056516295153 0.309016994374947 -0.309016994374947 0.951056516295153 0 2.22044604925031e-16)" fill="#ffff00" stroke-opacity="0" stroke="#000000" stroke-width="0" stroke-linecap="square" stroke-linejoin="bevel" d="M0 0L0 6L4 6" sodipodi:nodetypes="ccc"/>
  <g id="group0" transform="matrix(-1 0 0 1 0 0)" fill="none">
   <path id="a1" transform="matrix(0.951056516295154 0.309016994374947 -0.309016994374947 0.951056516295154 8.88178419700125e-16 3.33066907387547e-16)" fill="#ffff00" stroke-opacity="0" stroke="#000000" stroke-width="0" stroke-linecap="square" stroke-linejoin="bevel" d="M0 0L0 6L4 6" sodipodi:nodetypes="ccc"/>
  </g>
 </g><g id="c" transform="matrix(1.48328157299975 4.56507127821673 -4.56507127821674 1.48328157299975 71.9999999997763 71.9999999998321)" fill="none">
  <g id="group1" fill="none">
   <g id="b1" transform="translate(-8.88178419700125e-16, -6)" fill="none">
    <path id="a2" transform="matrix(0.951056516295153 0.309016994374947 -0.309016994374947 0.951056516295153 -8.88178419700125e-16 -3.10862446895044e-15)" fill="#ffff00" stroke-opacity="0" stroke="#000000" stroke-width="0" stroke-linecap="square" stroke-linejoin="bevel" d="M0 0L0 6L4 6" sodipodi:nodetypes="ccc"/>
    <g id="group2" transform="matrix(-1 5.55111512312578e-17 5.55111512312578e-17 1 -8.88178419700125e-16 -3.5527136788005e-15)" fill="none">
     <path id="a3" transform="matrix(0.951056516295153 0.309016994374947 -0.309016994374947 0.951056516295153 2.66453525910038e-15 -2.88657986402541e-15)" fill="#ffff00" stroke-opacity="0" stroke="#000000" stroke-width="0" stroke-linecap="square" stroke-linejoin="bevel" d="M0 0L0 6L4 6" sodipodi:nodetypes="ccc"/>
    </g>
   </g>
  </g>
  <g id="group3" transform="matrix(0.309016994374948 0.951056516295153 -0.951056516295153 0.309016994374948 -8.88178419700125e-16 4.44089209850063e-16)" fill="none">
   <g id="b2" transform="translate(-1.77635683940025e-15, -6)" fill="none">
    <path id="a4" transform="matrix(0.951056516295154 0.309016994374947 -0.309016994374947 0.951056516295154 -2.66453525910038e-15 -3.10862446895044e-15)" fill="#ffff00" stroke-opacity="0" stroke="#000000" stroke-width="0" stroke-linecap="square" stroke-linejoin="bevel" d="M0 0L0 6L4 6" sodipodi:nodetypes="ccc"/>
    <g id="group4" transform="matrix(-1 0 0 1 -1.77635683940025e-15 -2.22044604925031e-15)" fill="none">
     <path id="a5" transform="matrix(0.951056516295153 0.309016994374947 -0.309016994374947 0.951056516295153 2.66453525910038e-15 -3.5527136788005e-15)" fill="#ffff00" stroke-opacity="0" stroke="#000000" stroke-width="0" stroke-linecap="square" stroke-linejoin="bevel" d="M0 0L0 6L4 6" sodipodi:nodetypes="ccc"/>
    </g>
   </g>
  </g>
 </g><g id="group5" transform="matrix(-4.8 0 0 4.8 71.9999999997762 71.9999999998322)" fill="none">
  <g id="c1" transform="matrix(0.309016994374947 0.951056516295153 -0.951056516295153 0.309016994374947 8.88178419700125e-16 4.44089209850063e-16)" fill="none">
   <g id="group6" fill="none">
    <g id="b3" transform="translate(8.88178419700125e-16, -6)" fill="none">
     <path id="a6" transform="matrix(0.951056516295153 0.309016994374947 -0.309016994374947 0.951056516295153 0 2.22044604925031e-16)" fill="#ffff00" stroke-opacity="0" stroke="#000000" stroke-width="0" stroke-linecap="square" stroke-linejoin="bevel" d="M0 0L0 6L4 6" sodipodi:nodetypes="ccc"/>
     <g id="group7" transform="matrix(-1 -5.55111512312578e-17 -5.55111512312578e-17 1 -4.44089209850063e-16 0)" fill="none">
      <path id="a7" transform="matrix(0.951056516295153 0.309016994374948 -0.309016994374948 0.951056516295153 4.44089209850063e-16 4.44089209850063e-16)" fill="#ffff00" stroke-opacity="0" stroke="#000000" stroke-width="0" stroke-linecap="square" stroke-linejoin="bevel" d="M0 0L0 6L4 6" sodipodi:nodetypes="ccc"/>
     </g>
    </g>
   </g>
   <g id="group8" transform="matrix(0.309016994374947 0.951056516295153 -0.951056516295153 0.309016994374947 0 3.5527136788005e-15)" fill="none">
    <g id="b4" transform="translate(4.44089209850063e-16, -6)" fill="none">
     <path id="a8" transform="matrix(0.951056516295153 0.309016994374947 -0.309016994374947 0.951056516295153 4.44089209850063e-16 4.44089209850063e-16)" fill="#ffff00" stroke-opacity="0" stroke="#000000" stroke-width="0" stroke-linecap="square" stroke-linejoin="bevel" d="M0 0L0 6L4 6" sodipodi:nodetypes="ccc"/>
     <g id="group9" transform="matrix(-1 0 0 1 4.44089209850063e-16 4.44089209850063e-16)" fill="none">
      <path id="a9" transform="matrix(0.951056516295153 0.309016994374947 -0.309016994374947 0.951056516295153 -4.44089209850063e-16 -4.44089209850063e-16)" fill="#ffff00" stroke-opacity="0" stroke="#000000" stroke-width="0" stroke-linecap="square" stroke-linejoin="bevel" d="M0 0L0 6L4 6" sodipodi:nodetypes="ccc"/>
     </g>
    </g>
   </g>
  </g>
 </g>
</svg>
