<?xml version="1.0" standalone="no"?>
<!DOCTYPE svg PUBLIC "-//W3C//DTD SVG 20010904//EN" "http://www.w3.org/TR/2001/REC-SVG-20010904/DTD/svg10.dtd">
<!-- Created using Krita: https://krita.org -->
<svg xmlns="http://www.w3.org/2000/svg" 
    xmlns:xlink="http://www.w3.org/1999/xlink"
    xmlns:krita="http://krita.org/namespaces/svg/krita"
    xmlns:sodipodi="http://sodipodi.sourceforge.net/DTD/sodipodi-0.dtd"
    width="512pt"
    height="512pt"
    viewBox="0 0 175 175">
<defs/>
<path id="shape0" transform="translate(12.6917160756188, 7.17468617634452)" fill="#87ceeb" fill-rule="evenodd" stroke="#000000" stroke-width="1" stroke-linecap="square" stroke-linejoin="bevel" d="M2.8895 0L0 71.9923C3.26929 72.7368 7.59225 73.3495 9.67293 74.2426C15.5036 78.6836 13.3049 80.3007 15.9647 83.3297C19.9315 80.5699 22.8107 81.2704 24.9456 84.3392L25.1093 90.5646L34.4403 96.9552L40.3881 104.282L42.407 104.778C43.4706 103.097 44.3255 102.316 46.2813 101.418L47.6455 102.024L50.9741 103.07L57.5221 106.596L59.4319 107.423L75.42 108.304L76.4022 109.186L80.5493 120.039L97.9562 132.985L103.304 111.775L105.868 106.376L110.125 100.426L111.652 97.5612L116.618 85.7716L121.693 78.6648L125.021 74.6982L135.444 66.1953L139.7 61.0906L142.21 55.967L145.648 45.114L151.159 31.2309L157.052 17.5682L158.471 12.3895L158.198 6.99056L157.27 2.74851C153.009 2.9134 148.747 2.96956 144.486 3.24318C142.485 3.73333 141.051 5.53726 140.185 8.65497C137.711 10.2439 135.371 11.6164 133.164 12.7724C132.356 12.9262 130.79 12.961 128.467 12.8767C126.955 10.77 125.561 8.65047 124.285 6.51805C123.049 6.39417 121.793 6.35942 120.517 6.41381C118.431 5.20074 116.177 4.17572 113.754 3.33874C112.647 3.66095 111.666 4.06053 110.811 4.5375C109.372 4.68816 107.513 4.80977 105.236 4.90234C103.524 6.04109 101.735 7.15298 99.8673 8.23801C70.7401 5.1932 18.1435 0.429883 2.8895 0Z" sodipodi:nodetypes="ccccccccccccccccccccccccccccccccccccccccccccc"/>
</svg>
