<?xml version="1.0" standalone="no"?>
<!DOCTYPE svg PUBLIC "-//W3C//DTD SVG 20010904//EN" "http://www.w3.org/TR/2001/REC-SVG-20010904/DTD/svg10.dtd">
<!-- Created using Krita: https://krita.org -->
<svg xmlns="http://www.w3.org/2000/svg" 
    xmlns:xlink="http://www.w3.org/1999/xlink"
    xmlns:krita="http://krita.org/namespaces/svg/krita"
    xmlns:sodipodi="http://sodipodi.sourceforge.net/DTD/sodipodi-0.dtd"
    width="512pt"
    height="512pt"
    viewBox="0 0 144 144">
<defs/>
<path id="shape0" transform="translate(1.21702040789899, 1.33462694100007)" fill="#73182c" fill-rule="evenodd" stroke="#000000" stroke-width="1.2" stroke-linecap="square" stroke-linejoin="bevel" d="M1.44 44.0107L0 110.611L18 111.571L17.4 134.491L63.36 138.271C64.8447 138.799 66.0451 139.2 67.44 138.271L71.7 137.011C73.2124 135.37 73.9294 137.198 75.84 137.251L79.2 137.251L81.36 141.211L83.76 141.331L85.68 139.891L87.6 137.851L90.84 136.291L94.8 136.171L95.04 122.131L96.48 119.971C94.9308 113.189 90.0471 107.271 85.56 101.251L83.52 100.771L83.4 93.5707L79.4356 91.5997C78.516 92.9533 78.6057 95.2335 76.14 89.4907C76.9241 84.4261 74.2902 81.5816 71.91 78.6007C74.3299 75.5584 69.95 74.3607 68.97 72.2407C66.5812 71.5089 65.7547 70.152 65.0318 68.7538C62.9902 69.0598 62.3825 67.8301 61.9559 66.6325C59.6516 67.922 59.5247 65.254 57 63.6307L55.44 58.8907L55.62 48.6307C53.3534 47.1374 52.0135 45.1373 53.704 41.982C51.7621 40.6605 51.1118 39.3923 52.29 33.8707L48 28.8935L45.9187 28.3844L43.458 29.2329L41.2518 24.6508L40.9124 18.3717C39.7462 17.7078 40.4692 17.0879 40.98 15.7807L39.18 12.9007C39.2215 10.1353 39.2467 9.6333 37.2637 9.12278L36.4152 5.64382L36.2455 2.41941C35.8001 0.488915 34.5713 -1.76653 32.9362 2.16485L32.2574 6.66205L28.6936 12.1775L29.7967 14.0442L27.4208 19.6445L27.336 26.6873C25.2949 28.5069 26.4321 29.065 27.4208 29.9966L17.9173 51.8886L13.5049 51.7189L8.4 49.5307L8.07436 46.8823Z" sodipodi:nodetypes="ccccccccccccccccccccccccccccccccccccccccccccccccccccc"/>
</svg>
