<?xml version="1.0" standalone="no"?>
<!DOCTYPE svg PUBLIC "-//W3C//DTD SVG 20010904//EN" "http://www.w3.org/TR/2001/REC-SVG-20010904/DTD/svg10.dtd">
<!-- Created using Krita: https://krita.org -->
<svg xmlns="http://www.w3.org/2000/svg" 
    xmlns:xlink="http://www.w3.org/1999/xlink"
    xmlns:krita="http://krita.org/namespaces/svg/krita"
    xmlns:sodipodi="http://sodipodi.sourceforge.net/DTD/sodipodi-0.dtd"
    width="512pt"
    height="512pt"
    viewBox="0 0 144 144">
<defs/>
<path id="shape0" transform="translate(8.76000011238061, 1.26000007924643)" fill="#9c00ff" fill-rule="evenodd" stroke="#000000" stroke-width="0.72" stroke-linecap="square" stroke-linejoin="bevel" d="M1.2 4.74L7.44 0L55.98 23.82L60.0556 23.3897C72.9675 21.3521 84.0308 21.0738 95.9908 19.6138L111.72 10.68L122.34 21.3C120.753 35.5585 120.92 50.7909 117.48 64.02L103.56 86.94L102.906 91.3993L102.48 103.5L94.92 121.26L89.88 109.5L83.04 107.7L67.68 133.5C64.98 135.66 61.9858 137.25 58.68 137.82C55.52 138.22 46.8543 132.745 44.88 132.54C42.58 132.57 38.33 136.23 36.36 136.14C35.33 136.23 34.51 135.72 33.72 135.06C33.0629 134.463 33.96 127.14 34.08 123.18L15.48 96.3C14.36 90.54 12.2685 81.48 12.12 79.02C12.53 77.16 16.36 72.27 16.68 70.74C16.3809 68.2157 5.56 43.46 0 29.82Z" sodipodi:nodetypes="ccccccccccccccccccccccccc"/>
</svg>
