<?xml version="1.0" standalone="no"?>
<!DOCTYPE svg PUBLIC "-//W3C//DTD SVG 20010904//EN" "http://www.w3.org/TR/2001/REC-SVG-20010904/DTD/svg10.dtd">
<!-- Created using Krita: https://krita.org -->
<svg xmlns="http://www.w3.org/2000/svg" 
    xmlns:xlink="http://www.w3.org/1999/xlink"
    xmlns:krita="http://krita.org/namespaces/svg/krita"
    xmlns:sodipodi="http://sodipodi.sourceforge.net/DTD/sodipodi-0.dtd"
    width="144pt"
    height="144pt"
    viewBox="0 0 144 144">
<defs/>
<rect id="shape0" transform="matrix(0.407567405541085 0 0 0.407567405541085 7.105427357601e-15 2.1316282072803e-14)" fill="#0052b4" stroke-opacity="0" stroke="#000000" stroke-width="0" stroke-linecap="square" stroke-linejoin="bevel" width="353.315790326329" height="353.315790326329"/><path id="shape2" transform="matrix(1.75374497624609 0 0 1.75438596491228 55.1640482280375 48.421052631579)" fill="#ffffff" fill-rule="evenodd" stroke-opacity="0" stroke="#000000" stroke-width="0" stroke-linecap="square" stroke-linejoin="bevel" d="M9.6 7.93212L0 0Z" sodipodi:nodetypes="ccc"/><path id="shape3" transform="matrix(1.75374497624609 0 0 1.75438596491228 42 46.08)" fill="#ffffff" fill-rule="evenodd" stroke-opacity="0" stroke="#000000" stroke-width="0" stroke-linecap="square" stroke-linejoin="bevel" d="M12.7864 14.7744L17.1063 14.7744L17.1063 9.2094L7.50625 1.3344L0 0L1.02625 4.9344Z" sodipodi:nodetypes="ccccccc"/><path id="shape4" transform="matrix(1.75374497624609 0 0 1.75438596491228 3.90798504668055e-14 45.36)" fill="#ffffff" fill-rule="evenodd" stroke-opacity="0" stroke="#000000" stroke-width="0" stroke-linecap="square" stroke-linejoin="bevel" d="M0 15.1848L2.19 15.1848L16.095 3.4248L17.1279 0C13.8236 0.5816 10.5193 1.1632 7.215 1.7448L0.015 7.9998Z" sodipodi:nodetypes="ccccccc"/><path id="shape5" transform="matrix(1.75374497624609 0 0 1.75438596491228 0.0263061748603661 -1.06581410364015e-14)" fill="#ffffff" fill-rule="evenodd" stroke-opacity="0" stroke="#000000" stroke-width="0" stroke-linecap="square" stroke-linejoin="bevel" d="M0 0L4.32749 0L16.08 9.84L17.0912 15.1848L9.36 13.44L0 5.55Z" sodipodi:nodetypes="ccccccc"/><path id="shape6" transform="matrix(1.75374497624609 0 0 1.75438596491228 42.24 -1.06581410364015e-14)" fill="#ffffff" fill-rule="evenodd" stroke-opacity="0" stroke="#000000" stroke-width="0" stroke-linecap="square" stroke-linejoin="bevel" d="M16.9694 0.0318198L14.8238 0L0.8894 11.76L0 15.4584L9.7694 13.44L16.9694 7.47Z" sodipodi:nodetypes="ccccccc"/><path id="shape7" transform="matrix(1.75374497624609 0 0 1.75438596491228 0.0263061748603874 -2.8421709430404e-14)" fill="#ffffff" fill-rule="evenodd" stroke-opacity="0" stroke="#000000" stroke-width="0" stroke-linecap="square" stroke-linejoin="bevel" d="M16.08 0L16.08 13.44L0 13.4227L0 27.609L16.08 27.6L16.0725 41.04L24.96 41.04L24.96 31.1925L24.96 27.6L41.04 27.6L41.04 13.47L33.8325 13.44L24.96 13.44L24.9375 0Z" sodipodi:nodetypes="ccccccccccccccc"/><g id="group0" transform="matrix(0.281147241504451 0 0 0.421052631895188 0.363682864665403 1.28472943572433e-06)" fill="none">
  <path id="shape05" transform="translate(154.6, 115)" fill="#d80027" stroke-opacity="0" stroke="#000000" stroke-width="0" stroke-linecap="square" stroke-linejoin="bevel" d="M0 0L100.2 55.7L100.2 39.9L28.4 0Z" sodipodi:nodetypes="ccccc"/>
  <path id="shape11" transform="translate(-1.2, 115)" fill="#d80027" stroke-opacity="0" stroke="#000000" stroke-width="0" stroke-linecap="square" stroke-linejoin="bevel" d="M71.9 0L0 39.9L0 55.7L0 55.7L100.2 0Z" sodipodi:nodetypes="cccccc"/>
 </g><g id="group1" transform="matrix(0.281147241504451 0 0 0.421052631895188 0.363682864665403 1.28472948901504e-06)" fill="none">
  <path id="shape21" transform="translate(-1.2, 0)" fill="#d80027" stroke-opacity="0" stroke="#000000" stroke-width="0" stroke-linecap="square" stroke-linejoin="bevel" d="M100.2 55.7L0 0L0 15.7L71.9 55.7Z" sodipodi:nodetypes="ccccc"/>
  <path id="shape31" transform="translate(154.6, 0)" fill="#d80027" stroke-opacity="0" stroke="#000000" stroke-width="0" stroke-linecap="square" stroke-linejoin="bevel" d="M28.4 55.7L100.2 15.7L100.2 0L100.2 0L0 55.7Z" sodipodi:nodetypes="cccccc"/>
 </g><path id="shape06" transform="matrix(0.420898794615186 0 0 0.421052631895188 0.0263061748603626 1.28472943572433e-06)" fill="#d80027" stroke-opacity="0" stroke="#000000" stroke-width="0" stroke-linecap="square" stroke-linejoin="bevel" d="M96.1876 0L74.8126 0L74.8126 69.3L9.49241e-15 69.3L9.49241e-15 101.3L74.8126 101.3L74.8126 170.7L96.1876 170.7L96.1876 101.3L171 101.3L171 69.3L96.1876 69.3Z" sodipodi:nodetypes="ccccccccccccc"/><path id="shape0" transform="matrix(0.24 0 0 0.24 0 -1.4210854715202e-14)" fill="#69b3e7" stroke-opacity="0" stroke="#000000" stroke-width="0" stroke-linecap="square" stroke-linejoin="bevel" d="M0 300L300 300L300 0L600 0L600 600L0 600Z" sodipodi:nodetypes="ccccccc"/><g id="group0" transform="matrix(0.191974311317045 0 0 0.191974311317045 -64.7768801853407 14.1792250635655)" fill="none">
  <path id="shape1" transform="translate(778.8, 143.94)" fill="#ffffff" stroke-opacity="0" stroke="#000000" stroke-width="0" stroke-linecap="square" stroke-linejoin="bevel" d="M0 0L0 205.09C0 272.17 121.2 312 121.2 312C121.2 312 242.4 272.167 242.4 205.09L242.4 0Z" sodipodi:nodetypes="cccccc"/>
  <path id="shape2" transform="translate(778.8, 216)" fill="#c8102e" stroke-opacity="0" stroke="#000000" stroke-width="0" stroke-linecap="square" stroke-linejoin="bevel" d="M104.4 0L104.4 92.344L0 92.344L0 125.944L104.4 125.944L104.4 233.544L121.2 239.94L138 233.544L138 125.944L242.4 125.944L242.4 92.344L138 92.344L138 0Z" sodipodi:nodetypes="cccccccccccccc"/>
  <path id="shape3" transform="translate(778.8, 143.94)" fill="#c8102e" stroke-opacity="0" stroke="#000000" stroke-width="0" stroke-linecap="square" stroke-linejoin="bevel" d="M0 0L242.4 0L242.4 79.2L0 79.2Z" sodipodi:nodetypes="ccccc"/>
  <g id="group1" fill="none">
   <g id="group2" fill="none">
    <ellipse id="shape4" transform="translate(784.607, 181.25)" rx="13.623" ry="10.962" cx="13.623" cy="10.962" fill="#ffffff" stroke="#000000" stroke-width="0.803" stroke-linecap="butt" stroke-linejoin="miter" stroke-miterlimit="3"/>
    <ellipse id="shape5" transform="translate(786.116, 180.402)" rx="12.114" ry="6.123" cx="12.114" cy="6.123" fill="#ffffff" stroke="#000000" stroke-width="0.805" stroke-linecap="butt" stroke-linejoin="miter" stroke-miterlimit="3"/>
    <ellipse id="shape6" transform="translate(786.116, 192.646)" rx="12.114" ry="6.123" cx="12.114" cy="6.123" fill="#ffffff" stroke="#000000" stroke-width="0.805" stroke-linecap="butt" stroke-linejoin="miter" stroke-miterlimit="3"/>
    <ellipse id="shape7" transform="translate(786.116, 186.09)" rx="12.114" ry="6.123" cx="12.114" cy="6.123" fill="#ffffff" stroke="#000000" stroke-width="0.805" stroke-linecap="butt" stroke-linejoin="miter" stroke-miterlimit="3"/>
   </g>
   <path id="shape8" transform="translate(789.525280421521, 147.254)" fill="#fedd00" stroke="#000000" stroke-width="1.2" stroke-linecap="butt" stroke-linejoin="miter" stroke-miterlimit="3" d="M225.675 60.176L223.69 54.7C223.69 54.7 218.257 52.484 217.843 49.598C216.875 41.904 214.129 39.02 210.013 37.92C205.888 36.82 203.145 38.609 203.145 38.609C201.905 40.396 195.719 40.396 192.286 40.53C188.852 40.67 188.793 39.038 188.793 39.038C186.125 39.058 185.003 37.097 185.003 37.097C183.257 33.61 181.958 32.305 181.095 31.864C185.552 31.93 188.908 29.873 193.939 24.594C199.432 18.822 203.354 21.054 203.354 21.054C200.688 26.444 204.241 25.967 204.241 25.967C211.521 22.261 205.201 12.916 203.004 13.329C200.806 13.739 200.179 12.259 200.179 12.259C200.246 13.937 197.739 14.604 197.739 14.604C199.619 3.93 193.25 1.1 193.25 1.1C192.286 2.062 191.734 3.984 191.734 3.984C189.951 10.442 184.044 9.481 177.444 6.319C170.852 3.161 153.265 9.619 147.772 11.816C142.272 14.015 132.244 17.45 123.176 12.366C114.112 7.279 111.907 8.242 108.337 9.206C104.763 10.166 98.4487 11.681 96.1147 10.441C93.7767 9.205 91.1127 9.128 91.1127 9.128C91.7487 8.773 90.7547 7.282 90.7547 7.282C88.0077 3.574 91.1127 1.301 91.1127 1.301C91.1127 1.301 85.9977 2.741 88.0327 11.47L88.9667 12.779C88.9667 12.779 89.6517 15.525 91.1667 16.35L91.1127 16.951C91.1127 16.951 92.4057 16.351 92.8127 18.135C93.2307 19.92 95.1527 18.273 95.9767 16.763C95.9767 16.763 94.6007 24.733 104.497 26.655C104.497 26.655 103.39 25.417 103.804 24.593C104.214 23.769 102.57 23.076 102.709 21.843C102.845 20.611 100.239 20.061 102.295 19.095C104.353 18.133 105.321 16.209 109.715 18.82C114.109 21.431 117.549 20.884 117.549 20.884C117.549 20.884 114.868 15.382 116.345 15.385C117.822 15.387 124.468 23.615 127.739 23.208C131.011 22.805 137.332 19.095 140.493 20.468C140.493 20.468 140.764 18.82 152.853 16.758C164.945 14.697 179.859 8.671 185.452 13.951C185.452 13.951 186.106 18.133 188.439 19.234C188.439 19.234 188.021 27.888 173.054 23.076L167.624 21.648C167.624 21.648 166.79 19.019 138.32 26.341C138.32 26.341 136.645 26.926 135.545 27.753C134.443 28.573 132.931 27.339 127.298 29.398C121.67 31.463 100.644 38.333 87.7337 35.858L87.7167 35.892C84.8727 35.042 82.2087 35.482 82.1007 35.033C81.9607 34.483 83.6137 35.173 83.6137 35.173C82.6537 34.071 82.2397 33.982 82.2397 33.982C71.3847 32.792 73.3037 27.888 73.3037 27.888L73.8567 29.4C75.6437 27.066 73.1647 21.57 73.1647 21.57L73.0597 21.588C73.0339 21.4199 73.0005 21.2531 72.9597 21.088L73.8567 20.468C79.0787 16.071 85.1257 15.246 85.1257 15.246C81.5507 10.852 73.9917 13.188 73.9917 13.188C74.1317 7.83 71.9337 1.646 71.9337 1.646C64.5107 2.471 60.2557 8.652 60.2557 8.652C59.9807 3.158 52.9717 0 52.9717 0C55.5797 3.158 53.9357 10.714 53.9357 10.714L54.2097 10.852C53.7757 10.841 53.5217 10.852 53.5217 10.852L53.3657 12.472L53.1087 12.364C53.1087 12.364 50.5007 13.324 47.4787 20.194C47.4787 20.194 47.1737 21.817 46.0047 23.281C45.9947 23.091 46.0147 22.921 45.9917 22.722C45.9917 22.722 42.6157 27.145 34.8157 22.722C34.8157 22.722 24.2177 16.434 20.4927 16.667C16.7677 16.899 14.3187 18.646 14.5557 19.693C14.5557 19.693 6.05172 18.993 3.14272 23.883C3.14272 23.883 -3.26028 26.212 2.21272 31.453C2.21272 31.453 2.94572 33.73 4.53872 34.95C4.53872 34.95 4.31272 30.166 5.47172 31.572C5.47172 31.572 5.77372 32.044 6.34572 32.374C6.49772 33.044 7.01172 34.908 8.14972 35.857L8.96972 35.597C9.09372 34.404 9.35172 32.897 9.61672 32.263C9.74172 32.28 9.84172 32.295 9.88672 32.298C9.85072 32.333 9.81672 32.353 9.78272 32.385L11.2957 34.714L13.0407 33.783C13.8577 33.663 14.9037 34.483 14.9037 34.483L16.8837 32.851C16.8717 32.833 16.8597 32.83 16.8477 32.811C18.7977 33.137 19.3307 29.357 19.3307 29.357C21.0827 29.817 22.7207 29.302 24.1157 28.457C24.9657 31.591 31.9067 34.953 31.9067 34.953L32.2057 34.927C31.6177 35.303 31.2687 35.585 31.2687 35.585C34.4267 37.787 40.3357 37.236 40.3357 37.236C37.8657 38.2 38.2107 42.773 38.2107 42.773C36.7667 43.366 36.6257 44.791 36.6257 44.791C41.4357 46.711 44.7207 45.121 44.7207 45.121C44.9847 46.686 44.5957 46.853 44.5957 46.853C42.6737 50.973 41.8487 54.958 41.8487 54.958C41.8907 54.976 41.9397 54.985 41.9807 55C41.9217 55.108 41.8487 55.212 41.8037 55.324C41.8037 55.324 33.4197 58.234 29.6937 62.31C29.6937 62.31 29.3437 61.144 28.2947 61.144C27.2477 61.144 23.9867 58.469 22.4727 58.001C20.9627 57.538 18.7477 58.469 18.1647 57.771C17.6377 57.136 17.8747 52.366 16.8667 51.597L16.8857 51.601L15.8367 48.691C15.1387 50.203 12.2287 49.852 12.2287 49.852C12.1127 49.922 11.6657 50.248 11.0317 50.721C10.4517 50.752 9.78272 50.551 9.78272 50.551C9.48372 50.613 9.18872 51.451 8.97172 52.267C8.85472 52.353 8.73672 52.443 8.61872 52.533L8.61872 51.716C8.03872 52.181 6.87372 51.483 6.40572 51.483C6.17772 51.483 5.89572 52.15 5.66672 52.835C4.48272 53.055 2.91272 53.114 2.91272 53.114C2.44672 53.347 2.79372 56.956 2.79372 56.956C-0.58028 58.821 1.04772 61.613 1.04772 61.613C2.91172 70.696 18.3977 66.62 19.5627 67.787C20.7247 68.953 23.4057 69.182 24.8027 69.182C26.1977 69.182 27.9427 72.56 29.9247 72.909C31.9057 73.259 29.9247 70.232 39.1077 68.039C48.2857 65.845 51.3467 62.08 51.3467 62.08C54.2217 61.526 55.0217 58.031 55.2367 56.62C55.2647 57.27 55.3407 57.99 55.4457 58.81C55.8597 61.971 53.6757 63.122 53.6757 63.122L61.6307 60.734C64.7877 59.909 64.3767 57.159 64.3767 57.159C67.3987 65.816 72.8967 66.365 72.8967 66.365C73.9947 63.067 73.8597 62.105 73.8597 62.105L76.3317 61.97C76.4317 60.106 74.7867 58.744 73.8347 58.11L77.7047 60.458L79.2127 60.183C79.2127 61.557 81.2747 62.791 81.2747 62.791L81.5527 61.009C83.3397 63.344 86.6357 62.519 86.6357 62.519C86.5644 62.0856 86.4672 61.6568 86.3447 61.235C93.3847 65.581 104.631 60.046 104.631 60.046C107.652 60.733 108.065 58.946 108.065 58.946C111.499 59.356 112.296 57.009 112.296 57.009C120.379 56.309 126.068 50.563 126.068 50.563C130.048 50.288 130.178 47.441 130.178 47.441C130.178 47.441 134.169 48.229 138.018 43.419C146.946 30.644 160.298 37.295 160.298 37.295L152.578 37.784C132.384 37.648 140.756 51.382 140.756 51.382L142.001 51.25C143.924 51.661 150.516 56.883 148.086 60.772C148.047 60.84 147.995 60.902 147.95 60.965C143.833 66.601 136.208 61.225 134.035 56.47C131.835 51.663 127.436 52.763 127.436 52.763C127.436 52.763 116.036 54.687 120.706 63.754L120.876 63.759C120.962 65.972 122.351 68.493 126.418 70.999C128.702 74.23 136.212 74.567 141.728 73.372C144.294 72.812 157.84 66.988 157.84 66.988C158.833 64.038 162.2 64.718 165.22 60.459C168.24 56.2 160.96 54.687 159.313 52.354C157.662 50.015 159.727 50.429 159.727 50.429C166.319 54.002 166.868 42.597 166.868 42.597C167.558 49.19 173.326 50.977 173.326 50.977C176.9 47.409 174.293 40.125 174.293 40.125C182.812 55.375 187.971 52.947 187.971 52.947C183.384 50.107 185.693 46.307 185.693 46.307C189.81 62.518 206.715 48.369 206.715 48.369C205.891 50.701 206.719 52.074 208.228 53.586C209.738 55.098 211.525 55.786 210.704 58.534C209.877 61.281 202.051 60.734 202.051 60.734C202.051 60.734 194.353 60.323 195.044 66.78C195.447 68.289 200.534 68.838 202.458 68.428C202.458 68.428 201.664 68.601 204.508 68.981C205.461 69.103 206.612 69.124 207.783 69.085C211.062 68.985 214.553 68.428 214.553 68.428C218.944 67.469 218.26 65.952 218.26 65.952C224.986 64.712 225.678 60.177 225.678 60.177Z" sodipodi:nodetypes="cccccccccccccccccccccccccccccccccccccccccccccccccccccccccccccccccccccccccccccccccccccccccccccccccccccccccccccccccccccccccccccccccccccccccccccccccccccccccccccccccccccccccccccccccccc"/>
   <path id="shape9" transform="translate(791.714, 172.577)" fill="#000000" stroke-opacity="0" stroke="#000000" stroke-width="0" stroke-linecap="square" stroke-linejoin="bevel" d="M0.24 6.718C0.245 6.711 0.601 5.87 1.28 5.768C1.802 5.691 2.437 6.078 3.108 6.893L3.475 6.617C3.46 6.59 1.662 3.971 2.378 2.122C2.698 1.298 3.492 0.732 4.735 0.452L4.635 0C3.232 0.322 2.329 0.98 1.949 1.958C1.8119 2.32088 1.7434 2.7061 1.747 3.094C1.747 3.998 2.065 4.914 2.392 5.616C1.985 5.361 1.589 5.256 1.208 5.313C0.518 5.417 0.182 5.914 0 6.238ZM212.286 42.703C207.696 43.431 200.958 43.835 200.422 42.446C200.328 42.199 200.312 41.208 204.07 38.761L203.632 38.088C200.496 40.13 199.234 41.606 199.672 42.734C200.634 45.234 210.471 43.806 212.435 43.493ZM124.486 45.353C123.44 43.753 123.91 41.56 125.884 38.83L125.234 38.36C123.04 41.379 122.562 43.884 123.812 45.795Z" sodipodi:nodetypes="ccccccccccccccccccccccccc"/>
   <path id="shape10" transform="translate(802.034948975359, 171.981)" fill="#000000" stroke-opacity="0" stroke="#000000" stroke-width="0" stroke-linecap="square" stroke-linejoin="bevel" d="M107.965 39.039C108.065 41.807 110.021 44.378 113.765 46.671L114.185 45.985C110.681 43.841 108.863 41.495 108.768 39.011C108.63 35.199 112.658 32.259 112.697 32.228L112.227 31.574C112.047 31.702 107.809 34.79 107.965 39.039ZM186.255 40.069C184.996 41.928 185.417 44.179 185.435 44.274L186.223 44.119C186.216 44.097 185.851 42.093 186.926 40.515C187.571 39.566 188.612 38.951 190.023 38.683L189.878 37.893C188.243 38.203 187.028 38.933 186.255 40.069ZM6.88505 4.909L6.63705 4.847L6.60305 5.102C6.59605 5.127 6.24505 7.566 5.13905 8.229C4.82905 8.414 4.49605 8.435 4.11105 8.294L2.23305 7.152C1.85805 6.822 1.53705 6.579 0.995051 6.738C0.887051 6.598 0.457051 6.014 0.457051 5.076C0.457051 4.971 0.464051 4.86 0.479051 4.747C0.613051 3.647 1.38105 2.586 2.76905 1.596L2.50505 1.22C1.00005 2.295 0.167051 3.463 0.021051 4.7C-0.077584 5.57559 0.173 6.45569 0.718051 7.148L0.830051 7.277L0.982051 7.207C1.40005 7.022 1.52105 7.131 1.92805 7.491L3.95505 8.724C4.46905 8.914 4.94505 8.879 5.37705 8.622C6.52105 7.937 6.92205 5.941 7.01605 5.387C11.8931 6.435 15.8181 0.507 15.9881 0.252L15.5981 0C15.5631 0.062 11.5581 6.134 6.88505 4.909Z" sodipodi:nodetypes="cccccccccccccccccccccccccccccccccccc"/>
   <path id="shape11" transform="translate(790.075, 171.908)" fill="#000000" stroke-opacity="0" stroke="#000000" stroke-width="0" stroke-linecap="square" stroke-linejoin="bevel" d="M7.155 4.072C6.911 5.06 7.078 6.029 7.642 6.954C8.181 7.832 8.712 8.298 9.265 8.372C9.939 8.465 10.478 7.965 10.953 7.527C11.299 7.203 11.627 6.902 11.897 6.922L12.317 7.212L12.677 6.924L11.93 6.464C11.458 6.429 11.062 6.796 10.64 7.19C10.219 7.576 9.787 7.983 9.326 7.92C8.926 7.864 8.494 7.457 8.036 6.713C7.539 5.898 7.389 5.044 7.6 4.183C8.126 2.007 10.727 0.408 10.755 0.393L10.519 0C10.402 0.068 7.727 1.71 7.155 4.072ZM0.445 35.132C0.678 34.291 1.325 33.574 2.364 32.997C2.159 33.017 3.383 34.012 4.433 33.901L5.114 33.532C5.393 33.772 7.211 35.427 7.211 37.524C7.211 37.965 7.131 38.418 6.932 38.877L7.358 39.056C8.688 35.906 5.343 33.112 5.312 33.082L5.19 32.986L4.983 33.12L4.387 33.444C3.527 33.534 2.408 32.625 2.4 32.617C0.989 33.232 0.267 34.047 0 35.016ZM15.975 27.092C14.971 27.177 12.173 27.712 11.26 29.163C10.93 29.69 10.881 30.27 11.121 30.896L11.488 31.873C12.359 34.216 13.264 36.638 14.251 37.185L14.474 36.785C13.636 36.32 12.724 33.872 11.918 31.713L11.553 30.736C11.366 30.242 11.397 29.808 11.648 29.408C12.398 28.218 14.913 27.643 16.013 27.552C16.654 27.5 16.863 29.865 16.99 31.279L17.447 31.237C17.264 29.154 17.071 27.001 15.975 27.092Z" sodipodi:nodetypes="cccccccccccccccccccccccccccccccccccccccccc"/>
   <path id="shape12" transform="translate(797.903130262438, 200.877247795316)" fill="#000000" stroke-opacity="0" stroke="#000000" stroke-width="0" stroke-linecap="square" stroke-linejoin="bevel" d="M0.47687 0.422752C-0.11113 0.948752 0.00686974 1.74075 0.0148697 1.77475C0.0198697 1.99275 0.28087 7.84275 3.05887 9.05175L3.24187 8.63075C0.72787 7.53475 0.47487 1.78575 0.47087 1.72975C0.46987 1.69475 0.38787 1.11375 0.78787 0.763752C1.20887 0.388752 2.04687 0.360752 3.20787 0.679752L3.33087 0.237752C1.99087 -0.132248 1.03087 -0.0702478 0.47687 0.422752Z" sodipodi:nodetypes="ccccccccc"/>
   <path id="shape13" transform="translate(795.002477893396, 169.156)" fill="#000000" stroke-opacity="0" stroke="#000000" stroke-width="0" stroke-linecap="square" stroke-linejoin="bevel" d="M1.17752 32.624C-0.0514779 33.48 -0.000477893 35.922 0.000522107 36.024L0.460522 36.016C0.460522 35.99 0.414522 33.713 1.44052 33.001C1.82352 32.737 2.32752 32.726 2.94152 32.974L3.11152 32.549C2.34652 32.237 1.69352 32.262 1.17752 32.624ZM67.3275 0.334C67.3495 0.372 68.6375 3.279 68.6375 5.639C68.6375 6.058 68.4395 6.356 68.3465 6.72C68.2945 6.585 67.8465 5.354 67.8465 5.354L67.4565 6.341C67.4395 6.396 66.9315 7.725 67.8385 9.224C69.0385 11.201 72.0255 12.467 76.7225 12.982L76.7205 12.982C76.7205 12.986 76.7795 13.037 76.7865 13.047C76.5915 13.073 76.4455 13.127 76.4015 13.169L76.2125 13.329L76.2375 13.729C76.3595 14.217 76.9155 14.241 78.0215 14.283C78.2085 14.293 78.5115 14.338 78.7265 14.349C79.0015 14.426 79.2835 14.502 79.2835 14.502L79.1895 14.394C80.2595 14.468 81.4635 14.732 82.7705 15.22C82.4815 15.296 81.7755 15.472 81.7755 15.472L82.9375 15.93C83.0255 15.965 91.5855 19.404 95.1285 22.233C94.1225 23.105 89.8285 26.313 82.3925 24.48L81.1465 24.174L81.9915 25.139C82.0435 25.197 86.8875 30.753 87.8915 34.122C86.2045 34.139 79.7065 34.08 77.4365 32.151L76.8485 32.686C76.8785 32.736 79.9635 37.262 80.6525 40.791C79.7685 40.907 77.6525 40.994 76.4005 39.358L75.8235 38.607L75.5105 40.644C74.9055 40.188 74.1435 39.507 74.1435 38.777L74.1435 38.297L72.3105 38.63L68.5455 36.347C68.3493 36.2165 68.1475 36.0947 67.9405 35.982C67.9365 35.978 67.9055 35.96 67.9055 35.96L67.8785 35.944L67.4885 36.65C67.4885 36.65 67.9365 36.917 68.0655 36.998C68.8715 37.523 70.2515 38.668 70.3905 40.186C69.7955 40.221 67.9425 40.322 67.9425 40.322L67.9885 40.748L67.9885 40.815C67.9885 41.067 67.9085 42.119 67.1405 44.494C65.9825 44.218 61.7705 42.75 59.2825 35.62L58.5075 35.812C58.5115 35.832 58.5205 35.926 58.5205 36.077C58.5205 36.727 58.2905 38.356 56.0555 38.937C56.0425 38.941 51.9055 40.185 49.6035 40.874C50.0335 40.258 50.4275 39.414 50.4275 38.189C50.4275 37.929 50.4105 37.649 50.3765 37.352C50.2365 36.316 50.1525 35.453 50.1525 34.733C50.1525 33.232 50.5215 32.338 51.5585 31.702L51.1965 30.986C51.0995 31.024 41.5785 34.806 36.8575 33.236C37.0735 32.314 37.8735 29.074 39.4855 25.62L39.2775 25.818C39.5875 25.686 39.9025 25.203 39.6415 23.652L39.5555 23.124L39.0715 23.357C39.0415 23.372 36.0195 24.72 31.6545 23.121C31.7435 22.763 31.9745 22.12 32.8895 21.741L33.1575 21.633L33.1315 21.341C33.1315 21.331 33.1215 21.128 33.1215 20.81C33.1215 19.631 33.3055 16.87 35.0015 16.208L34.8215 15.431C34.7665 15.438 29.6605 15.846 26.5645 14.124C27.3765 13.564 29.0835 12.532 31.0695 12.246L31.3875 12.201L31.4095 11.883C31.4135 11.867 31.4205 11.773 31.4205 11.623C31.4205 11.22 31.2645 10.404 30.9095 9.583C32.0875 9.911 33.4995 10.208 34.0005 9.832L34.1705 9.704L34.0245 6.605L33.2215 6.644L33.3445 9.206C32.8405 9.233 31.5565 8.976 30.3095 8.58L29.0755 8.188L29.8705 9.212C30.5155 10.041 30.5975 11.07 30.6075 11.543C27.8175 12.062 25.6315 13.794 25.5375 13.873L25.1275 14.21L25.5625 14.513C27.9625 16.185 31.7155 16.33 33.6425 16.288C32.5065 17.568 32.3145 19.709 32.3145 20.78C32.3145 21 32.3215 21.058 32.3255 21.166C30.9625 21.902 30.7575 23.284 30.7485 23.348L30.7185 23.648L31.0005 23.764C35.1255 25.408 37.9415 24.614 38.8975 24.261C38.9045 24.389 38.9325 24.563 38.9325 24.654C38.9325 25.032 38.8625 25.148 38.8625 25.148C36.8365 29.396 35.9875 33.434 35.9775 33.472L35.9115 33.806L36.2245 33.93C40.0525 35.46 46.9295 33.371 49.9745 32.296C49.5755 32.985 49.3425 33.76 49.3425 34.725C49.3425 35.534 49.4405 36.443 49.5755 37.456C49.6105 37.713 49.6255 37.95 49.6255 38.18C49.6255 40.46 48.0845 41.322 48.0105 41.36L48.3165 42.101L56.2715 39.712C58.1115 39.234 58.8025 38.147 59.0955 37.223C62.2345 44.667 67.1615 45.338 67.3805 45.363L67.7005 45.39L67.8005 45.088C68.5665 42.801 68.7435 41.639 68.7785 41.078C69.5993 41.0366 70.42 40.993 71.2405 40.947L71.2605 40.586C71.2645 40.523 71.2645 40.463 71.2645 40.404C71.2645 39.746 71.0595 39.164 70.7745 38.64C71.2725 38.94 72.1515 39.474 72.1515 39.474L73.4695 39.234C73.8135 40.564 75.3925 41.608 75.5965 41.733L76.1085 42.04C76.1085 42.04 76.2965 40.828 76.3755 40.3C78.3405 42.058 81.1285 41.535 81.2605 41.502L81.6125 41.412L81.5605 41.055C81.1605 38.367 79.3565 35.169 78.2955 33.459C81.7865 35.046 88.1455 34.93 88.4585 34.92L88.9325 34.904L88.8395 34.439C88.2755 31.614 84.7455 27.167 83.2695 25.399C91.4705 26.94 95.8755 22.685 96.0645 22.492L96.3525 22.186L96.0355 21.908C93.2785 19.506 86.9235 16.718 84.3705 15.651L85.2645 15.425L84.3815 14.931C82.2465 13.731 79.9835 13.582 78.4535 13.516L78.4465 13.504C77.4765 12.393 76.9825 12.215 76.8575 12.188C71.3115 11.576 69.2785 10.022 68.5405 8.822C68.4785 8.723 68.5095 8.656 68.4635 8.56C68.5835 8.4 68.7075 8.242 68.7075 8.242C69.2425 7.545 69.4335 6.612 69.4335 5.625C69.4335 3.078 68.1395 0.168 68.0665 0L67.3285 0.334Z" sodipodi:nodetypes="ccccccccccccccccccccccccccccccccccccccccccccccccccccccccccccccccccccccccccccccccccccccccccccccccccccccccccccccccccccccccccccccccccccccccccccccccccccc"/>
   <path id="shape14" transform="translate(825.614, 159.91)" fill="#000000" stroke-opacity="0" stroke="#000000" stroke-width="0" stroke-linecap="square" stroke-linejoin="bevel" d="M11.186 7.95C11.169 8.03 10.578 11.069 7.99 12.493C6.043 13.563 3.47 13.475 0.351 12.227L0 12.087L0.037 12.463C0.045 12.541 0.25 14.327 1.934 15.635C3.336 16.727 5.342 17.11 7.856 16.835C7.015 17.833 4.312 21.287 4.312 24.637C4.312 24.814 4.323 24.991 4.34 25.165C4.684 25.412 8.92 26.56 10.884 24.049C10.954 25.126 11.263 28.571 12.608 29.919C13.345 30.652 13.518 31.723 13.518 32.579C13.518 33.35 13.372 33.946 13.372 33.958L13.22 34.571L13.731 34.199C13.894 34.08 17.788 31.228 19.033 27.492C19.029 27.502 19.656 26.555 20.858 26.167C20.833 26.33 20.812 26.497 20.812 26.73C20.812 28.174 21.445 30.794 25.648 32.401L25.993 32.533L25.962 32.166C25.9403 31.9246 25.931 31.6823 25.934 31.44C25.934 30.385 26.08 28.447 27.084 27.443C27.746 26.783 27.944 26.039 27.944 25.394C27.944 24.887 27.832 24.476 27.718 24.174C28.567 24.389 30.573 25.036 31.39 26.564C32.576 28.787 36.728 27.018 36.906 26.944L36.763 26.507C36.746 26.511 35.017 26.898 33.926 26.149C33.446 25.819 33.158 25.312 33.057 24.639L32.865 22.329C32.823 21.282 32.678 20.617 32.152 20.058C32.702 20.008 33.804 20.027 34.27 21.058C35.004 22.675 37.521 22.832 37.626 22.841L38.487 22.886L37.764 22.418C37.74 22.404 35.566 20.962 35.942 19.082L36.255 17.706C36.85 15.226 37.84 11.074 37.034 8.525L36.596 8.665C36.796 9.301 36.878 10.055 36.878 10.861C36.878 13.121 36.238 15.805 35.806 17.599L35.49 18.994C35.4541 19.171 35.4367 19.3514 35.438 19.532C35.438 20.749 36.228 21.678 36.843 22.237C36.103 22.077 35.077 21.725 34.692 20.867C34.087 19.541 32.463 19.48 31.688 19.637L31.146 19.746L31.608 20.053C32.338 20.54 32.358 21.107 32.41 22.346L32.605 24.704C32.72 25.508 33.078 26.123 33.665 26.528C34.18 26.878 34.782 26.928 35.331 26.968C34.098 27.289 32.407 27.49 31.8 26.348C30.655 24.216 27.508 23.646 27.376 23.621L26.896 23.538L27.136 23.959C27.162 24.005 27.494 24.611 27.494 25.381C27.494 25.927 27.327 26.552 26.761 27.116C25.645 28.242 25.474 30.283 25.474 31.412C25.474 31.633 25.485 31.664 25.489 31.799C21.894 30.288 21.258 28.05 21.258 26.783C21.258 26.244 21.362 25.885 21.376 25.838L21.481 25.484L21.116 25.546C19.37 25.834 18.644 27.256 18.613 27.316C17.614 30.307 14.903 32.675 13.922 33.464C13.9635 33.1674 13.9855 32.8685 13.988 32.569C13.988 31.634 13.786 30.443 12.938 29.593C11.508 28.164 11.314 23.62 11.314 23.574L11.284 22.754L10.884 23.466C9.302 26.299 4.684 24.938 4.639 24.926C4.444 21.346 8.505 16.766 8.547 16.72L8.972 16.248L8.346 16.34C5.694 16.724 3.634 16.37 2.223 15.28C1.41375 14.652 0.83536 13.7728 0.579 12.781C3.655 13.927 6.235 13.991 8.221 12.894C10.995 11.36 11.604 8.219 11.628 8.087C14.541 1.481 17.086 0.438 17.114 0.431L16.954 0C16.839 0.04 14.214 1.073 11.186 7.95Z" sodipodi:nodetypes="ccccccccccccccccccccccccccccccccccccccccccccccccccccccccccccccccccccccccccccccccccc"/>
   <path id="shape15" transform="translate(840.892, 158.068284088984)" fill="#000000" stroke-opacity="0" stroke="#000000" stroke-width="0" stroke-linecap="square" stroke-linejoin="bevel" d="M2.558 0.00171591L2.364 0.00871591L0 3.24872L0.702 3.31872C13.531 4.56672 20.315 12.3067 20.381 12.3867L20.677 12.7307L23.003 10.2037L22.833 9.94372C16.327 -0.300284 2.697 -0.00328409 2.558 0.00171591ZM2.778 0.805716C4.363 0.809716 16.048 1.17072 21.967 10.1367C21.677 10.4497 21.032 11.1557 20.687 11.5337C19.3 10.0957 12.725 3.95172 1.45 2.62772C1.89158 2.01959 2.33425 1.41226 2.778 0.805716Z" sodipodi:nodetypes="cccccccccccccc"/>
   <path id="shape16" transform="translate(837.536, 161.553)" fill="#000000" stroke-opacity="0" stroke="#000000" stroke-width="0" stroke-linecap="square" stroke-linejoin="bevel" d="M4.064 3.287C2.968 4.782 1.95 6.994 1.95 8.029C1.95 8.227 1.988 8.383 2.072 8.482C2.079 8.492 2.118 8.495 2.131 8.511C0.795 9.708 0 11.707 0 13.967C0 15.21 0.22 16.505 0.681 17.74L0.938 18.435C2.197 21.859 3.282 24.819 8.726 23.076C13.97 21.401 14.176 21.065 15.496 18.887L15.841 18.323C16.561 17.153 17.347 16.919 18.184 16.671C19.183 16.371 20.218 16.063 21.126 14.271L22.009 12.947C22.962 11.634 24.151 10.007 24.294 7.924L23.834 7.893C23.702 9.843 22.554 11.411 21.637 12.673L20.715 14.061C19.895 15.677 19 15.945 18.051 16.228C17.168 16.491 16.261 16.762 15.447 18.081L15.099 18.647C13.829 20.743 13.668 21.013 8.587 22.641C3.56 24.247 2.641 21.741 1.369 18.277L1.112 17.575C-0.321 13.757 0.799 9.906 2.662 8.526L3.302 8.051L2.415 8.151C2.405 8.113 2.395 8.08 2.395 8.02C2.395 7.396 3.076 5.409 4.432 3.556C5.59 1.978 8.322 0.414 8.352 0.399L8.122 0C8.007 0.069 5.277 1.63 4.064 3.287Z" sodipodi:nodetypes="ccccccccccccccccccccccccccccccc"/>
   <path id="shape17" transform="translate(837.576575536833, 174.462)" fill="#000000" stroke-opacity="0" stroke="#000000" stroke-width="0" stroke-linecap="square" stroke-linejoin="bevel" d="M1.58342 4.188C2.48342 4.812 3.74942 4.768 5.27542 4.188C5.28242 4.732 5.40442 5.888 6.35342 6.726C7.46942 7.714 9.31842 7.904 11.8534 7.3L11.7454 6.854C9.37042 7.421 7.65642 7.261 6.65842 6.385C5.58642 5.44 5.73642 3.935 5.74042 3.922L5.78242 3.528L5.41742 3.683C3.88042 4.345 2.67742 4.385 1.84242 3.808C0.347424 2.768 0.459424 0.053 0.462424 0.022L0.00242446 0C0.00142446 0.124 -0.124576 3.002 1.58342 4.188Z" sodipodi:nodetypes="ccccccccccccc"/>
   <path id="shape18" transform="translate(839.763, 174.713724216986)" fill="#000000" stroke-opacity="0" stroke="#000000" stroke-width="0" stroke-linecap="square" stroke-linejoin="bevel" d="M2.307 0.276276C1.651 0.432276 1.48 0.982276 1.48 1.40628C1.48 1.50828 1.491 1.60328 1.504 1.68528C1.619 2.86728 2.902 3.65428 4.067 3.99128C5.2 4.31928 6.595 4.34128 7.144 3.63528C7.364 3.35328 7.524 2.84528 7.044 2.02528C5.294 -0.951724 2.463 0.214276 2.307 0.276276ZM4.195 3.54728C3.175 3.25628 2.053 2.59428 1.963 1.61428C1.941 1.52028 1.831 0.862276 2.411 0.724276L2.457 0.709276C2.561 0.662276 5.068 -0.426724 6.647 2.25928C6.928 2.73928 6.974 3.10428 6.779 3.35228C6.441 3.79228 5.325 3.87828 4.195 3.54728ZM2.261 0.293276C2.265 0.289276 2.307 0.275276 2.307 0.275276ZM3.887 6.26628C3.592 8.78028 3.772 8.84028 3.953 8.89628L4.113 8.94628L4.293 8.73428L5.749 6.81428L3.921 5.94828ZM4.308 6.64228L5.045 6.99028C4.847 7.24328 4.479 7.73428 4.2 8.10028C4.207 7.72228 4.253 7.18828 4.308 6.64228ZM0.097 4.24628L0 6.62228L1.995 4.20928L0.108 4.00028ZM0.546 4.51228L1.098 4.57228C0.903 4.80528 0.774 4.96428 0.513 5.27828C0.533 4.90828 0.54 4.70328 0.546 4.51228Z" sodipodi:nodetypes="ccccccccccccccccccccccccccccccccccccc"/>
   <path id="shape19" transform="translate(838.107, 169.318951422697)" fill="#000000" stroke-opacity="0" stroke="#000000" stroke-width="0" stroke-linecap="square" stroke-linejoin="bevel" d="M0.423 8.88105C0.44 8.91205 1.907 11.781 2.168 12.828C2.335 13.493 3.183 14.25 4.195 14.625C5.203 15.005 6.148 14.943 6.854 14.451L8.179 13.35C8.62 12.925 8.767 12.806 9.124 12.867L9.201 12.414C8.6 12.313 8.307 12.593 7.861 13.017L6.592 14.075C5.81 14.621 4.853 14.388 4.353 14.195C3.407 13.845 2.723 13.167 2.611 12.715C2.336 11.621 0.89 8.79505 0.831 8.67505ZM2.333 0.281049C0.713 1.02905 0.028 2.99405 0 3.07705L0.435 3.22805C0.442 3.20905 1.089 1.35805 2.527 0.698049C3.229 0.376049 4.015 0.387049 4.871 0.723049L5.041 0.298049C4.068 -0.0949514 3.157 -0.0979514 2.333 0.281049ZM13.223 5.44105C13.351 5.53705 16.411 7.85505 14.653 10.684L15.043 10.927C17.027 7.73905 13.529 5.09705 13.498 5.06905ZM4.023 5.89105C4.023 5.89105 3.547 7.62105 5.98 8.23105C5.98 8.23105 3.692 8.21105 3.547 7.62105C3.393 7.03005 3.56 5.72105 4.023 5.89105ZM11.463 7.96105C11.463 8.11105 11.341 8.23505 11.192 8.23505C11.12 8.234 11.0511 8.20468 11.0005 8.15346C10.9498 8.10223 10.9213 8.0331 10.921 7.96105C10.921 7.81305 11.045 7.69005 11.191 7.69005C11.341 7.69005 11.463 7.81305 11.463 7.96105ZM11.733 9.04105C11.733 9.19105 11.611 9.31605 11.462 9.31605C11.313 9.31605 11.194 9.19105 11.194 9.04105C11.194 8.89505 11.313 8.77105 11.462 8.77105C11.611 8.77105 11.733 8.89605 11.733 9.04105Z" sodipodi:nodetypes="cccccccccccccccccccccccccccccccccccccccc"/>
   <circle id="shape20" transform="translate(847.74, 177.555)" r="0.27" cx="0.27" cy="0.27" fill="#000000" stroke-opacity="0" stroke="#000000" stroke-width="0" stroke-linecap="square" stroke-linejoin="bevel"/>
   <path id="shape21" transform="translate(841.104, 171.859)" fill="#000000" stroke-opacity="0" stroke="#000000" stroke-width="0" stroke-linecap="square" stroke-linejoin="bevel" d="M7.646 7.591C7.64182 7.65962 7.61159 7.72411 7.56152 7.77122C7.51146 7.81832 7.44524 7.84458 7.3765 7.84458C7.30776 7.84458 7.24154 7.81832 7.19148 7.77122C7.14141 7.72411 7.11118 7.65962 7.107 7.591C7.107 7.44 7.23 7.316 7.375 7.316C7.524 7.316 7.646 7.439 7.646 7.591ZM0.546 0.271C0.546 0.343376 0.517218 0.412862 0.46604 0.46404C0.414862 0.515218 0.345376 0.544 0.273 0.544C0.200624 0.544 0.131138 0.515218 0.0799598 0.46404C0.0287821 0.412862 0 0.343376 0 0.271C0 0.125 0.125 0 0.271 0C0.425 0 0.546 0.125 0.546 0.271Z" sodipodi:nodetypes="cccccccccccccc"/>
   <circle id="shape22" transform="translate(841.38, 172.95)" r="0.27" cx="0.27" cy="0.27" fill="#000000" stroke-opacity="0" stroke="#000000" stroke-width="0" stroke-linecap="square" stroke-linejoin="bevel"/>
   <circle id="shape23" transform="translate(839.82, 172.41)" r="0.27" cx="0.27" cy="0.27" fill="#000000" stroke-opacity="0" stroke="#000000" stroke-width="0" stroke-linecap="square" stroke-linejoin="bevel"/>
   <path id="shape24" transform="translate(840.282, 164.479337232694)" fill="#000000" stroke-opacity="0" stroke="#000000" stroke-width="0" stroke-linecap="square" stroke-linejoin="bevel" d="M0.548 9.82066C0.546693 9.89279 0.517157 9.96161 0.465772 10.0123C0.414387 10.0629 0.345142 10.0914 0.273 10.0917C0.200624 10.0917 0.131138 10.0629 0.0799598 10.0117C0.0287821 9.96053 0 9.89104 0 9.81866C0 9.74629 0.0287821 9.6768 0.0799598 9.62562C0.131138 9.57444 0.200624 9.54566 0.273 9.54566C0.345666 9.54644 0.415206 9.57569 0.466592 9.62707C0.517977 9.67846 0.54722 9.748 0.548 9.82066ZM5.288 0.270663C5.288 0.270663 8.806 2.43566 5.42 6.49866C5.42 6.49866 7.086 5.26166 7.256 3.13666C7.434 1.01366 6.049 -0.679337 5.288 0.270663ZM18.788 6.11066C17.655 6.69266 16.024 5.61466 15.208 4.59666C14.394 3.57666 12.708 3.31666 11.658 5.17666C10.61 7.04066 9.098 7.73866 9.098 7.73866C9.098 7.73866 10.575 6.86666 12.096 5.23566C13.608 3.60866 14.481 4.91566 15.966 5.70166C17.451 6.48766 17.683 6.66066 18.729 6.25366Z" sodipodi:nodetypes="ccccccccccccccccccccc"/>
   <path id="shape25" transform="translate(850.483, 169.460596373164)" fill="#000000" stroke-opacity="0" stroke="#000000" stroke-width="0" stroke-linecap="square" stroke-linejoin="bevel" d="M8.297 1.3994C7.834 1.7474 6.985 2.0394 6.085 1.3094C5.185 0.582404 4.427 -0.405596 3.293 0.175404C2.155 0.759404 0 2.3874 0 2.3874C0 2.3874 3.495 -0.0295964 4.165 0.495404C4.833 1.0214 6.408 2.3004 7.367 1.9254C8.328 1.5424 8.297 1.3994 8.297 1.3994Z" sodipodi:nodetypes="ccccccc"/>
   <path id="shape26" transform="translate(851.267, 171.321)" fill="#000000" stroke-opacity="0" stroke="#000000" stroke-width="0" stroke-linecap="square" stroke-linejoin="bevel" d="M4.833 1.019C3.728 0.175 2.621 2.008 1.69 1.779C0.759 1.542 0 0 0 0C0 0 0.877 1.631 2.097 1.252C3.321 0.875 4.166 0.117 4.921 0.697C5.678 1.282 4.833 1.019 4.833 1.019Z" sodipodi:nodetypes="cccccc"/>
   <path id="shape27" transform="translate(851.971, 170.736)" fill="#000000" stroke-opacity="0" stroke="#000000" stroke-width="0" stroke-linecap="square" stroke-linejoin="bevel" d="M2.399 1.834C0.216 2.06 0 0.021 0 0C0 0 0.689 1.78 2.619 1.457Z" sodipodi:nodetypes="cccc"/>
   <path id="shape28" transform="translate(845.298, 167.469)" fill="#000000" stroke-opacity="0" stroke="#000000" stroke-width="0" stroke-linecap="square" stroke-linejoin="bevel" d="M9.002 3.711C9.145 4.263 9.114 4.514 8.529 4.514C7.941 4.514 7.542 4.318 7.542 3.748C7.542 3.177 8.916 3.356 9.002 3.711ZM1.162 0.681C1.162 1.061 0.849 1.366 0.462 1.366C0.075 1.366 0 1.106 0 0.73C0 0.354 0.076 0 0.462 0C0.848 0 1.162 0.307 1.162 0.681Z" sodipodi:nodetypes="ccccccccc"/>
   <path id="shape29" transform="translate(843.971203048165, 165.124588260158)" fill="#000000" stroke-opacity="0" stroke="#000000" stroke-width="0" stroke-linecap="square" stroke-linejoin="bevel" d="M0.078797 0.585412C0.078797 0.585412 3.8188 0.625412 1.9668 5.30541C1.9668 5.30541 3.3918 2.97541 2.4978 1.29941C1.6008 -0.374588 0.192797 0.0474117 0.192797 0.0474117C0.192797 0.0474117 -0.150203 0.364412 0.078797 0.585412Z" sodipodi:nodetypes="ccccc"/>
   <path id="shape30" transform="translate(843.93988206478, 165.96)" fill="#000000" stroke-opacity="0" stroke="#000000" stroke-width="0" stroke-linecap="square" stroke-linejoin="bevel" d="M0.000117935 1.62C-0.00988206 2.558 0.616118 3.527 1.85612 4.496L2.14212 4.136C1.01912 3.26 0.452118 2.416 0.460118 1.63C0.467118 0.844 1.07212 0.377 1.07912 0.37L0.804118 0C0.772118 0.026 0.0141179 0.604 0.000117935 1.62Z" sodipodi:nodetypes="ccccccc"/>
   <path id="shape31" transform="translate(844.699236048645, 166.245)" fill="#000000" stroke-opacity="0" stroke="#000000" stroke-width="0" stroke-linecap="square" stroke-linejoin="bevel" d="M0.070764 2.125C0.230764 2.664 0.647764 3.071 1.31476 3.337L1.48476 2.912C0.957764 2.702 0.629764 2.394 0.512764 1.999C0.275764 1.203 0.915764 0.275 0.922764 0.267L0.550764 0C0.514764 0.048 -0.228236 1.12 0.070764 2.125ZM5.20076 4.725C5.20076 4.725 5.89676 6.237 4.88076 7.868C3.86076 9.498 3.88876 9.412 3.88876 9.412C3.88876 9.412 5.11276 7.171 4.64776 6.237C4.18576 5.306 5.20076 4.725 5.20076 4.725ZM19.7508 20.515C23.5928 21.239 32.2608 28.035 32.3508 28.105L32.8488 27.469C32.4838 27.187 23.9338 20.484 19.9008 19.725ZM23.1608 30.105C23.4178 33.515 27.1278 35.633 27.2878 35.719L27.6798 35.019C27.6418 35.001 24.1898 33.023 23.9598 30.044ZM13.9508 30.815C13.9508 34.639 17.5348 39.265 17.6888 39.462L18.3208 38.965C18.2868 38.922 14.7538 34.363 14.7538 30.815ZM1.80076 31.245C2.43276 32.507 2.36676 33.147 2.20376 33.46C2.01376 33.813 1.62376 33.867 1.60976 33.87L1.70376 34.671C1.99876 34.636 2.59076 34.431 2.90376 33.855C3.28676 33.155 3.15676 32.155 2.52076 30.891Z" sodipodi:nodetypes="cccccccccccccccccccccccccccccccccc"/>
   <g id="group3" fill="none">
    <path id="shape32" transform="translate(791.86, 178.193877955073)" fill="#ffffff" stroke="#000000" stroke-width="0.36" stroke-linecap="butt" stroke-linejoin="miter" stroke-miterlimit="3" d="M0 0.436122C0 0.436122 0.233 2.99612 2.212 4.51512C2.212 4.51512 1.979 1.71512 2.562 0.555122C2.562 0.554122 1.516 -0.609878 0 0.436122ZM3.95 2.06612C3.95 2.06612 4.418 4.39212 5.815 5.44212L6.635 5.20912C6.635 5.20912 6.982 2.29512 7.448 1.94712C7.914 1.60012 5.469 2.99512 3.95 2.06612Z" sodipodi:nodetypes="ccccccccc"/>
    <path id="shape33" transform="translate(799.31, 178.733982868072)" fill="#ffffff" stroke="#000000" stroke-width="0.36" stroke-linecap="butt" stroke-linejoin="miter" stroke-miterlimit="3" d="M0 1.40602L1.513 3.73602L3.258 2.80402L2.91 0.0120171C2.91 0.0120171 1.864 -0.224983 0 1.40602Z" sodipodi:nodetypes="ccccc"/>
    <path id="shape34" transform="translate(792.195365494847, 178.777395989915)" fill="#ffffff" stroke="#000000" stroke-width="0.36" stroke-linecap="butt" stroke-linejoin="miter" stroke-miterlimit="3" d="M14.2146 1.8326L12.2346 3.4626C12.2346 3.4626 11.1886 2.6466 10.3706 2.7636L10.7226 0.201604C10.7226 0.201604 12.1196 -0.845396 14.2146 1.8326ZM0.124635 25.9326C0.124635 25.9326 -0.223365 22.3226 0.243635 22.0906C0.243635 22.0906 1.63763 22.5556 2.22063 21.9706C2.22063 21.9706 3.03663 24.8846 2.80263 26.0486C2.57163 27.2116 1.17463 26.7496 0.124635 25.9326ZM9.09463 22.2026C9.09463 22.2026 8.97963 19.1746 9.56063 18.8226C9.56063 18.8226 12.4706 19.1736 13.1686 17.6626L14.2176 20.5726C14.2176 20.5726 10.9576 20.2216 9.09463 22.2026Z" sodipodi:nodetypes="ccccccccccccccc"/>
    <path id="shape35" transform="translate(794.77, 198.18)" fill="#ffffff" stroke="#000000" stroke-width="0.35" stroke-linecap="butt" stroke-linejoin="miter" stroke-miterlimit="3" d="M3.38 3.38C3.38 3.38 3.96 0.237 4.545 0.12C4.545 0.12 6.058 0.585 6.524 0L6.409 3.847C6.409 3.846 6.524 2.215 3.38 3.38ZM0 3.85C0 3.85 0.698 1.055 1.165 1.055C1.633 1.055 2.797 1.754 3.378 1.288L3.378 3.384C3.378 3.384 0.812 2.804 0.467 6.294Z" sodipodi:nodetypes="ccccccccccc"/>
   </g>
  </g>
  <g id="group4" fill="none">
   <path id="shape36" transform="translate(840.116782814801, 258.035413153345)" fill="#00ad50" stroke="#000000" stroke-width="0.78" stroke-linecap="butt" stroke-linejoin="miter" stroke-miterlimit="4.80000019073486" d="M0.0432172 1.96459C0.0432172 1.96459 7.95722 9.31459 5.88822 15.7226C5.88822 15.7226 10.9752 4.79059 5.51322 1.58559C0.0432172 -1.61741 -0.143783 0.837587 0.0432172 1.96559Z" sodipodi:nodetypes="ccccc"/>
   <path id="shape37" transform="translate(828.356602085607, 266.351377006181)" fill="#862633" stroke="#000000" stroke-width="0.78" stroke-linecap="butt" stroke-linejoin="miter" stroke-miterlimit="4.80000019073486" d="M1.8134 0.798623C1.8134 0.798623 -0.256602 3.63162 2.0014 5.70462C2.0014 5.70462 -0.446602 9.27862 1.4414 12.2996C1.4414 12.2996 -0.0686021 15.5026 0.308398 18.8956C0.308398 18.8956 -1.0126 24.1706 1.8134 26.6256C1.8134 26.6256 4.8314 28.1336 6.1534 26.8136C6.1534 26.8136 8.7894 22.8566 7.0914 18.7046C7.0914 18.7046 8.9764 15.3146 6.9034 10.9796C6.9034 10.9796 7.4704 8.52962 5.7734 5.70562C5.7734 5.70562 6.9034 3.81762 5.9594 2.31162C5.9594 2.31162 2.1924 -1.64938 1.8134 0.798623Z" sodipodi:nodetypes="ccccccccccc"/>
   <path id="shape38" transform="translate(809.438, 231.912)" fill="#00ad50" stroke="#000000" stroke-width="0.78" stroke-linecap="butt" stroke-linejoin="miter" stroke-miterlimit="4.80000019073486" d="M22.992 26.008C22.992 26.008 13.57 7.918 6.972 7.16C0.374 6.405 0 0 0 0C0 0 0.752 3.015 6.031 3.015C11.309 3.015 21.487 10.364 22.616 16.018C23.746 21.671 24.879 20.92 24.879 20.92Z" sodipodi:nodetypes="ccccccc"/>
   <path id="shape39" transform="translate(831.236397074323, 232.095)" fill="#00ad50" stroke="#000000" stroke-width="0.78" stroke-linecap="butt" stroke-linejoin="miter" stroke-miterlimit="4.80000019073486" d="M1.1936 24.505C1.1936 24.505 4.5876 1.7 19.4796 1.321C34.3646 0.941 29.4686 2.451 33.0466 0C33.0466 0 23.0616 5.281 16.8386 6.032C10.6216 6.786 5.5306 18.844 5.7196 21.112C5.9066 23.371 2.3286 27.708 0.631603 26.202C-1.0654 24.693 1.1946 24.505 1.1946 24.505Z" sodipodi:nodetypes="cccccccc"/>
   <path id="shape40" transform="translate(816.289459934155, 254.847017377557)" fill="#00ad50" stroke="#000000" stroke-width="0.78" stroke-linecap="butt" stroke-linejoin="miter" stroke-miterlimit="4.80000019073486" d="M19.5305 10.243C19.5305 10.243 22.9215 1.19598 28.7655 4.21398C28.7655 4.21398 24.2395 -4.45902 16.1365 3.07998C16.1365 3.07998 19.7185 7.97998 19.5305 10.243ZM8.22054 1.18298C8.22054 1.18298 13.1225 21.353 5.58154 27.57C5.58154 27.57 5.76854 17.209 1.24654 10.988C-3.27346 4.76498 5.76854 -2.01502 8.22054 1.18298Z" sodipodi:nodetypes="cccccccc"/>
   <path id="shape41" transform="translate(824.329, 255.475)" fill="#00ad50" stroke="#000000" stroke-width="0.78" stroke-linecap="butt" stroke-linejoin="miter" stroke-miterlimit="4.80000019073486" d="M0.751 4.145C0.751 4.145 9.611 12.629 10.178 15.455C10.745 18.282 12.815 6.975 8.67 3.773C4.523 0.564 0 0 0 0Z" sodipodi:nodetypes="ccccc"/>
   <path id="shape42" transform="translate(808.74, 277.48099984082)" fill="#862633" stroke="#000000" stroke-width="0.78" stroke-linecap="butt" stroke-linejoin="miter" stroke-miterlimit="4.80000019073486" d="M0 4.369C0 4.369 0.803 7.929 2.988 8.619C2.988 8.619 3.101 11.264 5.056 12.067C5.056 12.067 4.019 14.251 5.746 15.627C5.746 15.627 5.399 19.994 7.009 20.916C7.009 20.916 10.92 20.686 12.294 19.536C12.294 19.536 13.1 16.668 10.92 13.789C10.92 13.789 11.26 11.031 9.077 9.539C9.077 9.539 9.767 5.859 7.008 4.482C7.008 4.482 6.551 1.492 4.824 1.5918e-07C4.825 -0.000999841 1.494 4.71 0 4.369Z" sodipodi:nodetypes="ccccccccccc"/>
   <path id="shape43" transform="translate(795.058, 276.036648694075)" fill="#00ad50" stroke="#000000" stroke-width="0.78" stroke-linecap="butt" stroke-linejoin="miter" stroke-miterlimit="4.80000019073486" d="M18.042 1.44335C18.042 1.44335 6.436 -2.80865 0 3.28335C0 3.28335 9.88 4.66335 11.147 6.61635C12.411 8.56635 18.499 3.40035 18.042 1.44335Z" sodipodi:nodetypes="cccc"/>
   <path id="shape44" transform="translate(785.715995197581, 240.624342560309)" fill="#00ad50" stroke="#000000" stroke-width="0.78" stroke-linecap="butt" stroke-linejoin="miter" stroke-miterlimit="4.80000019073486" d="M23.824 44.0957C23.824 44.0957 22.906 43.2927 21.758 42.4857C20.608 41.6837 10.842 39.0397 9.458 48.4627C9.458 48.4627 5.895 39.1557 11.067 37.8897C16.242 36.6237 20.379 39.6137 23.824 44.0957M16.184 24.8357C16.184 24.8357 19.761 32.5617 21.084 32.9437C22.402 33.3157 23.344 32.0017 23.344 32.0017C23.344 32.0017 18.634 25.0277 16.184 24.8357ZM13.544 12.9657C13.544 12.9657 10.526 2.97766 6.948 5.61566C3.367 8.25466 4.308 15.4137 4.308 15.4137C4.308 15.4137 -2.854 8.06766 1.291 2.22166C5.443 -3.62034 13.544 2.78766 13.544 12.9657Z" sodipodi:nodetypes="cccccccccccccc"/>
   <path id="shape45" transform="translate(807.37, 272.007130658248)" fill="#862633" stroke="#000000" stroke-width="0.78" stroke-linecap="butt" stroke-linejoin="miter" stroke-miterlimit="4.80000019073486" d="M0 2.12287C0 2.12287 0 4.00787 1.32 4.57087C2.64 5.13687 5.09 6.07587 5.09 4.95087C5.09 3.81987 3.206 -0.516131 2.448 0.0508693C1.693 0.617869 0.379 0.610869 0 2.12287Z" sodipodi:nodetypes="ccccc"/>
   <path id="shape46" transform="translate(805.104775487486, 249.073)" fill="#00ad50" stroke="#000000" stroke-width="0.78" stroke-linecap="butt" stroke-linejoin="miter" stroke-miterlimit="4.80000019073486" d="M0.00522451 13.377C0.00522451 13.377 -0.371775 4.709 5.27922 1.501C5.27922 1.501 6.41322 1.695 6.97922 0C6.97922 0 2.45122 10.927 3.77222 16.393L3.58522 17.148" sodipodi:nodetypes="ccccc"/>
   <path id="shape47" transform="translate(806.24, 236.574181958852)" fill="#00ad50" stroke="#000000" stroke-width="0.78" stroke-linecap="butt" stroke-linejoin="miter" stroke-miterlimit="4.80000019073486" d="M0 15.3158C0 15.3158 10.177 -5.79618 22.618 1.55382C22.618 1.55382 9.614 4.19382 4.904 13.4298L0.189 20.3968L0.001 15.3148Z" sodipodi:nodetypes="cccccc"/>
   <path id="shape48" transform="translate(787.008, 239.946893237199)" fill="#00ad50" stroke="#000000" stroke-width="0.78" stroke-linecap="butt" stroke-linejoin="miter" stroke-miterlimit="4.80000019073486" d="M13.762 19.6731C13.762 19.6731 10.745 5.53911 8.862 3.65711C6.975 1.77111 3.771 -0.301893 0 2.90111C0 2.90111 6.6 -2.94389 13.572 1.95911C20.543 6.85911 19.036 14.5871 19.036 14.5871L18.285 24.3891L13.572 20.0531" sodipodi:nodetypes="ccccccc"/>
   <path id="shape49" transform="translate(788.347929663068, 259.212906122389)" fill="#00ad50" stroke="#000000" stroke-width="0.78" stroke-linecap="butt" stroke-linejoin="miter" stroke-miterlimit="4.80000019073486" d="M23.3521 17.1771C23.3521 17.1771 10.9121 -6.37491 2.81007 10.3971C2.81007 10.3971 1.29807 14.7291 2.99407 16.4221C2.99407 16.4221 -1.52993 13.0321 0.54407 4.74009C2.61407 -3.54991 16.3721 0.216094 20.3341 7.00309C24.2911 13.7871 25.4241 17.1831 24.8581 17.5551C24.2911 17.9351 23.3511 17.1771 23.3511 17.1771ZM58.4121 23.9671C58.4121 23.9671 67.4621 5.30709 72.7361 13.7871C72.7361 13.7871 74.2421 17.9321 71.9791 19.6321C71.9791 19.6321 68.4021 15.2971 65.1991 20.5741C61.9941 25.8491 63.3141 25.4761 63.3141 25.4761C63.3141 25.4761 59.9201 26.4181 58.4121 23.9661Z" sodipodi:nodetypes="ccccccccccccccc"/>
   <path id="shape50" transform="translate(860.32, 261.694)" fill="#00ad50" stroke="#000000" stroke-width="0.78" stroke-linecap="butt" stroke-linejoin="miter" stroke-miterlimit="4.80000019073486" d="M0 17.146C0 17.146 4.9 19.781 3.209 25.059C3.209 25.059 9.8 12.434 0.757 11.301C0.758 11.301 2.455 15.261 0 17.146ZM0.57 4.336C0.57 4.336 12.446 7.726 12.822 12.82C12.822 12.82 14.898 3.015 8.111 0C8.111 0.001 0.004 1.322 0.57 4.336Z" sodipodi:nodetypes="cccccccc"/>
   <path id="shape51" transform="translate(855.427, 241.226336329962)" fill="#00ad50" stroke="#000000" stroke-width="0.78" stroke-linecap="butt" stroke-linejoin="miter" stroke-miterlimit="4.80000019073486" d="M10.743 9.15366C15.833 -0.835336 22.241 12.3577 22.241 12.3577C22.241 12.3577 24.501 1.99366 18.096 0.105664C11.685 -1.77834 7.54 22.1557 7.54 22.1557L0 23.8527C0 23.8527 2.074 2.93566 13.381 1.04766L14.699 1.23766" sodipodi:nodetypes="ccccccc"/>
   <path id="shape52" transform="translate(843.444772442802, 237.9119663208)" fill="#00ad50" stroke="#000000" stroke-width="0.78" stroke-linecap="butt" stroke-linejoin="miter" stroke-miterlimit="4.80000019073486" d="M13.6752 18.498C13.6752 18.498 6.51523 3.79803 1.61423 2.29203C-3.28777 0.784034 4.25623 -1.47797 7.27123 1.34803C10.2812 4.17203 15.9362 7.75603 15.3722 15.296ZM6.32523 38.668C6.32523 38.668 8.39723 28.683 14.0512 25.665C19.7042 22.647 24.9832 23.781 24.9832 23.781C24.9832 23.781 18.1952 25.286 17.0692 28.683C15.9362 32.073 14.0512 32.26 14.0512 32.26Z" sodipodi:nodetypes="ccccccccccc"/>
   <path id="shape53" transform="translate(841.931687562602, 283.18)" fill="#862633" stroke="#000000" stroke-width="0.78" stroke-linecap="butt" stroke-linejoin="miter" stroke-miterlimit="4.80000019073486" d="M4.82831 0C4.82831 0 1.62531 6.032 2.37631 6.972C2.37631 6.972 -1.01369 11.872 0.304312 14.322C0.304312 14.322 3.69831 16.961 5.20631 15.828C5.20631 15.828 9.15931 10.366 8.03031 7.348C8.03031 7.348 10.6683 3.77 9.73031 1.51C9.73031 1.51 5.77431 1.697 4.82831 0Z" sodipodi:nodetypes="ccccccc"/>
   <path id="shape54" transform="translate(811.64, 271.695)" fill="#000000" stroke-opacity="0" stroke="#000000" stroke-width="0" stroke-linecap="square" stroke-linejoin="bevel" d="M18.54 0.715C18.752 0.823 20.656 1.747 21.936 1.32L22.852 0.537L22.132 0.18C21.662 1.111 19.59 0.343 18.898 0ZM18.23 6.565L18.074 7.355C18.236 7.385 22.06 8.126 23.884 6.506L23.349 5.907C21.825 7.26 18.269 6.576 18.23 6.565ZM17.26 13.225L16.788 13.875C16.834 13.91 21.278 17.075 24.122 13.619L23.499 13.107C21.137 15.975 17.419 13.34 17.26 13.225ZM0 14.185L0.167 14.615C0.327 14.55 4.092 13.038 4.331 10.284L3.874 10.242C3.659 12.714 0.036 14.171 0 14.185ZM2.13 17.625L2.162 18.083C2.309 18.073 5.785 17.813 6.392 15.383L5.944 15.267C5.42 17.374 2.164 17.621 2.13 17.625ZM2.85 21.185L2.825 21.647C2.992 21.654 6.885 21.856 8.207 19.699L7.814 19.456C6.634 21.383 2.888 21.189 2.85 21.185ZM32.38 18.745C32.45 18.818 34.128 20.477 36.09 20.403C37.05 20.369 37.901 19.927 38.62 19.1L38.012 18.572C37.445 19.225 36.788 19.573 36.064 19.601C34.458 19.659 32.96 18.193 32.945 18.175Z" sodipodi:nodetypes="cccccccccccccccccccccccccccccccccccccc"/>
  </g>
  <g id="group5" fill="none">
   <path id="shape55" transform="translate(960.449, 269.119)" fill="#862633" stroke="#000000" stroke-width="0.42" stroke-linecap="butt" stroke-linejoin="miter" stroke-miterlimit="4.80000019073486" d="M0.611 35.101C0.380969 35.1886 0.173274 35.3263 0.003 35.504ZM14.471 31.631C14.337 31.287 14.249 31.431 14.071 31.279C13.818 31.071 13.671 30.403 13.449 30.154C13.317 30.001 13.164 30.15 13.021 30.112C12.697 29.399 12.316 28.648 11.975 27.96C12.0361 27.8644 12.0687 27.7534 12.069 27.64C12.069 27.612 11.909 27.063 11.899 27.039C11.801 26.886 11.647 26.976 11.554 26.739C11.449 26.503 11.529 26.038 11.491 25.759C11.464 25.527 11.373 25.399 11.387 25.071C11.401 24.786 11.554 24.455 11.536 24.205C11.529 24.049 11.345 23.698 11.29 23.565C11.067 23.027 10.88 22.519 10.852 21.855C10.824 21.253 10.945 20.885 10.99 20.363C11.046 19.738 10.715 19.434 10.715 18.857C10.719 18.415 10.905 17.919 10.959 17.523C11.0296 16.8975 11.0406 16.2666 10.992 15.639C10.952 15.107 10.802 14.787 10.884 14.189C10.906 14.043 10.975 13.925 10.992 13.719C10.988 13.573 10.988 13.432 10.988 13.289L10.988 12.431C10.988 12.153 11.016 11.839 10.992 11.568C10.968 11.343 10.836 11.11 10.836 10.932C10.836 10.626 11.031 10.481 10.989 10.066C10.962 9.767 10.919 9.697 10.851 9.437C10.719 8.944 10.809 8.446 10.728 7.917C10.69 7.665 10.609 7.584 10.585 7.295C10.552 6.955 10.656 6.837 10.69 6.595C10.725 6.355 10.76 6.04 10.728 5.785C10.69 5.479 10.545 5.263 10.585 4.93L10.474 8.712C10.38 5.412 10.248 2.357 10.248 2.357L5.23 0C5.23 0 4.805 9.214 4.913 10.496C5.013 11.783 5.445 20.572 5.23 21.643C5.014 22.715 4.486 28.072 4.486 28.072C4.486 28.072 2.032 29.786 1.072 31.712C0.108 33.642 0.324 34.285 0 34.285L2.385 33.913L0.609 35.099C0.791474 35.0243 0.990899 35.0008 1.18575 35.0309C1.3806 35.061 1.5636 35.1437 1.715 35.27C1.755 35.304 2.021 35.53 2.055 35.53C2.148 35.53 2.278 35.292 2.392 35.25C2.762 35.125 3.073 35.818 3.424 35.765C3.612 35.737 3.869 35.539 4.023 35.338C4.15 35.168 4.199 34.868 4.333 34.754C4.455 34.65 4.753 34.771 4.882 34.771C5.232 34.771 5.587 34.782 5.938 34.771C6.405 34.758 6.783 34.101 7.213 33.728C7.614 33.391 7.909 33.272 8.338 33.298C8.807 33.332 9.231 33.77 9.708 33.798C10.069 33.816 10.32 33.86 10.612 33.481C10.813 33.217 10.956 32.825 11.147 32.55L12.333 32.366C12.568 32.464 12.808 32.572 13.009 32.564C13.312 32.55 13.625 32.513 13.925 32.56C14.039 32.575 14.265 32.842 14.358 32.776C14.422 32.727 14.53 32.366 14.595 32.258C14.568 32.113 14.524 31.752 14.471 31.63Z" sodipodi:nodetypes="cccccccccccccccccccccccccccccccccccccccccccccccccccccccccccccccc"/>
   <path id="shape56" transform="translate(958.213789569547, 298.921226914538)" fill="#862633" stroke="#000000" stroke-width="0.42" stroke-linecap="butt" stroke-linejoin="miter" stroke-miterlimit="4.80000019073486" d="M6.55621 5.12877C6.85821 5.12877 7.13621 5.05877 7.39021 5.28077C7.43221 5.36077 7.47021 5.43877 7.50921 5.51377C7.54448 5.54036 7.58594 5.55753 7.62968 5.56365C7.67342 5.56977 7.718 5.56465 7.75921 5.54877C7.93021 5.66377 7.96521 5.72877 8.15221 5.77177C8.32621 5.80877 8.51721 5.76477 8.69121 5.76777C8.91121 5.77477 9.01721 5.85077 9.22221 5.93477C9.58021 6.08077 9.81621 5.94177 10.1262 5.71877C10.4852 5.45477 10.6162 5.65677 10.9602 5.98777C11.2182 6.23377 11.1652 6.21077 11.3982 6.04277C11.4332 5.96277 11.4742 5.88677 11.5132 5.81977C11.6282 5.77177 11.7462 5.73977 11.8632 5.71877C12.0562 5.62877 12.2462 5.63877 12.4282 5.56977C12.6182 5.49577 12.7582 5.28477 12.9592 5.32277C13.1332 5.35777 13.3322 5.49877 13.4982 5.55277C13.6582 5.60677 13.7282 5.63877 13.8602 5.73577C14.1002 5.24277 14.6282 5.09577 14.9662 4.85677C15.3172 4.61377 15.6442 4.90877 16.0302 4.91277C16.2352 4.91277 16.3182 4.79277 16.4642 4.74577C16.6282 4.68577 16.8142 4.77177 16.9722 4.70677C17.1392 4.64477 17.1702 4.48377 17.3542 4.46377C17.6942 4.42177 18.0742 4.97677 18.4142 5.08177C18.6052 5.14477 19.4902 5.34277 19.3602 4.69277C19.2352 4.07277 18.6802 4.50277 18.5602 4.06777C18.4972 3.82077 18.6272 3.46877 18.5502 3.19177C18.4842 2.93877 18.2062 2.64577 18.0392 2.59077C17.8302 2.52477 17.7092 2.74277 17.5312 2.57277C17.3852 2.43677 17.3302 1.92877 17.2012 1.72777C17.0302 1.85277 16.9232 1.96777 16.6972 1.92177C16.4392 1.85977 16.4642 1.77177 16.2722 1.52877C15.8552 1.00677 15.6152 1.84177 15.2302 1.70877C14.9372 1.61577 14.6662 0.878773 14.4362 0.578773C14.3142 0.418773 13.9702 -0.0992269 13.7932 0.0167731C13.4942 0.210773 13.7662 0.774773 13.6102 1.02477C13.4982 1.19877 13.1022 1.02077 12.9602 1.04877C12.7342 1.09777 12.6922 1.15677 12.5282 1.42777C12.1982 1.97377 12.0062 2.40777 11.4932 2.34577C11.2492 2.31777 11.0662 2.07077 10.8282 2.16077C10.5752 2.25777 10.4322 2.52877 10.1542 2.56077C9.95221 2.57677 9.71921 2.58477 9.52121 2.50877C9.32721 2.42077 9.10721 2.05677 8.93021 1.95577C8.89857 1.92633 8.85927 1.9064 8.81682 1.89826C8.77438 1.89013 8.73049 1.89412 8.69021 1.90977C8.67021 1.89977 8.40221 1.74277 8.39821 1.74277C8.08821 1.65277 8.11421 1.66377 7.98821 2.07277C7.91421 2.32677 7.88721 2.58777 7.79321 2.82777C7.70321 3.02977 7.50521 3.27877 7.39021 3.41477C7.17421 3.64777 7.07021 3.58477 6.78921 3.66877C6.56321 3.74277 6.26321 4.09377 6.14221 3.64177C5.96221 2.95977 6.64221 1.94177 5.88421 2.11877C5.68621 2.16477 5.56721 2.20177 5.44621 2.49477C5.31221 2.83177 5.42021 3.04977 5.36021 3.41977C5.28021 3.88477 4.39221 4.66777 4.56821 5.08877C4.68621 5.38477 5.08221 4.92877 5.19021 5.00277C5.37021 5.12677 5.31921 5.42277 5.44721 5.62177C5.71621 6.03177 6.51221 4.98577 6.55721 5.55177M3.33621 1.47877C3.33421 1.41977 3.32321 1.36377 3.31921 1.30277C3.10721 1.26377 2.86721 1.03877 2.67221 1.03477C2.48921 1.02477 2.13021 1.47277 2.00421 1.68777C1.61521 2.33077 1.72421 3.20677 1.06921 3.19377C0.90921 3.18977 0.53421 3.08177 0.39421 3.17877C0.14821 3.35277 0.30421 3.86877 0.30421 4.21877C0.30421 4.54877 0.45421 4.21877 0.27721 4.64677C0.22421 4.76477 0.0652104 4.80277 0.0232104 4.95977C-0.10879 5.51977 0.35621 5.34177 0.56221 5.33577C1.0872 5.33177 1.61222 5.33177 2.13721 5.33577C2.45421 5.34277 2.64521 5.23077 2.94021 5.11577C3.13421 5.04977 3.54821 5.05377 3.71321 4.87977C3.77221 4.81377 3.96321 4.37177 3.99021 4.26777C4.03221 4.05177 3.95021 3.79077 4.00021 3.61077C4.08421 3.29477 4.36721 3.41577 4.41821 2.98877C4.55421 1.94077 3.43621 2.72477 3.61221 1.69477" sodipodi:nodetypes="cccccccccccccccccccccccccccccccccccccccccccccccccccccccccccccccccccccccccc"/>
  </g>
  <g id="group6" fill="none">
   <path id="shape57" transform="translate(963.278, 265.81)" fill="#000000" stroke="#000000" stroke-width="0.78" stroke-linecap="butt" stroke-linejoin="miter" stroke-miterlimit="4.80000019073486" d="M10.932 5.47C10.932 6.826 10.004 7.918 8.854 7.918C7.717 7.918 6.781 6.826 6.781 5.47C6.781 4.118 7.716 3.018 8.854 3.018C10.004 3.019 10.932 4.118 10.932 5.47ZM4.152 2.45C4.152 3.802 3.223 4.898 2.078 4.898C0.931 4.898 0 3.802 0 2.45C0 1.098 0.931 0 2.078 0C3.223 0 4.152 1.098 4.152 2.45Z" sodipodi:nodetypes="cccccccccc"/>
   <path id="shape58" transform="translate(966.864, 266.75)" fill="#000000" stroke="#000000" stroke-width="0.78" stroke-linecap="butt" stroke-linejoin="miter" stroke-miterlimit="4.80000019073486" d="M4.146 2.45C4.146 3.806 3.217 4.898 2.072 4.898C0.927 4.898 0 3.806 0 2.45C0 1.094 0.928 0 2.072 0C3.216 0 4.146 1.095 4.146 2.45Z" sodipodi:nodetypes="ccccc"/>
   <path id="shape59" transform="translate(963.392, 268.992)" fill="#000000" stroke="#000000" stroke-width="0.78" stroke-linecap="butt" stroke-linejoin="miter" stroke-miterlimit="4.80000019073486" d="M4.148 2.448C4.148 3.804 3.216 4.902 2.072 4.902C0.928 4.902 0 3.802 0 2.448C0 1.096 0.927 0 2.072 0C3.217 0 4.148 1.094 4.148 2.448Z" sodipodi:nodetypes="ccccc"/>
   <path id="shape60" transform="translate(966.609, 270.862)" fill="#000000" stroke="#000000" stroke-width="0.78" stroke-linecap="butt" stroke-linejoin="miter" stroke-miterlimit="4.80000019073486" d="M4.151 2.448C4.151 3.8 3.216 4.902 2.076 4.902C0.933 4.902 0 3.8 0 2.448C0 1.096 0.933 0 2.076 0C3.215 0.001 4.151 1.096 4.151 2.448Z" sodipodi:nodetypes="ccccc"/>
  </g>
  <path id="shape61" transform="translate(921.058999999999, 226.238)" fill="#00ad50" stroke="#000000" stroke-width="0.78" stroke-linecap="butt" stroke-linejoin="miter" stroke-miterlimit="4.80000019073486" d="M50.701 20.342C50.701 20.342 71.619 -8.867 94.049 21.476C94.049 21.476 94.236 24.494 92.164 27.696L91.597 25.248L90.279 25.622L89.903 24.115L87.448 23.928L88.206 20.722L85.564 22.796L85.943 20.533L82.927 23.553L83.307 17.142L80.1 22.608L80.476 18.841L79.346 20.534L78.666 18.338L77.653 20.534L76.141 19.406L76.141 20.913L73.506 18.651L72.564 21.666L71.245 18.464L70.867 20.724L69.545 18.084L69.361 20.914L65.022 19.027L65.964 21.666L63.895 20.161L64.271 21.666L61.447 21.103L61.632 22.797L58.617 22.231L59.184 23.737L55.036 23.175L56.538 24.871L56.121 25.561C56.121 25.561 78.781 18.088 80.289 46.357L76.141 48.429L77.274 46.173L76.141 45.416L72.751 42.781L73.693 39.196L72.564 39.576L72.374 37.503L71.809 37.879L70.487 35.806L70.111 36.561L69.169 34.107L68.227 35.807L67.66 31.659L66.155 34.302L65.963 32.793L65.397 33.735L63.513 31.472L62.953 32.98L62.193 31.85L61.631 33.168L59.557 31.28L59.557 32.793L58.24 31.659L57.669 32.414L54.471 30.717L54.275 32.222L52.583 30.717L52.015 32.222C52.015 32.222 72.565 43.911 66.152 62.947L65.018 65.395L64.646 58.991L62.762 62.381L64.072 55.031L62.762 56.348L62.568 53.525L60.878 56.348L60.304 53.147L59.556 54.089L58.42 49.187L57.478 51.263L55.972 45.797L54.842 48.057L54.088 43.349L53.333 46.175L51.07 42.026L50.696 43.719L49.379 40.329L48.62 41.463C48.62 41.463 44.851 41.271 43.722 40.329C42.592 39.391 39.386 45.986 39.386 45.986L39.764 42.026L38.447 44.661L38.447 42.026L35.995 49.94L35.429 44.287L34.11 49.187L33.542 47.682L33.167 49.757L32.412 48.999L31.754 51.224L30.524 50.321L30.524 53.335L29.395 51.827L28.453 56.351L27.889 54.471L27.889 56.539L26.947 55.413L26.002 59.937L24.684 58.053L24.499 61.253L25.059 63.707L23.554 62.952L24.121 66.905C24.121 66.905 18.277 55.978 25.254 45.421C32.222 34.871 41.647 32.041 41.647 32.041L40.701 31.103L40.514 30.158L34.861 32.984L35.051 31.284L33.542 32.604L33.167 30.72L32.221 32.417L32.037 31.662L30.715 33.738L29.958 30.72L29.018 34.305L28.129 31.798L26.192 37.128L26.192 33.171L24.684 37.319L24.12 32.795L22.99 38.069L22.99 33.358L21.29 38.069L20.161 33.549L19.406 37.881L18.277 34.491L17.143 39.578L15.45 35.054L14.508 41.841L13.378 39.198L13.188 44.1L11.873 41.086L13.188 47.49L11.491 45.042L12.059 48.999L9.611 44.663L9.798 49.757L8.477 48.057L7.909 49.942C7.909 49.942 7.349 30.342 20.725 26.57C34.111 22.802 42.78 27.703 42.78 27.703L37.693 23.558L38.257 22.237L36.373 22.237L37.127 20.728L33.17 20.919L34.3 19.411L31.282 19.786L31.282 18.846L29.398 20.349L30.152 18.656L27.514 20.349L27.353 17.842L26.004 19.977L25.256 17.714L19.222 23.742L20.917 17.524L19.788 18.846L19.601 17.524L17.904 20.166L17.526 18.279L16.771 20.539L16.204 17.902L14.89 20.539L13.567 18.093L13.004 21.298L12.059 19.598L10.929 22.048L9.424 20.538L9.233 22.048L6.217 20.728L6.972 22.992L4.709 21.108L4.141 24.122L2.826 22.614L1.884 26.386L0.942 22.803L0 25.63C0 25.63 11.786 -4.656 41.605 15.104C41.605 15.104 44.852 18.28 45.607 20.54C46.362 22.804 45.797 20.92 45.797 20.92L45.23 0L46.36 9.047L47.114 5.841L46.927 10.554L49.939 3.956C49.939 3.956 46.362 14.889 47.679 18.846C47.679 18.846 49.001 6.22 53.527 4.71L49.379 13.756L50.696 13.566L49.754 15.454L50.884 15.454L49.518 18.444L48.811 19.978L49.562 21.484L50.701 20.343Z" sodipodi:nodetypes="ccccccccccccccccccccccccccccccccccccccccccccccccccccccccccccccccccccccccccccccccccccccccccccccccccccccccccccccccccccccccccccccccccccccccccccccccccccccccccccccccccccccccccccccccccccccccccccccccccccccccccccc"/>
  <path id="shape62" transform="translate(967.562000000002, 245.014)" fill="#000000" stroke-opacity="0" stroke="#000000" stroke-width="0" stroke-linecap="square" stroke-linejoin="bevel" d="M1.098 13.856L1.692 14.391C1.772 14.308 3.636 12.322 6.766 14.965L7.284 14.349C3.542 11.185 1.114 13.827 1.098 13.856ZM0.188 3.596L0.066 4.321L1.519 3.701C1.18763 4.28459 0.854625 4.86726 0.52 5.449L2.688 4.728C1.79229 5.90055 0.896285 7.07288 0 8.245L0.64 8.739L4.916 3.138L2.259 4.024C2.536 3.542 3.399 2.019 3.399 2.019L1.101 3.007L1.576 0.133L0.781 0Z" sodipodi:nodetypes="ccccccccccccccccccc"/>
  <path id="shape63" transform="translate(961.02, 247.627)" fill="#000000" stroke-opacity="0" stroke="#000000" stroke-width="0" stroke-linecap="square" stroke-linejoin="bevel" d="M2.74 1.213C2.74 1.213 3.268 2.382 3.665 3.252C3.494 3.181 2.19 2.659 2.19 2.659L6.54 10.353C6.54 10.353 7.065 9.683 7.096 9.641C6.658 10.764 6.22 11.897 6.22 11.897L6.971 12.189L8.846 7.367L8.154 6.974L6.644 8.907C6.238 8.184 4.734 5.521 4.019 4.262C4.109 4.296 5.226 4.746 5.226 4.746C5.226 4.746 4.406 2.934 4.023 2.093L5.653 3.111L5.653 0.243L4.85 0.243L4.85 1.662L2.187 0ZM0 10.873L0.32 11.61C1.498 11.106 2.468 11.022 3.205 11.373C4.068 11.787 4.328 12.677 4.331 12.683L5.106 12.475C5.096 12.423 4.754 11.227 3.563 10.653C2.611 10.195 1.411 10.268 0 10.873ZM3.376 19.023L2.716 14.808L3.511 14.683L4.172 18.897ZM9.165 18.329L8.091 15.109L8.856 14.854L9.929 18.074ZM11.289 20.709L10.482 17.493L11.264 17.297L12.071 20.513Z" sodipodi:nodetypes="ccccccccccccccccccccccccccccccccccccccccc"/>
  <path id="shape64" transform="translate(801.39, 351.168)" fill="#00ad50" stroke="#000000" stroke-width="0.78" stroke-linecap="butt" stroke-linejoin="miter" stroke-miterlimit="4.80000019073486" d="M10.02 13.872C10.02 13.872 6.486 12.266 4.877 13.442C3.269 14.623 3.488 16.334 2.094 16.226C2.094 16.226 7.448 17.405 8.626 16.01C9.803 14.623 10.02 14.191 10.02 14.191M10.67 15.352C10.67 15.352 8.344 18.462 9.148 20.282C9.95 22.104 11.671 22.26 11.264 23.597C11.264 23.597 13.566 18.623 12.46 17.171C11.355 15.729 10.986 15.426 10.986 15.426M6.75 6.742C6.75 6.742 3.04 7.892 2.624 9.837C2.198 11.783 3.503 12.923 2.392 13.768C2.392 13.768 7.174 11.088 7.129 9.262C7.084 7.439 6.966 6.978 6.966 6.978M8.93 8.022C8.93 8.022 10.69 4.555 9.582 2.904C8.476 1.241 6.75 1.384 6.92 0C6.92 0 5.506 5.296 6.847 6.536C8.19 7.766 8.61 8.004 8.61 8.004M5.29 6.762C5.29 6.762 5.375 2.886 3.658 1.873C1.943 0.858 0.449 1.732 0 0.406C0 0.406 1.026 5.795 2.774 6.334C4.52 6.859 5.001 6.89 5.001 6.89M11.63 13.222C11.63 13.222 15.698 11.825 16.022 16.22C16.342 20.61 15.806 19.113 15.806 19.113C15.806 19.113 13.664 14.4 11.31 13.649Z" sodipodi:nodetypes="cccccccccccccccccccccccccccccc"/>
  <path id="shape65" transform="translate(811.99, 359.204)" fill="#000000" stroke-opacity="0" stroke="#000000" stroke-width="0" stroke-linecap="square" stroke-linejoin="bevel" d="M0 7.386C0 7.48 0.426 10.8 0.426 10.8L0.998 10.727L0.568 7.405C0.582 7.409 1.958 0.105 1.958 0.105L1.391 0Z" sodipodi:nodetypes="ccccccc"/>
  <path id="shape66" transform="translate(804.286, 355.902)" fill="#000000" stroke-opacity="0" stroke="#000000" stroke-width="0" stroke-linecap="square" stroke-linejoin="bevel" d="M4.004 9.608L3.814 10.15C5.76 10.834 8.475 8.696 8.588 8.606L8.228 8.158C8.204 8.175 5.65 10.192 4.004 9.608ZM9.102 5.322L0 0.717L0.363 0L9.465 4.605Z" sodipodi:nodetypes="cccccccccc"/>
  <path id="shape67" transform="translate(806.222, 354.789)" fill="#000000" stroke-opacity="0" stroke="#000000" stroke-width="0" stroke-linecap="square" stroke-linejoin="bevel" d="M0.568 5.401L0 4.834L1.821 3.014L2.388 3.582ZM3.753 4.516L1.826 0.336L2.555 0L4.483 4.18ZM6.448 9.631L6.5 10.435C8.975 10.267 9.58 11.87 9.584 11.888L10.374 11.724C10.28 11.265 9.288 9.44 6.448 9.631Z" sodipodi:nodetypes="ccccccccccccccc"/>
  <path id="shape68" transform="translate(809.993, 348.904)" fill="#ffffff" stroke="#000000" stroke-width="1" stroke-linecap="butt" stroke-linejoin="miter" stroke-miterlimit="4.80000019073486" d="M44.437 17.366C47.472 15.666 48.08 9.709 48.08 9.709C47.354 11.9 41.77 14.084 41.77 14.084C45.896 11.528 50.871 0 50.871 0C49.537 4.13 38.733 7.526 31.811 11.411C24.888 15.294 28.532 26.469 28.532 26.469C26.592 25.132 22.826 19.186 22.1 13.96C21.367 8.741 19.304 6.68 14.569 6.071C9.831 5.463 7.04 10.803 7.04 10.803L0 14.45L7.159 14.69C7.159 14.69 12.265 16.394 12.265 20.4C12.265 24.408 7.772 40.434 15.175 49.421C20.328 55.666 39.341 59.254 39.341 59.254" sodipodi:nodetypes="cccccccccccccc"/>
  <path id="shape69" transform="translate(840.47, 353.88)" fill="#ffffff" stroke="#000000" stroke-width="1" stroke-linecap="butt" stroke-linejoin="miter" stroke-miterlimit="4.80000019073486" d="M0 24.77C0 24.77 1.457 17.605 6.192 17.848C10.927 18.091 12.262 12.508 15.055 11.656C17.848 10.808 32.297 6.925 33.876 0C33.876 0 32.541 11.416 19.308 17.122C19.308 17.122 29.989 13.599 31.206 11.292C31.206 11.292 26.467 21.492 14.934 23.07C14.934 23.07 25.74 22.221 27.319 19.309C27.319 19.309 22.462 25.742 14.45 26.594C14.45 26.594 21.855 29.629 23.8 27.078C23.8 27.078 19.791 31.813 14.811 32.174L16.151 32.54C16.151 32.54 11.415 38.127 6.193 34.362C0.974 30.596 0.849 35.336 0.849 35.336" sodipodi:nodetypes="cccccccccccccc"/>
  <path id="shape70" transform="translate(848.472, 389.45)" fill="#ffffff" stroke="#000000" stroke-width="1" stroke-linecap="butt" stroke-linejoin="miter" stroke-miterlimit="4.80000019073486" d="M2.778 0C2.778 0 8.876 10.202 9.485 15.665C9.485 15.665 21.143 28.537 25.513 29.26C25.513 29.26 23.448 30.108 19.682 26.955C19.682 26.955 22.839 30.233 23.448 30.355C24.052 30.48 20.896 30.112 20.409 29.26C20.409 29.26 21.747 31.208 22.596 31.45C23.448 31.694 21.747 31.208 21.747 31.208C21.747 31.208 20.166 30.964 19.438 30.356C18.708 29.751 19.195 31.931 19.195 31.931C19.195 31.931 17.373 31.445 16.768 30.839C16.16 30.234 17.012 32.179 17.012 32.179L15.434 31.812L14.342 32.538C14.342 32.538 14.22 33.268 13.486 32.661C12.763 32.06 11.425 32.661 11.425 32.661C11.425 32.661 10.45 33.513 9.968 32.904C9.486 32.298 7.645 35.24 7.645 35.24L0 16.785" sodipodi:nodetypes="ccccccccccccccccccc"/>
  <path id="shape71" transform="translate(816.702, 359.277948004092)" fill="#000000" stroke-opacity="0" stroke="#000000" stroke-width="0" stroke-linecap="square" stroke-linejoin="bevel" d="M41.803 63.6501L32.141 45.2571L33.155 44.7241L42.818 63.1171ZM50.245 62.4101L33.714 43.9001L34.572 43.1341L51.104 61.6441ZM54.016 60.7781L35.152 43.1981L35.935 42.3581L54.8 59.9381ZM6.738 1.56205C6.738 1.56205 5.507 -0.641948 4.435 0.186052C3.366 1.01105 2.75 1.16205 2.565 1.10505C2.565 1.10505 3.641 1.16405 4.252 0.583052C4.865 -0.002948 5.908 0.367052 6.738 1.56205ZM0.078 0.552052C0.078 0.552052 0.754 1.95005 0.763 1.97405C0.695 1.97805 0 4.23105 0 4.23105L0.553 4.40105L1.303 1.94805C1.29 1.73505 0.6 0.306052 0.6 0.306052Z" sodipodi:nodetypes="ccccccccccccccccccccccccccc"/>
  <path id="shape72" transform="translate(819.732, 360.5)" fill="#000000" stroke-opacity="0" stroke="#000000" stroke-width="0" stroke-linecap="square" stroke-linejoin="bevel" d="M3.428 0C3.428 0 2.51 1.075 1.252 0.766L0 0.46C0 0.46 1.066 0.52 1.776 0.553C2.476 0.582 3.394 0.216 3.428 0Z" sodipodi:nodetypes="ccccc"/>
  <path id="shape73" transform="translate(820.96, 359.784059602)" fill="#000000" stroke-opacity="0" stroke="#000000" stroke-width="0" stroke-linecap="square" stroke-linejoin="bevel" d="M1.9 0.93594C1.9 0.93594 0.768 -0.25906 0 0.0779404C0 0.0779404 1.35 -0.35206 2.116 0.80794Z" sodipodi:nodetypes="cccc"/>
  <path id="shape74" transform="translate(819.885, 360.285)" fill="#000000" stroke-opacity="0" stroke="#000000" stroke-width="0" stroke-linecap="square" stroke-linejoin="bevel" d="M2.785 0.215C2.785 0.215 1.499 1.102 0.086 0.125L0 0.059L0.183 0C0.184 0.001 1.961 0.735 2.785 0.215Z" sodipodi:nodetypes="ccccc"/>
  <circle id="shape75" transform="translate(821.19, 359.901)" r="0.383" cx="0.383" cy="0.383" fill="#000000" stroke-opacity="0" stroke="#000000" stroke-width="0" stroke-linecap="square" stroke-linejoin="bevel"/>
  <path id="shape76" transform="translate(821.984174825092, 394.2)" fill="#000000" stroke-opacity="0" stroke="#000000" stroke-width="0" stroke-linecap="square" stroke-linejoin="bevel" d="M0.625825 0C0.625825 0 -0.370175 1.834 0.150825 2.939C0.678825 4.042 3.04083 4.614 3.35583 6.085C3.67283 7.56 4.46083 7.556 5.56383 7.351C6.66883 7.139 6.87783 7.087 6.87783 7.087C6.87783 7.087 2.25283 4.614 1.04383 0.627Z" sodipodi:nodetypes="ccccccc"/>
  <g id="group7" fill="none">
   <path id="shape77" transform="translate(971.355175683997, 348.178098181746)" fill="#862633" stroke="#000000" stroke-width="0.48" stroke-linecap="butt" stroke-linejoin="miter" stroke-miterlimit="4.80000019073486" d="M0.734824 8.6719C0.734824 8.6719 9.15282 -2.4271 16.6168 0.487902C24.0818 3.4049 28.9328 4.8089 28.9328 4.8089C28.9328 4.8089 29.0748 12.2839 25.1048 12.2839C21.1448 12.2839 17.3478 4.8189 13.7388 7.0379C10.1228 9.2529 7.15482 12.2879 6.92082 13.3339C6.68782 14.3819 -2.64118 14.6169 0.735824 8.6719Z" sodipodi:nodetypes="cccccccc"/>
   <path id="shape78" transform="translate(938.589951152199, 410.345843058835)" fill="#862633" stroke="#000000" stroke-width="0.78" stroke-linecap="butt" stroke-linejoin="miter" stroke-miterlimit="4.80000019073486" d="M1.55005 0.0241569C1.55005 0.0241569 -0.777951 2.46816 0.272049 3.05516C1.32605 3.63616 3.41805 2.93316 3.41805 2.12016C3.41805 1.30016 2.02305 -0.208843 1.55005 0.0241569Z" sodipodi:nodetypes="cccc"/>
   <path id="shape79" transform="translate(922.291485143128, 412.186990925238)" fill="#862633" stroke="#000000" stroke-width="0.78" stroke-linecap="butt" stroke-linejoin="miter" stroke-miterlimit="4.80000019073486" d="M15.9885 0.513009C15.9885 0.513009 11.6765 -1.94199 8.29451 3.88901C4.90751 9.71901 2.11251 19.166 0.130515 20.449C-1.85049 21.731 19.3715 11.121 19.6055 6.69101C19.6055 6.69101 21.0025 0.975009 18.7885 1.08901C16.5735 1.21101 16.4555 1.44501 15.9885 0.513009Z" sodipodi:nodetypes="cccccc"/>
   <path id="shape80" transform="translate(926.036, 352.99)" fill="#862633" stroke="#000000" stroke-width="0.48" stroke-linecap="butt" stroke-linejoin="miter" stroke-miterlimit="4.80000019073486" d="M12.824 60.41C12.824 60.41 8.394 61.453 7.462 67.747C6.53 74.05 0.348 77.312 0 77.544M74.264 0C74.264 0 67.526 2.344 68.69 7.01" sodipodi:nodetypes="ccccc"/>
  </g>
  <path id="shape81" transform="translate(948.54, 351.340713654725)" fill="#fedd00" stroke="#000000" stroke-width="0.48" stroke-linecap="butt" stroke-linejoin="miter" stroke-miterlimit="4.80000019073486" d="M0 15.2993C0 15.2993 0.232 -0.676714 13.284 0.0222863C15.757 0.252286 14.578 3.16829 14.578 3.16829C14.578 3.16829 17.401 1.19129 18.691 4.33429C18.691 4.33429 22.808 2.47029 23.276 6.55229C23.276 6.55229 27.746 5.97229 27.156 9.58429C27.156 9.58429 30.212 8.88529 30.098 11.4513C30.098 11.4513 33.624 10.0513 33.268 13.6663C33.268 13.6663 37.15 11.1003 36.565 15.7623C36.565 15.7623 40.564 12.9683 41.969 17.6313C43.38 22.2933 37.974 32.2053 32.682 34.7693" sodipodi:nodetypes="ccccccccccc"/>
  <path id="shape82" transform="translate(952.63, 354.295)" fill="#000000" stroke-opacity="0" stroke="#000000" stroke-width="0" stroke-linecap="square" stroke-linejoin="bevel" d="M32.18 13.315C32.198 13.44 33.94 25.813 26.923 30.341L27.17 30.731C34.44 26.041 32.652 13.375 32.636 13.247ZM23.73 26.865L24.054 27.195C28.498 22.87 29.454 11.219 29.488 10.726L29.033 10.688C29.022 10.81 28.056 22.662 23.73 26.865ZM19.58 24.095L20.038 24.132C20.61 16.937 26.234 8.707 26.294 8.623L25.914 8.365C25.856 8.447 20.164 16.778 19.58 24.095ZM16.32 21.995L16.778 22.041C17.578 13.361 23.311 6.845 23.368 6.783L23.027 6.475C22.967 6.539 17.136 13.163 16.32 21.995ZM11.77 19.095L12.228 19.112C12.684 8.862 19.408 3.832 19.475 3.782L19.203 3.411C19.138 3.462 12.236 8.611 11.77 19.095ZM7.57 16.545L8.032 16.531C7.696 7.203 14.867 1.619 14.942 1.561L14.663 1.197C14.59 1.257 7.229 6.977 7.57 16.545ZM0 13.135L0.455 13.191C1.704 3.094 10.691 0.466 10.781 0.441L10.656 0C10.566 0.024 1.283 2.729 0 13.135Z" sodipodi:nodetypes="ccccccccccccccccccccccccccccccccccc"/>
  <path id="shape83" transform="translate(940.59466606462, 366.505811294645)" fill="#00ad50" stroke="#000000" stroke-width="0.48" stroke-linecap="butt" stroke-linejoin="miter" stroke-miterlimit="4.80000019073486" d="M0.245334 19.4942C0.245334 19.4942 -1.96667 4.68119 6.89333 0.0221887C6.89333 0.0221887 8.53033 -0.329811 9.45933 1.77019C9.45933 1.77019 14.1253 -0.209811 14.2433 3.74819C14.2433 3.74819 16.5733 1.88419 17.1573 4.44819C17.1573 4.44819 22.1703 3.40119 21.2373 7.13119C21.2373 7.13119 25.4343 5.96619 25.0843 9.57619C25.0843 9.57619 29.2843 8.06219 28.5813 11.2112C28.5813 11.2112 33.0103 10.1642 31.9633 13.7782C31.9633 13.7782 37.4463 13.1972 35.8133 17.0432C35.8133 17.0432 39.8943 15.9952 38.9593 19.1432C38.9593 19.1432 44.3253 20.0782 41.8733 23.4582C39.4253 26.8362 33.2433 31.9682 27.1873 34.1822" sodipodi:nodetypes="ccccccccccccc"/>
  <path id="shape84" transform="translate(935.111012641281, 385.366990598578)" fill="#00ad50" stroke="#000000" stroke-width="0.48" stroke-linecap="butt" stroke-linejoin="miter" stroke-miterlimit="4.80000019073486" d="M0.948987 15.553C0.948987 15.553 -2.66701 3.19801 4.21799 0.0440094C4.21799 0.0440094 5.49299 -0.307991 5.72799 0.979009C5.72799 0.979009 7.24699 -1.00599 8.41399 0.746009C8.41399 0.746009 11.909 -0.886991 12.729 1.67701C12.729 1.67701 15.059 -0.307991 16.227 2.60501C16.227 2.60501 18.443 1.67701 18.443 4.00601C18.443 4.00601 21.473 2.72401 21.473 5.52301C21.473 5.52301 24.383 4.35801 23.803 7.50401C23.803 7.50401 28.236 8.20301 26.953 10.302C26.953 10.302 30.923 11.348 29.401 12.985C29.401 12.985 33.713 12.519 31.382 15.433C31.382 15.433 34.647 14.386 32.784 18.003C30.915 21.615 25.089 25.579 21.008 26.044" sodipodi:nodetypes="cccccccccccccc"/>
  <path id="shape85" transform="translate(935.326995127057, 401.034)" fill="#00ad50" stroke="#000000" stroke-width="0.48" stroke-linecap="butt" stroke-linejoin="miter" stroke-miterlimit="4.80000019073486" d="M5.043 9.676C5.043 9.676 -2.651 2.214 0.968005 0C0.968005 0 2.594 0.462 3.179 2.097C3.179 2.097 5.043 -0.584 6.097 2.212C6.097 2.212 8.897 1.281 8.897 3.15L11.107 4.784C11.107 4.784 13.677 4.548 13.211 6.182C13.211 6.182 16.01 5.83 15.891 7.347C15.891 7.347 18.343 7.462 18.11 9.092C18.11 9.092 22.303 9.792 20.439 11.895C20.439 11.895 13.093 13.407 7.964 11.31C7.964 11.31 5.276 10.374 5.044 9.676Z" sodipodi:nodetypes="ccccccccccccc"/>
  <path id="shape86" transform="translate(937.811161214181, 368.135)" fill="#000000" stroke-opacity="0" stroke="#000000" stroke-width="0" stroke-linecap="square" stroke-linejoin="bevel" d="M28.9488 30.245L29.1128 30.672C33.6728 28.917 41.5908 18.108 41.9288 17.648L41.5568 17.373C41.4728 17.49 33.3828 28.537 28.9488 30.244ZM26.3588 28.275L26.5818 28.675C30.5488 26.462 38.4488 15.999 38.7818 15.554L38.4158 15.276C38.3368 15.388 30.2418 26.11 26.3578 28.274ZM24.1088 27.355L24.4048 27.707C28.5948 24.229 34.6958 12.741 34.9568 12.255L34.5508 12.039C34.4888 12.156 28.2308 23.935 24.1098 27.356ZM22.0488 24.705L22.5048 24.769C23.3008 18.962 31.4578 9.822 31.5368 9.732L31.1968 9.424C30.8588 9.804 22.8628 18.76 22.0488 24.705ZM5.71884 17.645L6.17884 17.605C5.49284 9.402 12.3588 0.367 12.4288 0.277L12.0648 0C11.9908 0.089 5.02084 9.262 5.71884 17.645ZM10.0388 18.365L10.4948 18.285C9.35884 11.709 17.1248 2.357 17.2048 2.265L16.8538 1.967C16.5268 2.356 8.86984 11.572 10.0388 18.365ZM16.6788 20.785L17.1388 20.772C16.9128 13.265 24.1148 5.74 24.1888 5.662L23.8588 5.342C23.7868 5.419 16.4448 13.085 16.6788 20.785ZM0.838839 34.385L1.26884 34.225C-1.34616 27.288 3.19484 18.406 3.24084 18.319L2.82684 18.107C2.78184 18.198 -1.85016 27.256 0.838839 34.385ZM3.85884 34.835L4.29684 34.693C2.01584 27.628 5.88184 18.158 5.92284 18.065L5.49584 17.889C5.45884 17.981 1.52984 27.61 3.85884 34.835ZM16.3588 41.895L16.5158 42.329C23.9558 39.653 28.8208 32.869 28.8688 32.804L28.4938 32.535C28.4478 32.602 23.6678 39.273 16.3598 41.895ZM14.8288 40.275L15.0158 40.696C20.9498 38.019 26.4828 30.55 26.5358 30.473L26.1658 30.204C26.1098 30.279 20.6518 37.647 14.8288 40.274ZM13.3888 39.715L13.6578 40.088C18.2988 36.726 24.2618 28.106 24.3248 28.018L23.9468 27.761C23.8858 27.849 17.9698 36.399 13.3888 39.714ZM5.94884 35.385L6.40484 35.319C5.37884 27.905 10.1778 19.111 10.2288 19.024L9.82584 18.801C9.77484 18.892 4.90284 27.819 5.94884 35.385ZM9.17884 37.395L9.48884 37.735C14.2768 33.413 15.9068 21.764 15.9728 21.271L15.5168 21.207C15.5028 21.326 13.8448 33.188 9.17884 37.395Z" sodipodi:nodetypes="cccccccccccccccccccccccccccccccccccccccccccccccccccccccccccccccccccccccccccc"/>
  <path id="shape87" transform="translate(945.987, 370.809)" fill="#000000" stroke-opacity="0" stroke="#000000" stroke-width="0" stroke-linecap="square" stroke-linejoin="bevel" d="M4.283 36.101L4.552 36.473C11.31 31.585 13.142 22.199 13.157 22.108L12.708 22.022C12.69 22.112 10.893 31.317 4.283 36.102ZM5.063 15.871C5.063 16.309 5.085 16.746 5.125 17.189C5.118 17.151 0 33.772 0 33.772L0.438 33.907L5.577 17.233C4.783 9.173 11.873 0.374 11.943 0.288L11.589 0C11.518 0.08 5.063 8.093 5.063 15.871Z" sodipodi:nodetypes="cccccccccccccc"/>
  <path id="shape88" transform="translate(938.28, 375.969)" fill="#000000" stroke-opacity="0" stroke="#000000" stroke-width="0" stroke-linecap="square" stroke-linejoin="bevel" d="M18.13 14.771C18.063 15.004 16.503 26.389 10.362 30.589L10.622 30.969C16.937 26.649 18.471 15.424 18.533 14.95C21.258 11.707 27.538 0.336 27.602 0.222L27.198 0C27.135 0.114 20.88 11.45 18.13 14.77ZM0 27.211C0.046 27.45 1.072 33.107 2.246 35.102L2.642 34.871C1.506 32.945 0.467 27.191 0.456 27.131ZM2.91 27.281C2.96 30.097 2.974 34.717 2.816 35.128L3.244 35.296C3.48 34.704 3.39 28.512 3.372 27.277Z" sodipodi:nodetypes="cccccccccccccccccc"/>
  <path id="shape89" transform="translate(941.45, 404.14)" fill="#000000" stroke-opacity="0" stroke="#000000" stroke-width="0" stroke-linecap="square" stroke-linejoin="bevel" d="M0 7.18L0.418 7.367C2.389 3.077 2.996 0.118 3.004 0.09L2.552 0C2.545 0.024 1.95 2.942 0 7.18Z" sodipodi:nodetypes="ccccc"/>
  <path id="shape90" transform="translate(941.89, 405.77)" fill="#000000" stroke-opacity="0" stroke="#000000" stroke-width="0" stroke-linecap="square" stroke-linejoin="bevel" d="M0 5.68L0.233 6.076C3.89 3.951 4.739 0.255 4.769 0.1L4.321 0C4.311 0.036 3.48 3.66 0 5.68Z" sodipodi:nodetypes="ccccc"/>
  <path id="shape91" transform="translate(942.57, 407.107)" fill="#000000" stroke-opacity="0" stroke="#000000" stroke-width="0" stroke-linecap="square" stroke-linejoin="bevel" d="M0 4.663L0.046 5.118C3.63 4.76 6.071 0.407 6.176 0.223L5.771 0C5.748 0.045 3.342 4.328 0 4.663Z" sodipodi:nodetypes="ccccc"/>
  <path id="shape92" transform="translate(942.93, 408.248)" fill="#000000" stroke-opacity="0" stroke="#000000" stroke-width="0" stroke-linecap="square" stroke-linejoin="bevel" d="M0 3.752L0.028 4.21C5.782 3.856 8.371 0.417 8.476 0.272L8.104 0C8.08 0.032 5.527 3.415 0 3.752Z" sodipodi:nodetypes="ccccc"/>
  <path id="shape93" transform="translate(943.246, 410.121)" fill="#000000" stroke-opacity="0" stroke="#000000" stroke-width="0" stroke-linecap="square" stroke-linejoin="bevel" d="M0.094 1.999L0 2.448C0.31 2.518 7.642 4.073 10.152 0.251L9.767 0C7.433 3.558 0.166 2.013 0.094 1.999Z" sodipodi:nodetypes="ccccc"/>
  <path id="shape94" transform="translate(778.8, 143.94)" fill="none" stroke="#000000" stroke-width="4.2" stroke-linecap="butt" stroke-linejoin="miter" stroke-miterlimit="4.80000019073486" d="M0 0L0 205.09C0 272.17 121.2 312 121.2 312C121.2 312 242.4 272.167 242.4 205.09L242.4 0Z" sodipodi:nodetypes="cccccc"/>
 </g>
</svg>
