<?xml version="1.0" standalone="no"?>
<!DOCTYPE svg PUBLIC "-//W3C//DTD SVG 20010904//EN" "http://www.w3.org/TR/2001/REC-SVG-20010904/DTD/svg10.dtd">
<!-- Created using Krita: https://krita.org -->
<svg xmlns="http://www.w3.org/2000/svg" 
    xmlns:xlink="http://www.w3.org/1999/xlink"
    xmlns:krita="http://krita.org/namespaces/svg/krita"
    xmlns:sodipodi="http://sodipodi.sourceforge.net/DTD/sodipodi-0.dtd"
    width="512pt"
    height="512pt"
    viewBox="0 0 144 144">
<defs/>
<path id="shape0" transform="matrix(0.799999999973443 0 0 1.6 0 0)" fill="#0038a8" stroke-opacity="0" stroke="#000000" stroke-width="0" stroke-linecap="square" stroke-linejoin="bevel" d="M0 0L180 0L180 90L0 90Z" sodipodi:nodetypes="ccccc"/><path id="shape1" transform="matrix(0.799999999973443 0 0 1.6 0 71.9999999998322)" fill="#ce1126" stroke-opacity="0" stroke="#000000" stroke-width="0" stroke-linecap="square" stroke-linejoin="bevel" d="M0 0L180 0L180 45L0 45Z" sodipodi:nodetypes="ccccc"/><path id="shape2" transform="matrix(0.799999999973443 0 0 1.6 0 0)" fill="#ffffff" stroke-opacity="0" stroke="#000000" stroke-width="0" stroke-linecap="square" stroke-linejoin="bevel" d="M77.942 45L0 90L0 0" sodipodi:nodetypes="ccc"/><g id="group0" transform="matrix(0.819147920828226 0 0 0.819147920828226 22.8635806737685 72)" fill="none">
  <circle id="shape0" transform="translate(-9, -8.99999999999999)" r="9" cx="9" cy="9" fill="#fcd116" stroke-opacity="0" stroke="#000000" stroke-width="0" stroke-linecap="square" stroke-linejoin="bevel"/>
  <g id="d" fill="none">
   <g id="c" fill="none">
    <g id="b" fill="none">
     <path id="shape1" transform="matrix(19 0 0 19 -19 -1.17799999999998)" fill="#fcd116" stroke-opacity="0" stroke="#000000" stroke-width="0" stroke-linecap="square" stroke-linejoin="bevel" d="M0 0.062L0.062 0.124L1 0.062L0.062 0Z" sodipodi:nodetypes="ccccc"/>
     <path id="a" transform="matrix(19.2381 0 0 19.2381 -17.0064804 1.4210854715202e-14)" fill="#fcd116" stroke-opacity="0" stroke="#000000" stroke-width="0" stroke-linecap="square" stroke-linejoin="bevel" d="M0 0.116L0.05 0.166L0.884 0Z" sodipodi:nodetypes="cccc"/>
     <g id="group1" transform="matrix(1 0 0 -1 0 1.4210854715202e-14)" fill="none">
      <path id="a1" transform="matrix(19.2381 0 0 19.2381 -17.0064804 1.4210854715202e-14)" fill="#fcd116" stroke-opacity="0" stroke="#000000" stroke-width="0" stroke-linecap="square" stroke-linejoin="bevel" d="M0 0.116L0.05 0.166L0.884 0Z" sodipodi:nodetypes="cccc"/>
     </g>
    </g>
    <g id="group2" transform="matrix(0.707106781186547 0.707106781186547 -0.707106781186547 0.707106781186547 -7.105427357601e-15 1.4210854715202e-14)" fill="none">
     <g id="b1" fill="none">
      <path id="shape2" transform="matrix(19 0 0 19 -19 -1.178)" fill="#fcd116" stroke-opacity="0" stroke="#000000" stroke-width="0" stroke-linecap="square" stroke-linejoin="bevel" d="M0 0.062L0.062 0.124L1 0.062L0.062 0Z" sodipodi:nodetypes="ccccc"/>
      <path id="a2" transform="matrix(19.2381 0 0 19.2381 -17.0064804 7.105427357601e-15)" fill="#fcd116" stroke-opacity="0" stroke="#000000" stroke-width="0" stroke-linecap="square" stroke-linejoin="bevel" d="M0 0.116L0.05 0.166L0.884 0Z" sodipodi:nodetypes="cccc"/>
      <g id="group3" transform="matrix(1 0 0 -1 -7.105427357601e-15 1.4210854715202e-14)" fill="none">
       <path id="a3" transform="matrix(19.2381 -3.5527136788005e-15 3.5527136788005e-15 19.2381 -17.0064804 -7.105427357601e-15)" fill="#fcd116" stroke-opacity="0" stroke="#000000" stroke-width="0" stroke-linecap="square" stroke-linejoin="bevel" d="M0 0.116L0.05 0.166L0.884 0Z" sodipodi:nodetypes="cccc"/>
      </g>
     </g>
    </g>
   </g>
   <g id="group4" transform="matrix(0 1 -1 0 0 0)" fill="none">
    <g id="c1" fill="none">
     <g id="b2" fill="none">
      <path id="shape3" transform="matrix(19 0 0 19 -19 -1.178)" fill="#fcd116" stroke-opacity="0" stroke="#000000" stroke-width="0" stroke-linecap="square" stroke-linejoin="bevel" d="M0 0.062L0.062 0.124L1 0.062L0.062 0Z" sodipodi:nodetypes="ccccc"/>
      <path id="a4" transform="matrix(19.2381 0 0 19.2381 -17.0064804 7.105427357601e-15)" fill="#fcd116" stroke-opacity="0" stroke="#000000" stroke-width="0" stroke-linecap="square" stroke-linejoin="bevel" d="M0 0.116L0.05 0.166L0.884 0Z" sodipodi:nodetypes="cccc"/>
      <g id="group5" transform="matrix(1 0 0 -1 -3.5527136788005e-15 0)" fill="none">
       <path id="a5" transform="matrix(19.2381 0 0 19.2381 -17.0064804 0)" fill="#fcd116" stroke-opacity="0" stroke="#000000" stroke-width="0" stroke-linecap="square" stroke-linejoin="bevel" d="M0 0.116L0.05 0.166L0.884 0Z" sodipodi:nodetypes="cccc"/>
      </g>
     </g>
     <g id="group6" transform="matrix(0.707106781186547 0.707106781186547 -0.707106781186547 0.707106781186547 -1.06581410364015e-14 0)" fill="none">
      <g id="b3" fill="none">
       <path id="shape4" transform="matrix(19 0 0 19 -19 -1.17799999999998)" fill="#fcd116" stroke-opacity="0" stroke="#000000" stroke-width="0" stroke-linecap="square" stroke-linejoin="bevel" d="M0 0.062L0.062 0.124L1 0.062L0.062 0Z" sodipodi:nodetypes="ccccc"/>
       <path id="a6" transform="matrix(19.2381 0 0 19.2381 -17.0064804 7.105427357601e-15)" fill="#fcd116" stroke-opacity="0" stroke="#000000" stroke-width="0" stroke-linecap="square" stroke-linejoin="bevel" d="M0 0.116L0.05 0.166L0.884 0Z" sodipodi:nodetypes="cccc"/>
       <g id="group7" transform="matrix(1 0 0 -1 -7.105427357601e-15 1.4210854715202e-14)" fill="none">
        <path id="a7" transform="matrix(19.2381 -3.5527136788005e-15 3.5527136788005e-15 19.2381 -17.0064804 0)" fill="#fcd116" stroke-opacity="0" stroke="#000000" stroke-width="0" stroke-linecap="square" stroke-linejoin="bevel" d="M0 0.116L0.05 0.166L0.884 0Z" sodipodi:nodetypes="cccc"/>
       </g>
      </g>
     </g>
    </g>
   </g>
  </g>
  <g id="group8" transform="matrix(-1 0 0 -1 0 1.4210854715202e-14)" fill="none">
   <g id="d1" fill="none">
    <g id="c2" fill="none">
     <g id="b4" fill="none">
      <path id="shape5" transform="matrix(19 0 0 19 -19 -1.178)" fill="#fcd116" stroke-opacity="0" stroke="#000000" stroke-width="0" stroke-linecap="square" stroke-linejoin="bevel" d="M0 0.062L0.062 0.124L1 0.062L0.062 0Z" sodipodi:nodetypes="ccccc"/>
      <path id="a8" transform="matrix(19.2381 0 0 19.2381 -17.0064804 1.4210854715202e-14)" fill="#fcd116" stroke-opacity="0" stroke="#000000" stroke-width="0" stroke-linecap="square" stroke-linejoin="bevel" d="M0 0.116L0.05 0.166L0.884 0Z" sodipodi:nodetypes="cccc"/>
      <g id="group9" transform="matrix(1 0 0 -1 0 1.4210854715202e-14)" fill="none">
       <path id="a9" transform="matrix(19.2381 0 0 19.2381 -17.0064804 1.4210854715202e-14)" fill="#fcd116" stroke-opacity="0" stroke="#000000" stroke-width="0" stroke-linecap="square" stroke-linejoin="bevel" d="M0 0.116L0.05 0.166L0.884 0Z" sodipodi:nodetypes="cccc"/>
      </g>
     </g>
     <g id="group10" transform="matrix(0.707106781186547 0.707106781186547 -0.707106781186547 0.707106781186547 -7.105427357601e-15 1.4210854715202e-14)" fill="none">
      <g id="b5" fill="none">
       <path id="shape6" transform="matrix(19 0 0 19 -19 -1.17800000000001)" fill="#fcd116" stroke-opacity="0" stroke="#000000" stroke-width="0" stroke-linecap="square" stroke-linejoin="bevel" d="M0 0.062L0.062 0.124L1 0.062L0.062 0Z" sodipodi:nodetypes="ccccc"/>
       <path id="a10" transform="matrix(19.2381 0 0 19.2381 -17.0064804 0)" fill="#fcd116" stroke-opacity="0" stroke="#000000" stroke-width="0" stroke-linecap="square" stroke-linejoin="bevel" d="M0 0.116L0.05 0.166L0.884 0Z" sodipodi:nodetypes="cccc"/>
       <g id="group11" transform="matrix(1 0 0 -1 7.105427357601e-15 0)" fill="none">
        <path id="a11" transform="matrix(19.2381 -3.5527136788005e-15 3.5527136788005e-15 19.2381 -17.0064804 0)" fill="#fcd116" stroke-opacity="0" stroke="#000000" stroke-width="0" stroke-linecap="square" stroke-linejoin="bevel" d="M0 0.116L0.05 0.166L0.884 0Z" sodipodi:nodetypes="cccc"/>
       </g>
      </g>
     </g>
    </g>
    <g id="group12" transform="matrix(0 1 -1 0 0 0)" fill="none">
     <g id="c3" fill="none">
      <g id="b6" fill="none">
       <path id="shape7" transform="matrix(19 0 0 19 -19 -1.17800000000003)" fill="#fcd116" stroke-opacity="0" stroke="#000000" stroke-width="0" stroke-linecap="square" stroke-linejoin="bevel" d="M0 0.062L0.062 0.124L1 0.062L0.062 0Z" sodipodi:nodetypes="ccccc"/>
       <path id="a12" transform="matrix(19.2381 0 0 19.2381 -17.0064804 0)" fill="#fcd116" stroke-opacity="0" stroke="#000000" stroke-width="0" stroke-linecap="square" stroke-linejoin="bevel" d="M0 0.116L0.05 0.166L0.884 0Z" sodipodi:nodetypes="cccc"/>
       <g id="group13" transform="matrix(1 0 0 -1 3.5527136788005e-15 0)" fill="none">
        <path id="a13" transform="matrix(19.2381 0 0 19.2381 -17.0064804 0)" fill="#fcd116" stroke-opacity="0" stroke="#000000" stroke-width="0" stroke-linecap="square" stroke-linejoin="bevel" d="M0 0.116L0.05 0.166L0.884 0Z" sodipodi:nodetypes="cccc"/>
       </g>
      </g>
      <g id="group14" transform="matrix(0.707106781186547 0.707106781186547 -0.707106781186547 0.707106781186547 3.5527136788005e-15 -1.4210854715202e-14)" fill="none">
       <g id="b7" fill="none">
        <path id="shape8" transform="matrix(19 0 0 19 -19 -1.17799999999998)" fill="#fcd116" stroke-opacity="0" stroke="#000000" stroke-width="0" stroke-linecap="square" stroke-linejoin="bevel" d="M0 0.062L0.062 0.124L1 0.062L0.062 0Z" sodipodi:nodetypes="ccccc"/>
        <path id="a14" transform="matrix(19.2381 0 0 19.2381 -17.0064804 0)" fill="#fcd116" stroke-opacity="0" stroke="#000000" stroke-width="0" stroke-linecap="square" stroke-linejoin="bevel" d="M0 0.116L0.05 0.166L0.884 0Z" sodipodi:nodetypes="cccc"/>
        <g id="group15" transform="matrix(1 0 0 -1 1.06581410364015e-14 -1.4210854715202e-14)" fill="none">
         <path id="a15" transform="matrix(19.2381 -3.5527136788005e-15 3.5527136788005e-15 19.2381 -17.0064804 1.4210854715202e-14)" fill="#fcd116" stroke-opacity="0" stroke="#000000" stroke-width="0" stroke-linecap="square" stroke-linejoin="bevel" d="M0 0.116L0.05 0.166L0.884 0Z" sodipodi:nodetypes="cccc"/>
        </g>
       </g>
      </g>
     </g>
    </g>
   </g>
  </g>
  <g id="group16" transform="translate(-2.02, 1.4210854715202e-14)" fill="none">
   <g id="f" transform="translate(37.962, 1.4210854715202e-14)" fill="none">
    <path id="e" transform="translate(-4.04500000000001, 1.4210854715202e-14)" fill="#fcd116" stroke-opacity="0" stroke="#000000" stroke-width="0" stroke-linecap="square" stroke-linejoin="bevel" d="M9.045 0L5.663 1.176L5.59 4.756L3.427 1.902L0 2.939L2.045 0Z" sodipodi:nodetypes="ccccccc"/>
    <g id="group17" transform="matrix(1 0 0 -1 3.5527136788005e-15 1.4210854715202e-14)" fill="none">
     <path id="e1" transform="translate(-4.04500000000001, 1.4210854715202e-14)" fill="#fcd116" stroke-opacity="0" stroke="#000000" stroke-width="0" stroke-linecap="square" stroke-linejoin="bevel" d="M9.045 0L5.663 1.176L5.59 4.756L3.427 1.902L0 2.939L2.045 0Z" sodipodi:nodetypes="ccccccc"/>
    </g>
   </g>
   <g id="group18" transform="matrix(-0.5 0.866025403784439 -0.866025403784439 -0.5 0 -1.4210854715202e-14)" fill="none">
    <g id="f1" transform="translate(37.962, 1.4210854715202e-14)" fill="none">
     <path id="e2" transform="translate(-4.04500000000002, 0)" fill="#fcd116" stroke-opacity="0" stroke="#000000" stroke-width="0" stroke-linecap="square" stroke-linejoin="bevel" d="M9.045 0L5.663 1.176L5.59 4.756L3.427 1.902L0 2.939L2.045 0Z" sodipodi:nodetypes="ccccccc"/>
     <g id="group19" transform="matrix(1 -1.11022302462516e-16 -1.11022302462516e-16 -1 -7.105427357601e-15 0)" fill="none">
      <path id="e3" transform="translate(-4.045, -1.4210854715202e-14)" fill="#fcd116" stroke-opacity="0" stroke="#000000" stroke-width="0" stroke-linecap="square" stroke-linejoin="bevel" d="M9.045 0L5.663 1.176L5.59 4.756L3.427 1.902L0 2.939L2.045 0Z" sodipodi:nodetypes="ccccccc"/>
     </g>
    </g>
   </g>
   <g id="group20" transform="matrix(-0.5 -0.866025403784439 0.866025403784439 -0.5 -3.5527136788005e-15 -1.4210854715202e-14)" fill="none">
    <g id="f2" transform="translate(37.962, -3.5527136788005e-15)" fill="none">
     <path id="e4" transform="translate(-4.04499999999999, -7.105427357601e-15)" fill="#fcd116" stroke-opacity="0" stroke="#000000" stroke-width="0" stroke-linecap="square" stroke-linejoin="bevel" d="M9.045 0L5.663 1.176L5.59 4.756L3.427 1.902L0 2.939L2.045 0Z" sodipodi:nodetypes="ccccccc"/>
     <g id="group21" transform="matrix(1 1.11022302462516e-16 1.11022302462516e-16 -1 0 -7.105427357601e-15)" fill="none">
      <path id="e5" transform="translate(-4.04499999999999, 0)" fill="#fcd116" stroke-opacity="0" stroke="#000000" stroke-width="0" stroke-linecap="square" stroke-linejoin="bevel" d="M9.045 0L5.663 1.176L5.59 4.756L3.427 1.902L0 2.939L2.045 0Z" sodipodi:nodetypes="ccccccc"/>
     </g>
    </g>
   </g>
  </g>
 </g>
</svg>
