<?xml version="1.0" standalone="no"?>
<!DOCTYPE svg PUBLIC "-//W3C//DTD SVG 20010904//EN" "http://www.w3.org/TR/2001/REC-SVG-20010904/DTD/svg10.dtd">
<!-- Created using Krita: https://krita.org -->
<svg xmlns="http://www.w3.org/2000/svg" 
    xmlns:xlink="http://www.w3.org/1999/xlink"
    xmlns:krita="http://krita.org/namespaces/svg/krita"
    xmlns:sodipodi="http://sodipodi.sourceforge.net/DTD/sodipodi-0.dtd"
    width="512pt"
    height="512pt"
    viewBox="0 0 144 144">
<defs/>
<path id="shape0" transform="matrix(1.19999999990478 0 0 1.79999999994025 5.71343150568282e-09 2.39013786540454e-09)" fill="#ffffff" stroke-opacity="0" stroke="#000000" stroke-width="0" stroke-linecap="square" stroke-linejoin="bevel" d="M0 0L120 0L120 80L0 80Z" sodipodi:nodetypes="ccccc"/><path id="shape1" transform="matrix(1.19999999990478 0 0 1.79999999994025 41.52 -4.38194547314197e-09)" fill="#01411c" stroke-opacity="0" stroke="#000000" stroke-width="0" stroke-linecap="square" stroke-linejoin="bevel" d="M0 0L85.4 0L85.4 80L0 80Z" sodipodi:nodetypes="ccccc"/><circle id="shape2" transform="matrix(1.45359439692827 0 0 1.45359439692827 60.9884280568877 39.6233651995486)" r="24" cx="24" cy="24" fill="#ffffff" stroke-opacity="0" stroke="#000000" stroke-width="0" stroke-linecap="square" stroke-linejoin="bevel"/><circle id="shape3" transform="matrix(1.45359439692827 0 0 1.45359439692827 72.8134184782686 34.6041037478946)" r="22" cx="22" cy="22" fill="#01411c" stroke-opacity="0" stroke="#000000" stroke-width="0" stroke-linecap="square" stroke-linejoin="bevel"/><path id="shape4" transform="matrix(1.45359439692827 0 0 1.45359439692827 101.689071167273 48.4045289435991)" fill="#ffffff" stroke-opacity="0" stroke="#000000" stroke-width="0" stroke-linecap="square" stroke-linejoin="bevel" d="M4.751 0L14.861 11.373L0 8.115L13.94 2.015L6.245 15.144Z" sodipodi:nodetypes="cccccc"/>
</svg>
