<?xml version="1.0" encoding="utf-8"?>
<!-- Generator: Adobe Illustrator 26.0.3, SVG Export Plug-In . SVG Version: 6.00 Build 0)  -->
<svg version="1.0" id="katman_1" xmlns="http://www.w3.org/2000/svg" xmlns:xlink="http://www.w3.org/1999/xlink" x="0px" y="0px"
	 viewBox="0 0 600 450" style="enable-background:new 0 0 600 450;" xml:space="preserve">
<style type="text/css">
	.st0{fill:#4C74B9;}
	.st1{fill:#E8326A;}
</style>
<path class="st0" d="M149.2,225.4h60.2c5.5,0,10-4.5,10-10v-60.2c0-5.5,4.5-10,10-10h220.8c5.5,0,10-4.5,10-10V74.8
	c0-5.5-4.5-10-10-10H219.4c-44.3,0-80.3,35.9-80.3,80.3v70.2C139.1,220.9,143.6,225.4,149.2,225.4z"/>
<path class="st1" d="M450.2,225.4H390c-5.5,0-10,4.5-10,10v60.2c0,5.5-4.5,10-10,10H149.2c-5.5,0-10,4.5-10,10v60.2
	c0,5.5,4.5,10,10,10H380c44.3,0,80.3-35.9,80.3-80.3v-70.2C460.3,229.9,455.8,225.4,450.2,225.4z"/>
</svg>
